G04 #@! TF.FileFunction,Soldermask,Top*
%FSLAX46Y46*%
G04 Gerber Fmt 4.6, Leading zero omitted, Abs format (unit mm)*
G04 Created by KiCad (PCBNEW 4.0.5) date Sat Jan 28 10:55:45 2017*
%MOMM*%
%LPD*%
G01*
G04 APERTURE LIST*
%ADD10C,0.100000*%
%ADD11R,2.000000X2.000000*%
%ADD12O,2.000000X2.000000*%
%ADD13C,1.800000*%
%ADD14O,1.800000X1.800000*%
%ADD15R,2.100000X2.100000*%
%ADD16O,2.100000X2.100000*%
%ADD17C,2.000000*%
%ADD18R,2.127200X2.127200*%
%ADD19O,2.127200X2.127200*%
%ADD20C,4.464000*%
G04 APERTURE END LIST*
D10*
D11*
X155575000Y-135890000D03*
D12*
X178435000Y-128270000D03*
X158115000Y-135890000D03*
X175895000Y-128270000D03*
X160655000Y-135890000D03*
X173355000Y-128270000D03*
X163195000Y-135890000D03*
X170815000Y-128270000D03*
X165735000Y-135890000D03*
X168275000Y-128270000D03*
X168275000Y-135890000D03*
X165735000Y-128270000D03*
X170815000Y-135890000D03*
X163195000Y-128270000D03*
X173355000Y-135890000D03*
X160655000Y-128270000D03*
X175895000Y-135890000D03*
X158115000Y-128270000D03*
X178435000Y-135890000D03*
X155575000Y-128270000D03*
D13*
X151130000Y-144145000D03*
D14*
X151130000Y-141605000D03*
D15*
X170180000Y-143510000D03*
D16*
X172720000Y-143510000D03*
X175260000Y-143510000D03*
X177800000Y-143510000D03*
X180340000Y-143510000D03*
D15*
X170180000Y-99060000D03*
D16*
X172720000Y-99060000D03*
X175260000Y-99060000D03*
X177800000Y-99060000D03*
X180340000Y-99060000D03*
D17*
X158115000Y-118745000D03*
X160615000Y-118745000D03*
X158115000Y-138430000D03*
X160615000Y-138430000D03*
D11*
X155575000Y-116205000D03*
D12*
X178435000Y-108585000D03*
X158115000Y-116205000D03*
X175895000Y-108585000D03*
X160655000Y-116205000D03*
X173355000Y-108585000D03*
X163195000Y-116205000D03*
X170815000Y-108585000D03*
X165735000Y-116205000D03*
X168275000Y-108585000D03*
X168275000Y-116205000D03*
X165735000Y-108585000D03*
X170815000Y-116205000D03*
X163195000Y-108585000D03*
X173355000Y-116205000D03*
X160655000Y-108585000D03*
X175895000Y-116205000D03*
X158115000Y-108585000D03*
X178435000Y-116205000D03*
X155575000Y-108585000D03*
D18*
X140335000Y-138430000D03*
D19*
X142875000Y-138430000D03*
X140335000Y-135890000D03*
X142875000Y-135890000D03*
X140335000Y-133350000D03*
X142875000Y-133350000D03*
X140335000Y-130810000D03*
X142875000Y-130810000D03*
D18*
X140335000Y-112395000D03*
D19*
X142875000Y-112395000D03*
X140335000Y-109855000D03*
X142875000Y-109855000D03*
X140335000Y-107315000D03*
X142875000Y-107315000D03*
X140335000Y-104775000D03*
X142875000Y-104775000D03*
D17*
X170815000Y-139065000D03*
D12*
X163195000Y-139065000D03*
D17*
X170815000Y-119380000D03*
D12*
X163195000Y-119380000D03*
D13*
X146685000Y-141605000D03*
D14*
X146685000Y-144145000D03*
D13*
X141605000Y-141605000D03*
D14*
X141605000Y-144145000D03*
D13*
X149225000Y-137795000D03*
D14*
X149225000Y-135255000D03*
D13*
X149225000Y-132080000D03*
D14*
X149225000Y-129540000D03*
D13*
X141605000Y-127000000D03*
D14*
X141605000Y-124460000D03*
D13*
X146685000Y-127000000D03*
D14*
X146685000Y-124460000D03*
D13*
X151765000Y-127000000D03*
D14*
X151765000Y-124460000D03*
D13*
X146685000Y-118110000D03*
D14*
X146685000Y-115570000D03*
D13*
X151765000Y-118110000D03*
D14*
X151765000Y-115570000D03*
D13*
X141605000Y-115570000D03*
D14*
X141605000Y-118110000D03*
D13*
X149225000Y-111760000D03*
D14*
X149225000Y-109220000D03*
D13*
X149225000Y-106045000D03*
D14*
X149225000Y-103505000D03*
D13*
X141605000Y-100965000D03*
D14*
X141605000Y-98425000D03*
D13*
X146685000Y-100965000D03*
D14*
X146685000Y-98425000D03*
D13*
X151765000Y-100965000D03*
D14*
X151765000Y-98425000D03*
D20*
X139065000Y-121285000D03*
X177165000Y-121285000D03*
M02*
