M48
INCH,TZ
T1C0.016
T2C0.028
T3C0.031
T4C0.039
T5C0.040
T6C0.126
%
G90
G05
T1
X5.375Y-4.2
X5.375Y-5.15
X5.7Y-4.475
X5.7Y-5.25
X5.75Y-5.475
X5.825Y-4.05
X5.825Y-4.6
X5.9Y-4.55
X5.975Y-4.45
X5.975Y-5.175
X6.025Y-4.2
X6.4Y-4.15
X6.45Y-4.1
X6.5Y-4.875
X6.525Y-5.175
X6.625Y-5.475
X6.675Y-4.875
X6.75Y-4.875
X6.825Y-4.1
X6.875Y-5.45
X6.925Y-4.1
T2
X5.575Y-3.875
X5.575Y-3.975
X5.575Y-4.55
X5.575Y-4.65
X5.575Y-4.9
X5.575Y-5.
X5.575Y-5.575
X5.575Y-5.675
X5.775Y-3.875
X5.775Y-3.975
X5.775Y-4.55
X5.775Y-4.65
X5.775Y-4.9
X5.775Y-5.
X5.775Y-5.575
X5.775Y-5.675
X5.875Y-4.075
X5.875Y-4.175
X5.875Y-4.3
X5.875Y-4.4
X5.875Y-5.1
X5.875Y-5.2
X5.875Y-5.325
X5.875Y-5.425
X5.95Y-5.575
X5.95Y-5.675
X5.975Y-3.875
X5.975Y-3.975
X5.975Y-4.55
X5.975Y-4.65
X5.975Y-4.9
X5.975Y-5.
T3
X6.125Y-4.275
X6.125Y-4.575
X6.125Y-5.05
X6.125Y-5.35
X6.225Y-4.275
X6.225Y-4.575
X6.225Y-4.675
X6.225Y-5.05
X6.225Y-5.35
X6.225Y-5.45
X6.3234Y-4.675
X6.3234Y-5.45
X6.325Y-4.275
X6.325Y-4.575
X6.325Y-5.05
X6.325Y-5.35
X6.425Y-4.275
X6.425Y-4.575
X6.425Y-4.7
X6.425Y-5.05
X6.425Y-5.35
X6.425Y-5.475
X6.525Y-4.275
X6.525Y-4.575
X6.525Y-5.05
X6.525Y-5.35
X6.625Y-4.275
X6.625Y-4.575
X6.625Y-5.05
X6.625Y-5.35
X6.725Y-4.275
X6.725Y-4.575
X6.725Y-4.7
X6.725Y-5.05
X6.725Y-5.35
X6.725Y-5.475
X6.825Y-4.275
X6.825Y-4.575
X6.825Y-5.05
X6.825Y-5.35
X6.925Y-4.275
X6.925Y-4.575
X6.925Y-5.05
X6.925Y-5.35
X7.025Y-4.275
X7.025Y-4.575
X7.025Y-5.05
X7.025Y-5.35
T4
X6.7Y-3.9
X6.7Y-5.65
X6.8Y-3.9
X6.8Y-5.65
X6.9Y-3.9
X6.9Y-5.65
X7.Y-3.9
X7.Y-5.65
X7.1Y-3.9
X7.1Y-5.65
T5
X5.525Y-4.125
X5.525Y-4.225
X5.525Y-4.325
X5.525Y-4.425
X5.525Y-5.15
X5.525Y-5.25
X5.525Y-5.35
X5.525Y-5.45
X5.625Y-4.125
X5.625Y-4.225
X5.625Y-4.325
X5.625Y-4.425
X5.625Y-5.15
X5.625Y-5.25
X5.625Y-5.35
X5.625Y-5.45
T6
X5.475Y-4.775
X6.975Y-4.775
T0
M30
