G04 #@! TF.FileFunction,Copper,L2,Bot,Signal*
%FSLAX46Y46*%
G04 Gerber Fmt 4.6, Leading zero omitted, Abs format (unit mm)*
G04 Created by KiCad (PCBNEW 4.0.5) date Sat Jan 28 10:55:45 2017*
%MOMM*%
%LPD*%
G01*
G04 APERTURE LIST*
%ADD10C,0.100000*%
%ADD11R,1.600000X1.600000*%
%ADD12O,1.600000X1.600000*%
%ADD13C,1.400000*%
%ADD14O,1.400000X1.400000*%
%ADD15R,1.700000X1.700000*%
%ADD16O,1.700000X1.700000*%
%ADD17C,1.600000*%
%ADD18R,1.727200X1.727200*%
%ADD19O,1.727200X1.727200*%
%ADD20C,4.064000*%
%ADD21C,0.600000*%
%ADD22C,2.000000*%
%ADD23C,0.250000*%
%ADD24C,0.500000*%
%ADD25C,0.254000*%
G04 APERTURE END LIST*
D10*
D11*
X155575000Y-135890000D03*
D12*
X178435000Y-128270000D03*
X158115000Y-135890000D03*
X175895000Y-128270000D03*
X160655000Y-135890000D03*
X173355000Y-128270000D03*
X163195000Y-135890000D03*
X170815000Y-128270000D03*
X165735000Y-135890000D03*
X168275000Y-128270000D03*
X168275000Y-135890000D03*
X165735000Y-128270000D03*
X170815000Y-135890000D03*
X163195000Y-128270000D03*
X173355000Y-135890000D03*
X160655000Y-128270000D03*
X175895000Y-135890000D03*
X158115000Y-128270000D03*
X178435000Y-135890000D03*
X155575000Y-128270000D03*
D13*
X151130000Y-144145000D03*
D14*
X151130000Y-141605000D03*
D15*
X170180000Y-143510000D03*
D16*
X172720000Y-143510000D03*
X175260000Y-143510000D03*
X177800000Y-143510000D03*
X180340000Y-143510000D03*
D15*
X170180000Y-99060000D03*
D16*
X172720000Y-99060000D03*
X175260000Y-99060000D03*
X177800000Y-99060000D03*
X180340000Y-99060000D03*
D17*
X158115000Y-118745000D03*
X160615000Y-118745000D03*
X158115000Y-138430000D03*
X160615000Y-138430000D03*
D11*
X155575000Y-116205000D03*
D12*
X178435000Y-108585000D03*
X158115000Y-116205000D03*
X175895000Y-108585000D03*
X160655000Y-116205000D03*
X173355000Y-108585000D03*
X163195000Y-116205000D03*
X170815000Y-108585000D03*
X165735000Y-116205000D03*
X168275000Y-108585000D03*
X168275000Y-116205000D03*
X165735000Y-108585000D03*
X170815000Y-116205000D03*
X163195000Y-108585000D03*
X173355000Y-116205000D03*
X160655000Y-108585000D03*
X175895000Y-116205000D03*
X158115000Y-108585000D03*
X178435000Y-116205000D03*
X155575000Y-108585000D03*
D18*
X140335000Y-138430000D03*
D19*
X142875000Y-138430000D03*
X140335000Y-135890000D03*
X142875000Y-135890000D03*
X140335000Y-133350000D03*
X142875000Y-133350000D03*
X140335000Y-130810000D03*
X142875000Y-130810000D03*
D18*
X140335000Y-112395000D03*
D19*
X142875000Y-112395000D03*
X140335000Y-109855000D03*
X142875000Y-109855000D03*
X140335000Y-107315000D03*
X142875000Y-107315000D03*
X140335000Y-104775000D03*
X142875000Y-104775000D03*
D17*
X170815000Y-139065000D03*
D12*
X163195000Y-139065000D03*
D17*
X170815000Y-119380000D03*
D12*
X163195000Y-119380000D03*
D13*
X146685000Y-141605000D03*
D14*
X146685000Y-144145000D03*
D13*
X141605000Y-141605000D03*
D14*
X141605000Y-144145000D03*
D13*
X149225000Y-137795000D03*
D14*
X149225000Y-135255000D03*
D13*
X149225000Y-132080000D03*
D14*
X149225000Y-129540000D03*
D13*
X141605000Y-127000000D03*
D14*
X141605000Y-124460000D03*
D13*
X146685000Y-127000000D03*
D14*
X146685000Y-124460000D03*
D13*
X151765000Y-127000000D03*
D14*
X151765000Y-124460000D03*
D13*
X146685000Y-118110000D03*
D14*
X146685000Y-115570000D03*
D13*
X151765000Y-118110000D03*
D14*
X151765000Y-115570000D03*
D13*
X141605000Y-115570000D03*
D14*
X141605000Y-118110000D03*
D13*
X149225000Y-111760000D03*
D14*
X149225000Y-109220000D03*
D13*
X149225000Y-106045000D03*
D14*
X149225000Y-103505000D03*
D13*
X141605000Y-100965000D03*
D14*
X141605000Y-98425000D03*
D13*
X146685000Y-100965000D03*
D14*
X146685000Y-98425000D03*
D13*
X151765000Y-100965000D03*
D14*
X151765000Y-98425000D03*
D20*
X139065000Y-121285000D03*
X177165000Y-121285000D03*
D21*
X174625000Y-138430000D03*
X175895000Y-104140000D03*
X171450000Y-123825000D03*
X168275000Y-139065000D03*
X173355000Y-104140000D03*
X169545000Y-123825000D03*
X165735000Y-131445000D03*
X151765000Y-131445000D03*
X165100000Y-123825000D03*
X163830000Y-104140000D03*
X162560000Y-105410000D03*
X151765000Y-113030000D03*
X149860000Y-115570000D03*
X147955000Y-116840000D03*
X153035000Y-106680000D03*
X146050000Y-139065000D03*
X144780000Y-133350000D03*
X136525000Y-130810000D03*
X136525000Y-106680000D03*
X144780000Y-113665000D03*
X147955000Y-102870000D03*
D22*
X163195000Y-119380000D02*
X160972500Y-121602500D01*
X170180000Y-143510000D02*
X170180000Y-142875000D01*
X170180000Y-142875000D02*
X172085000Y-140970000D01*
X181610000Y-139065000D02*
X181610000Y-125730000D01*
X179705000Y-140970000D02*
X181610000Y-139065000D01*
X172085000Y-140970000D02*
X179705000Y-140970000D01*
X160972500Y-121602500D02*
X172402500Y-121602500D01*
X176530000Y-125730000D02*
X181610000Y-125730000D01*
X172402500Y-121602500D02*
X176530000Y-125730000D01*
X170180000Y-99060000D02*
X170180000Y-104140000D01*
X181610000Y-118110000D02*
X181610000Y-125730000D01*
X181610000Y-107315000D02*
X181610000Y-118110000D01*
X180340000Y-106045000D02*
X181610000Y-107315000D01*
X172085000Y-106045000D02*
X180340000Y-106045000D01*
X170180000Y-104140000D02*
X172085000Y-106045000D01*
X170180000Y-143510000D02*
X170180000Y-142875000D01*
X163195000Y-139065000D02*
X163195000Y-140335000D01*
X166370000Y-143510000D02*
X170180000Y-143510000D01*
X163195000Y-140335000D02*
X166370000Y-143510000D01*
X158115000Y-138430000D02*
X158115000Y-139700000D01*
X161290000Y-140970000D02*
X163195000Y-139065000D01*
X159385000Y-140970000D02*
X161290000Y-140970000D01*
X158115000Y-139700000D02*
X159385000Y-140970000D01*
X160972500Y-121602500D02*
X160655000Y-121920000D01*
X160655000Y-121920000D02*
X161290000Y-121920000D01*
D23*
X163195000Y-118745000D02*
X163195000Y-120015000D01*
D22*
X158115000Y-120015000D02*
X160020000Y-121920000D01*
X160020000Y-121920000D02*
X161290000Y-121920000D01*
X158115000Y-118745000D02*
X158115000Y-120015000D01*
D23*
X175895000Y-131445000D02*
X175895000Y-128270000D01*
X174625000Y-132715000D02*
X175895000Y-131445000D01*
X174625000Y-138430000D02*
X174625000Y-132715000D01*
X175260000Y-103505000D02*
X175260000Y-99060000D01*
X175895000Y-104140000D02*
X175260000Y-103505000D01*
X175895000Y-108585000D02*
X175895000Y-109220000D01*
X175895000Y-128270000D02*
X171450000Y-123825000D01*
X173355000Y-131445000D02*
X173355000Y-128270000D01*
X172085000Y-132715000D02*
X173355000Y-131445000D01*
X172085000Y-136525000D02*
X172085000Y-132715000D01*
X171450000Y-137160000D02*
X172085000Y-136525000D01*
X170180000Y-137160000D02*
X171450000Y-137160000D01*
X168275000Y-139065000D02*
X170180000Y-137160000D01*
X172720000Y-103505000D02*
X172720000Y-99060000D01*
X173355000Y-104140000D02*
X172720000Y-103505000D01*
X173355000Y-128905000D02*
X173355000Y-128270000D01*
X173355000Y-128270000D02*
X173355000Y-127635000D01*
X173355000Y-127635000D02*
X169545000Y-123825000D01*
X177800000Y-99060000D02*
X177800000Y-97790000D01*
X167640000Y-101600000D02*
X160655000Y-108585000D01*
X167640000Y-99060000D02*
X167640000Y-101600000D01*
X169545000Y-97155000D02*
X167640000Y-99060000D01*
X177165000Y-97155000D02*
X169545000Y-97155000D01*
X177800000Y-97790000D02*
X177165000Y-97155000D01*
X160655000Y-108585000D02*
X160655000Y-107950000D01*
D24*
X165735000Y-135890000D02*
X165735000Y-135255000D01*
X165735000Y-135255000D02*
X163830000Y-133350000D01*
X163830000Y-133350000D02*
X154940000Y-133350000D01*
X154940000Y-133350000D02*
X153670000Y-134620000D01*
X153670000Y-134620000D02*
X153670000Y-144145000D01*
X153670000Y-144145000D02*
X152400000Y-145415000D01*
X152400000Y-145415000D02*
X142875000Y-145415000D01*
X142875000Y-145415000D02*
X141605000Y-144145000D01*
X141605000Y-124460000D02*
X143510000Y-124460000D01*
X165735000Y-131445000D02*
X168275000Y-128905000D01*
X151130000Y-130810000D02*
X151765000Y-131445000D01*
X146685000Y-130810000D02*
X151130000Y-130810000D01*
X144780000Y-128905000D02*
X146685000Y-130810000D01*
X144780000Y-125730000D02*
X144780000Y-128905000D01*
X143510000Y-124460000D02*
X144780000Y-125730000D01*
X168275000Y-128905000D02*
X168275000Y-128270000D01*
X165735000Y-128270000D02*
X163195000Y-130810000D01*
X149860000Y-127635000D02*
X146685000Y-124460000D01*
X153035000Y-130810000D02*
X149860000Y-127635000D01*
X163195000Y-130810000D02*
X153035000Y-130810000D01*
X146685000Y-124460000D02*
X147320000Y-124460000D01*
X149225000Y-135255000D02*
X152400000Y-132080000D01*
X167640000Y-132715000D02*
X170815000Y-135890000D01*
X165735000Y-132715000D02*
X167640000Y-132715000D01*
X165100000Y-132080000D02*
X165735000Y-132715000D01*
X152400000Y-132080000D02*
X165100000Y-132080000D01*
X163195000Y-128270000D02*
X163195000Y-128905000D01*
X163195000Y-128905000D02*
X162560000Y-129540000D01*
X153670000Y-126365000D02*
X151765000Y-124460000D01*
X153670000Y-128905000D02*
X153670000Y-126365000D01*
X154305000Y-129540000D02*
X153670000Y-128905000D01*
X162560000Y-129540000D02*
X154305000Y-129540000D01*
D23*
X170815000Y-139065000D02*
X172720000Y-139065000D01*
X173355000Y-138430000D02*
X173355000Y-135890000D01*
X172720000Y-139065000D02*
X173355000Y-138430000D01*
X170815000Y-139065000D02*
X170815000Y-138430000D01*
X160655000Y-128270000D02*
X165100000Y-123825000D01*
D24*
X163830000Y-104140000D02*
X163195000Y-103505000D01*
X163195000Y-103505000D02*
X149225000Y-103505000D01*
X151765000Y-115570000D02*
X154305000Y-113030000D01*
X165735000Y-114935000D02*
X165735000Y-116205000D01*
X163830000Y-113030000D02*
X165735000Y-114935000D01*
X154305000Y-113030000D02*
X163830000Y-113030000D01*
X162560000Y-105410000D02*
X161925000Y-104775000D01*
X161925000Y-104775000D02*
X147955000Y-104775000D01*
X147955000Y-104775000D02*
X141605000Y-98425000D01*
X141605000Y-118110000D02*
X142875000Y-118110000D01*
X151765000Y-113665000D02*
X151765000Y-113030000D01*
X149860000Y-115570000D02*
X151765000Y-113665000D01*
X144145000Y-116840000D02*
X147955000Y-116840000D01*
X142875000Y-118110000D02*
X144145000Y-116840000D01*
X149225000Y-109220000D02*
X150495000Y-109220000D01*
X166370000Y-111760000D02*
X170815000Y-116205000D01*
X153035000Y-111760000D02*
X166370000Y-111760000D01*
X150495000Y-109220000D02*
X153035000Y-111760000D01*
X161290000Y-110490000D02*
X163195000Y-108585000D01*
X154305000Y-110490000D02*
X161290000Y-110490000D01*
X153035000Y-109220000D02*
X154305000Y-110490000D01*
X153035000Y-106680000D02*
X153035000Y-109220000D01*
D23*
X173355000Y-116205000D02*
X173355000Y-116840000D01*
X173355000Y-116840000D02*
X170815000Y-119380000D01*
D24*
X149225000Y-132080000D02*
X146050000Y-132080000D01*
X140335000Y-142875000D02*
X140335000Y-138430000D01*
X142240000Y-142875000D02*
X140335000Y-142875000D01*
X146050000Y-139065000D02*
X142240000Y-142875000D01*
X146050000Y-132080000D02*
X144780000Y-133350000D01*
X141605000Y-141605000D02*
X142240000Y-141605000D01*
X142240000Y-141605000D02*
X144780000Y-139065000D01*
X144780000Y-139065000D02*
X144780000Y-137795000D01*
X144780000Y-137795000D02*
X142875000Y-135890000D01*
X139065000Y-133350000D02*
X140335000Y-133350000D01*
X136525000Y-130810000D02*
X139065000Y-133350000D01*
X142875000Y-133350000D02*
X147320000Y-137795000D01*
X147320000Y-140335000D02*
X151130000Y-144145000D01*
X147320000Y-137795000D02*
X147320000Y-140335000D01*
X151130000Y-144145000D02*
X150495000Y-144145000D01*
X149225000Y-106045000D02*
X147320000Y-106045000D01*
X137795000Y-109855000D02*
X140335000Y-112395000D01*
X137795000Y-103505000D02*
X137795000Y-109855000D01*
X138430000Y-102870000D02*
X137795000Y-103505000D01*
X144145000Y-102870000D02*
X138430000Y-102870000D01*
X147320000Y-106045000D02*
X144145000Y-102870000D01*
X141605000Y-100965000D02*
X138430000Y-100965000D01*
X136525000Y-102870000D02*
X136525000Y-106680000D01*
X138430000Y-100965000D02*
X136525000Y-102870000D01*
X151765000Y-118110000D02*
X151130000Y-118110000D01*
X151130000Y-118110000D02*
X142875000Y-109855000D01*
X141605000Y-115570000D02*
X142875000Y-115570000D01*
X142875000Y-115570000D02*
X144780000Y-113665000D01*
X149860000Y-100965000D02*
X151765000Y-100965000D01*
X147955000Y-102870000D02*
X149860000Y-100965000D01*
D25*
G36*
X140661012Y-97454858D02*
X140371621Y-97887964D01*
X140270000Y-98398846D01*
X140270000Y-98451154D01*
X140371621Y-98962036D01*
X140661012Y-99395142D01*
X141094118Y-99684533D01*
X141171045Y-99699835D01*
X140849771Y-99832582D01*
X140601921Y-100080000D01*
X138430005Y-100080000D01*
X138430000Y-100079999D01*
X138147516Y-100136190D01*
X138091325Y-100147367D01*
X137804210Y-100339210D01*
X137804208Y-100339213D01*
X135899210Y-102244210D01*
X135707367Y-102531325D01*
X135707367Y-102531326D01*
X135639999Y-102870000D01*
X135640000Y-102870005D01*
X135640000Y-106373178D01*
X135590162Y-106493201D01*
X135589838Y-106865167D01*
X135731883Y-107208943D01*
X135994673Y-107472192D01*
X136338201Y-107614838D01*
X136710167Y-107615162D01*
X136910000Y-107532593D01*
X136910000Y-109854995D01*
X136909999Y-109855000D01*
X136959728Y-110105000D01*
X136977367Y-110193675D01*
X137131778Y-110424769D01*
X137169210Y-110480790D01*
X138823960Y-112135539D01*
X138823960Y-113258600D01*
X138868238Y-113493917D01*
X139007310Y-113710041D01*
X139219510Y-113855031D01*
X139471400Y-113906040D01*
X141198600Y-113906040D01*
X141433917Y-113861762D01*
X141650041Y-113722690D01*
X141795031Y-113510490D01*
X141803864Y-113466869D01*
X141815330Y-113484029D01*
X142301511Y-113808885D01*
X142875000Y-113922959D01*
X143368656Y-113824765D01*
X142558190Y-114635230D01*
X142362204Y-114438902D01*
X141871713Y-114235232D01*
X141340617Y-114234769D01*
X140849771Y-114437582D01*
X140473902Y-114812796D01*
X140270232Y-115303287D01*
X140269769Y-115834383D01*
X140472582Y-116325229D01*
X140847796Y-116701098D01*
X141170788Y-116835216D01*
X141094118Y-116850467D01*
X140661012Y-117139858D01*
X140371621Y-117572964D01*
X140270000Y-118083846D01*
X140270000Y-118136154D01*
X140371621Y-118647036D01*
X140661012Y-119080142D01*
X141094118Y-119369533D01*
X141605000Y-119471154D01*
X142115882Y-119369533D01*
X142548988Y-119080142D01*
X142605878Y-118995000D01*
X142874995Y-118995000D01*
X142875000Y-118995001D01*
X143157484Y-118938810D01*
X143213675Y-118927633D01*
X143500790Y-118735790D01*
X144511579Y-117725000D01*
X145399349Y-117725000D01*
X145350232Y-117843287D01*
X145349769Y-118374383D01*
X145552582Y-118865229D01*
X145927796Y-119241098D01*
X146418287Y-119444768D01*
X146949383Y-119445231D01*
X147440229Y-119242418D01*
X147816098Y-118867204D01*
X148019768Y-118376713D01*
X148020231Y-117845617D01*
X147991066Y-117775032D01*
X148140167Y-117775162D01*
X148483943Y-117633117D01*
X148747192Y-117370327D01*
X148862077Y-117093656D01*
X150504208Y-118735787D01*
X150504210Y-118735790D01*
X150607660Y-118804913D01*
X150632582Y-118865229D01*
X151007796Y-119241098D01*
X151498287Y-119444768D01*
X152029383Y-119445231D01*
X152520229Y-119242418D01*
X152896098Y-118867204D01*
X153036855Y-118528223D01*
X156668035Y-118528223D01*
X156695222Y-119098454D01*
X156861136Y-119499005D01*
X157107255Y-119573139D01*
X157935395Y-118745000D01*
X157107255Y-117916861D01*
X156861136Y-117990995D01*
X156668035Y-118528223D01*
X153036855Y-118528223D01*
X153099768Y-118376713D01*
X153100231Y-117845617D01*
X152897418Y-117354771D01*
X152522204Y-116978902D01*
X152199212Y-116844784D01*
X152275882Y-116829533D01*
X152708988Y-116540142D01*
X152998379Y-116107036D01*
X153100000Y-115596154D01*
X153100000Y-115543846D01*
X153090499Y-115496081D01*
X154671579Y-113915000D01*
X163463420Y-113915000D01*
X164716420Y-115167999D01*
X164465000Y-115544275D01*
X164209698Y-115162189D01*
X163744151Y-114851120D01*
X163195000Y-114741887D01*
X162645849Y-114851120D01*
X162180302Y-115162189D01*
X161925000Y-115544275D01*
X161669698Y-115162189D01*
X161204151Y-114851120D01*
X160655000Y-114741887D01*
X160105849Y-114851120D01*
X159640302Y-115162189D01*
X159370014Y-115566703D01*
X159267389Y-115349866D01*
X158852423Y-114973959D01*
X158464039Y-114813096D01*
X158242000Y-114935085D01*
X158242000Y-116078000D01*
X158262000Y-116078000D01*
X158262000Y-116332000D01*
X158242000Y-116332000D01*
X158242000Y-116352000D01*
X157988000Y-116352000D01*
X157988000Y-116332000D01*
X157968000Y-116332000D01*
X157968000Y-116078000D01*
X157988000Y-116078000D01*
X157988000Y-114935085D01*
X157765961Y-114813096D01*
X157377577Y-114973959D01*
X157004864Y-115311590D01*
X156978162Y-115169683D01*
X156839090Y-114953559D01*
X156626890Y-114808569D01*
X156375000Y-114757560D01*
X154775000Y-114757560D01*
X154539683Y-114801838D01*
X154323559Y-114940910D01*
X154178569Y-115153110D01*
X154127560Y-115405000D01*
X154127560Y-117005000D01*
X154171838Y-117240317D01*
X154310910Y-117456441D01*
X154523110Y-117601431D01*
X154775000Y-117652440D01*
X156375000Y-117652440D01*
X156610317Y-117608162D01*
X156826441Y-117469090D01*
X156971431Y-117256890D01*
X157003732Y-117097384D01*
X157377577Y-117436041D01*
X157435793Y-117460153D01*
X157360995Y-117491136D01*
X157286861Y-117737255D01*
X158115000Y-118565395D01*
X158943139Y-117737255D01*
X158869005Y-117491136D01*
X158788911Y-117462347D01*
X158852423Y-117436041D01*
X159267389Y-117060134D01*
X159370014Y-116843297D01*
X159640302Y-117247811D01*
X159961426Y-117462379D01*
X159803200Y-117527757D01*
X159399176Y-117931077D01*
X159371577Y-117997544D01*
X159368864Y-117990995D01*
X159122745Y-117916861D01*
X158294605Y-118745000D01*
X159122745Y-119573139D01*
X159368864Y-119499005D01*
X159371196Y-119492517D01*
X159397757Y-119556800D01*
X159801077Y-119960824D01*
X160328309Y-120179750D01*
X160899187Y-120180248D01*
X161426800Y-119962243D01*
X161830824Y-119558923D01*
X161852383Y-119507002D01*
X161925084Y-119507002D01*
X161803096Y-119729039D01*
X161963959Y-120117423D01*
X162339866Y-120532389D01*
X162845959Y-120771914D01*
X163068000Y-120650629D01*
X163068000Y-119507000D01*
X163322000Y-119507000D01*
X163322000Y-120650629D01*
X163544041Y-120771914D01*
X164050134Y-120532389D01*
X164426041Y-120117423D01*
X164586904Y-119729039D01*
X164464915Y-119507000D01*
X163322000Y-119507000D01*
X163068000Y-119507000D01*
X163048000Y-119507000D01*
X163048000Y-119253000D01*
X163068000Y-119253000D01*
X163068000Y-118109371D01*
X163322000Y-118109371D01*
X163322000Y-119253000D01*
X164464915Y-119253000D01*
X164586904Y-119030961D01*
X164426041Y-118642577D01*
X164050134Y-118227611D01*
X163544041Y-117988086D01*
X163322000Y-118109371D01*
X163068000Y-118109371D01*
X162845959Y-117988086D01*
X162339866Y-118227611D01*
X162050172Y-118547405D01*
X162050248Y-118460813D01*
X161832243Y-117933200D01*
X161428923Y-117529176D01*
X161317715Y-117482999D01*
X161669698Y-117247811D01*
X161925000Y-116865725D01*
X162180302Y-117247811D01*
X162645849Y-117558880D01*
X163195000Y-117668113D01*
X163744151Y-117558880D01*
X164209698Y-117247811D01*
X164465000Y-116865725D01*
X164720302Y-117247811D01*
X165185849Y-117558880D01*
X165735000Y-117668113D01*
X166284151Y-117558880D01*
X166749698Y-117247811D01*
X167005000Y-116865725D01*
X167260302Y-117247811D01*
X167725849Y-117558880D01*
X168275000Y-117668113D01*
X168824151Y-117558880D01*
X169289698Y-117247811D01*
X169545000Y-116865725D01*
X169800302Y-117247811D01*
X170265849Y-117558880D01*
X170815000Y-117668113D01*
X171364151Y-117558880D01*
X171829698Y-117247811D01*
X172085000Y-116865725D01*
X172152881Y-116967317D01*
X171153454Y-117966744D01*
X171101691Y-117945250D01*
X170530813Y-117944752D01*
X170003200Y-118162757D01*
X169599176Y-118566077D01*
X169380250Y-119093309D01*
X169379752Y-119664187D01*
X169597757Y-120191800D01*
X170001077Y-120595824D01*
X170528309Y-120814750D01*
X171099187Y-120815248D01*
X171626800Y-120597243D01*
X172030824Y-120193923D01*
X172249750Y-119666691D01*
X172250248Y-119095813D01*
X172227951Y-119041851D01*
X173662943Y-117606859D01*
X173904151Y-117558880D01*
X174369698Y-117247811D01*
X174625000Y-116865725D01*
X174880302Y-117247811D01*
X175345849Y-117558880D01*
X175895000Y-117668113D01*
X176444151Y-117558880D01*
X176909698Y-117247811D01*
X177165000Y-116865725D01*
X177420302Y-117247811D01*
X177885849Y-117558880D01*
X178435000Y-117668113D01*
X178984151Y-117558880D01*
X179449698Y-117247811D01*
X179760767Y-116782264D01*
X179870000Y-116233113D01*
X179870000Y-116176887D01*
X179760767Y-115627736D01*
X179449698Y-115162189D01*
X178984151Y-114851120D01*
X178435000Y-114741887D01*
X177885849Y-114851120D01*
X177420302Y-115162189D01*
X177165000Y-115544275D01*
X176909698Y-115162189D01*
X176444151Y-114851120D01*
X175895000Y-114741887D01*
X175345849Y-114851120D01*
X174880302Y-115162189D01*
X174625000Y-115544275D01*
X174369698Y-115162189D01*
X173904151Y-114851120D01*
X173355000Y-114741887D01*
X172805849Y-114851120D01*
X172340302Y-115162189D01*
X172085000Y-115544275D01*
X171829698Y-115162189D01*
X171364151Y-114851120D01*
X170815000Y-114741887D01*
X170638562Y-114776983D01*
X166995790Y-111134210D01*
X166895666Y-111067310D01*
X166708675Y-110942367D01*
X166637644Y-110928238D01*
X166370000Y-110874999D01*
X166369995Y-110875000D01*
X162156580Y-110875000D01*
X163018562Y-110013017D01*
X163195000Y-110048113D01*
X163744151Y-109938880D01*
X164209698Y-109627811D01*
X164465000Y-109245725D01*
X164720302Y-109627811D01*
X165185849Y-109938880D01*
X165735000Y-110048113D01*
X166284151Y-109938880D01*
X166749698Y-109627811D01*
X167005000Y-109245725D01*
X167260302Y-109627811D01*
X167725849Y-109938880D01*
X168275000Y-110048113D01*
X168824151Y-109938880D01*
X169289698Y-109627811D01*
X169545000Y-109245725D01*
X169800302Y-109627811D01*
X170265849Y-109938880D01*
X170815000Y-110048113D01*
X171364151Y-109938880D01*
X171829698Y-109627811D01*
X172085000Y-109245725D01*
X172340302Y-109627811D01*
X172805849Y-109938880D01*
X173355000Y-110048113D01*
X173904151Y-109938880D01*
X174369698Y-109627811D01*
X174625000Y-109245725D01*
X174880302Y-109627811D01*
X175345849Y-109938880D01*
X175895000Y-110048113D01*
X176444151Y-109938880D01*
X176909698Y-109627811D01*
X177165000Y-109245725D01*
X177420302Y-109627811D01*
X177885849Y-109938880D01*
X178435000Y-110048113D01*
X178984151Y-109938880D01*
X179449698Y-109627811D01*
X179760767Y-109162264D01*
X179870000Y-108613113D01*
X179870000Y-108556887D01*
X179760767Y-108007736D01*
X179449698Y-107542189D01*
X178984151Y-107231120D01*
X178435000Y-107121887D01*
X177885849Y-107231120D01*
X177420302Y-107542189D01*
X177165000Y-107924275D01*
X176909698Y-107542189D01*
X176444151Y-107231120D01*
X175895000Y-107121887D01*
X175345849Y-107231120D01*
X174880302Y-107542189D01*
X174625000Y-107924275D01*
X174369698Y-107542189D01*
X173904151Y-107231120D01*
X173355000Y-107121887D01*
X172805849Y-107231120D01*
X172340302Y-107542189D01*
X172085000Y-107924275D01*
X171829698Y-107542189D01*
X171364151Y-107231120D01*
X170815000Y-107121887D01*
X170265849Y-107231120D01*
X169800302Y-107542189D01*
X169545000Y-107924275D01*
X169289698Y-107542189D01*
X168824151Y-107231120D01*
X168275000Y-107121887D01*
X167725849Y-107231120D01*
X167260302Y-107542189D01*
X167005000Y-107924275D01*
X166749698Y-107542189D01*
X166284151Y-107231120D01*
X165735000Y-107121887D01*
X165185849Y-107231120D01*
X164720302Y-107542189D01*
X164465000Y-107924275D01*
X164209698Y-107542189D01*
X163744151Y-107231120D01*
X163195000Y-107121887D01*
X163192397Y-107122405D01*
X168177401Y-102137401D01*
X168342148Y-101890839D01*
X168400000Y-101600000D01*
X168400000Y-99374802D01*
X168695000Y-99079802D01*
X168695000Y-99187002D01*
X168853748Y-99187002D01*
X168695000Y-99345750D01*
X168695000Y-100036309D01*
X168791673Y-100269698D01*
X168970301Y-100448327D01*
X169203690Y-100545000D01*
X169894250Y-100545000D01*
X170053000Y-100386250D01*
X170053000Y-99187000D01*
X170033000Y-99187000D01*
X170033000Y-98933000D01*
X170053000Y-98933000D01*
X170053000Y-98913000D01*
X170307000Y-98913000D01*
X170307000Y-98933000D01*
X170327000Y-98933000D01*
X170327000Y-99187000D01*
X170307000Y-99187000D01*
X170307000Y-100386250D01*
X170465750Y-100545000D01*
X171156310Y-100545000D01*
X171389699Y-100448327D01*
X171568327Y-100269698D01*
X171640597Y-100095223D01*
X171669946Y-100139147D01*
X171960000Y-100332954D01*
X171960000Y-103505000D01*
X172017852Y-103795839D01*
X172182599Y-104042401D01*
X172419878Y-104279680D01*
X172419838Y-104325167D01*
X172561883Y-104668943D01*
X172824673Y-104932192D01*
X173168201Y-105074838D01*
X173540167Y-105075162D01*
X173883943Y-104933117D01*
X174147192Y-104670327D01*
X174289838Y-104326799D01*
X174290162Y-103954833D01*
X174148117Y-103611057D01*
X173885327Y-103347808D01*
X173541799Y-103205162D01*
X173494923Y-103205121D01*
X173480000Y-103190198D01*
X173480000Y-100332954D01*
X173770054Y-100139147D01*
X173990000Y-99809974D01*
X174209946Y-100139147D01*
X174500000Y-100332954D01*
X174500000Y-103505000D01*
X174557852Y-103795839D01*
X174722599Y-104042401D01*
X174959878Y-104279680D01*
X174959838Y-104325167D01*
X175101883Y-104668943D01*
X175364673Y-104932192D01*
X175708201Y-105074838D01*
X176080167Y-105075162D01*
X176423943Y-104933117D01*
X176687192Y-104670327D01*
X176829838Y-104326799D01*
X176830162Y-103954833D01*
X176688117Y-103611057D01*
X176425327Y-103347808D01*
X176081799Y-103205162D01*
X176034923Y-103205121D01*
X176020000Y-103190198D01*
X176020000Y-100332954D01*
X176310054Y-100139147D01*
X176530000Y-99809974D01*
X176749946Y-100139147D01*
X177231715Y-100461054D01*
X177800000Y-100574093D01*
X178368285Y-100461054D01*
X178850054Y-100139147D01*
X179070000Y-99809974D01*
X179289946Y-100139147D01*
X179771715Y-100461054D01*
X180340000Y-100574093D01*
X180908285Y-100461054D01*
X181390054Y-100139147D01*
X181711961Y-99657378D01*
X181825000Y-99089093D01*
X181825000Y-99030907D01*
X181711961Y-98462622D01*
X181390054Y-97980853D01*
X180908285Y-97658946D01*
X180340000Y-97545907D01*
X179771715Y-97658946D01*
X179289946Y-97980853D01*
X179070000Y-98310026D01*
X178850054Y-97980853D01*
X178559322Y-97786593D01*
X178502148Y-97499161D01*
X178337401Y-97252599D01*
X178314802Y-97230000D01*
X181540070Y-97230000D01*
X181818979Y-97285478D01*
X181996145Y-97403856D01*
X182114521Y-97581019D01*
X182170000Y-97859931D01*
X182170000Y-144710069D01*
X182114521Y-144988981D01*
X181996145Y-145166144D01*
X181818979Y-145284522D01*
X181540070Y-145340000D01*
X153726579Y-145340000D01*
X154295787Y-144770792D01*
X154295790Y-144770790D01*
X154487633Y-144483675D01*
X154507152Y-144385546D01*
X154555001Y-144145000D01*
X154555000Y-144144995D01*
X154555000Y-143795750D01*
X168695000Y-143795750D01*
X168695000Y-144486309D01*
X168791673Y-144719698D01*
X168970301Y-144898327D01*
X169203690Y-144995000D01*
X169894250Y-144995000D01*
X170053000Y-144836250D01*
X170053000Y-143637000D01*
X168853750Y-143637000D01*
X168695000Y-143795750D01*
X154555000Y-143795750D01*
X154555000Y-142533691D01*
X168695000Y-142533691D01*
X168695000Y-143224250D01*
X168853750Y-143383000D01*
X170053000Y-143383000D01*
X170053000Y-142183750D01*
X170307000Y-142183750D01*
X170307000Y-143383000D01*
X170327000Y-143383000D01*
X170327000Y-143637000D01*
X170307000Y-143637000D01*
X170307000Y-144836250D01*
X170465750Y-144995000D01*
X171156310Y-144995000D01*
X171389699Y-144898327D01*
X171568327Y-144719698D01*
X171640597Y-144545223D01*
X171669946Y-144589147D01*
X172151715Y-144911054D01*
X172720000Y-145024093D01*
X173288285Y-144911054D01*
X173770054Y-144589147D01*
X173990000Y-144259974D01*
X174209946Y-144589147D01*
X174691715Y-144911054D01*
X175260000Y-145024093D01*
X175828285Y-144911054D01*
X176310054Y-144589147D01*
X176530000Y-144259974D01*
X176749946Y-144589147D01*
X177231715Y-144911054D01*
X177800000Y-145024093D01*
X178368285Y-144911054D01*
X178850054Y-144589147D01*
X179070000Y-144259974D01*
X179289946Y-144589147D01*
X179771715Y-144911054D01*
X180340000Y-145024093D01*
X180908285Y-144911054D01*
X181390054Y-144589147D01*
X181711961Y-144107378D01*
X181825000Y-143539093D01*
X181825000Y-143480907D01*
X181711961Y-142912622D01*
X181390054Y-142430853D01*
X180908285Y-142108946D01*
X180340000Y-141995907D01*
X179771715Y-142108946D01*
X179289946Y-142430853D01*
X179070000Y-142760026D01*
X178850054Y-142430853D01*
X178368285Y-142108946D01*
X177800000Y-141995907D01*
X177231715Y-142108946D01*
X176749946Y-142430853D01*
X176530000Y-142760026D01*
X176310054Y-142430853D01*
X175828285Y-142108946D01*
X175260000Y-141995907D01*
X174691715Y-142108946D01*
X174209946Y-142430853D01*
X173990000Y-142760026D01*
X173770054Y-142430853D01*
X173288285Y-142108946D01*
X172720000Y-141995907D01*
X172151715Y-142108946D01*
X171669946Y-142430853D01*
X171640597Y-142474777D01*
X171568327Y-142300302D01*
X171389699Y-142121673D01*
X171156310Y-142025000D01*
X170465750Y-142025000D01*
X170307000Y-142183750D01*
X170053000Y-142183750D01*
X169894250Y-142025000D01*
X169203690Y-142025000D01*
X168970301Y-142121673D01*
X168791673Y-142300302D01*
X168695000Y-142533691D01*
X154555000Y-142533691D01*
X154555000Y-139437745D01*
X157286861Y-139437745D01*
X157360995Y-139683864D01*
X157898223Y-139876965D01*
X158468454Y-139849778D01*
X158869005Y-139683864D01*
X158943139Y-139437745D01*
X158115000Y-138609605D01*
X157286861Y-139437745D01*
X154555000Y-139437745D01*
X154555000Y-138213223D01*
X156668035Y-138213223D01*
X156695222Y-138783454D01*
X156861136Y-139184005D01*
X157107255Y-139258139D01*
X157935395Y-138430000D01*
X157107255Y-137601861D01*
X156861136Y-137675995D01*
X156668035Y-138213223D01*
X154555000Y-138213223D01*
X154555000Y-137292889D01*
X154775000Y-137337440D01*
X156375000Y-137337440D01*
X156610317Y-137293162D01*
X156826441Y-137154090D01*
X156971431Y-136941890D01*
X157003732Y-136782384D01*
X157377577Y-137121041D01*
X157435793Y-137145153D01*
X157360995Y-137176136D01*
X157286861Y-137422255D01*
X158115000Y-138250395D01*
X158943139Y-137422255D01*
X158869005Y-137176136D01*
X158788911Y-137147347D01*
X158852423Y-137121041D01*
X159267389Y-136745134D01*
X159370014Y-136528297D01*
X159640302Y-136932811D01*
X159961426Y-137147379D01*
X159803200Y-137212757D01*
X159399176Y-137616077D01*
X159371577Y-137682544D01*
X159368864Y-137675995D01*
X159122745Y-137601861D01*
X158294605Y-138430000D01*
X159122745Y-139258139D01*
X159368864Y-139184005D01*
X159371196Y-139177517D01*
X159397757Y-139241800D01*
X159801077Y-139645824D01*
X160328309Y-139864750D01*
X160899187Y-139865248D01*
X161426800Y-139647243D01*
X161830824Y-139243923D01*
X161852383Y-139192002D01*
X161925084Y-139192002D01*
X161803096Y-139414039D01*
X161963959Y-139802423D01*
X162339866Y-140217389D01*
X162845959Y-140456914D01*
X163068000Y-140335629D01*
X163068000Y-139192000D01*
X163322000Y-139192000D01*
X163322000Y-140335629D01*
X163544041Y-140456914D01*
X164050134Y-140217389D01*
X164426041Y-139802423D01*
X164586904Y-139414039D01*
X164464915Y-139192000D01*
X163322000Y-139192000D01*
X163068000Y-139192000D01*
X163048000Y-139192000D01*
X163048000Y-138938000D01*
X163068000Y-138938000D01*
X163068000Y-137794371D01*
X163322000Y-137794371D01*
X163322000Y-138938000D01*
X164464915Y-138938000D01*
X164586904Y-138715961D01*
X164426041Y-138327577D01*
X164050134Y-137912611D01*
X163544041Y-137673086D01*
X163322000Y-137794371D01*
X163068000Y-137794371D01*
X162845959Y-137673086D01*
X162339866Y-137912611D01*
X162050172Y-138232405D01*
X162050248Y-138145813D01*
X161832243Y-137618200D01*
X161428923Y-137214176D01*
X161317715Y-137167999D01*
X161669698Y-136932811D01*
X161925000Y-136550725D01*
X162180302Y-136932811D01*
X162645849Y-137243880D01*
X163195000Y-137353113D01*
X163744151Y-137243880D01*
X164209698Y-136932811D01*
X164465000Y-136550725D01*
X164720302Y-136932811D01*
X165185849Y-137243880D01*
X165735000Y-137353113D01*
X166284151Y-137243880D01*
X166749698Y-136932811D01*
X167005000Y-136550725D01*
X167260302Y-136932811D01*
X167725849Y-137243880D01*
X168275000Y-137353113D01*
X168824151Y-137243880D01*
X169289698Y-136932811D01*
X169545000Y-136550725D01*
X169612881Y-136652317D01*
X168135320Y-138129878D01*
X168089833Y-138129838D01*
X167746057Y-138271883D01*
X167482808Y-138534673D01*
X167340162Y-138878201D01*
X167339838Y-139250167D01*
X167481883Y-139593943D01*
X167744673Y-139857192D01*
X168088201Y-139999838D01*
X168460167Y-140000162D01*
X168803943Y-139858117D01*
X169067192Y-139595327D01*
X169209838Y-139251799D01*
X169209879Y-139204923D01*
X169380026Y-139034776D01*
X169379752Y-139349187D01*
X169597757Y-139876800D01*
X170001077Y-140280824D01*
X170528309Y-140499750D01*
X171099187Y-140500248D01*
X171626800Y-140282243D01*
X172030824Y-139878923D01*
X172053215Y-139825000D01*
X172720000Y-139825000D01*
X173010839Y-139767148D01*
X173257401Y-139602401D01*
X173866341Y-138993461D01*
X174094673Y-139222192D01*
X174438201Y-139364838D01*
X174810167Y-139365162D01*
X175153943Y-139223117D01*
X175417192Y-138960327D01*
X175559838Y-138616799D01*
X175560162Y-138244833D01*
X175418117Y-137901057D01*
X175385000Y-137867882D01*
X175385000Y-137251668D01*
X175895000Y-137353113D01*
X176444151Y-137243880D01*
X176909698Y-136932811D01*
X177165000Y-136550725D01*
X177420302Y-136932811D01*
X177885849Y-137243880D01*
X178435000Y-137353113D01*
X178984151Y-137243880D01*
X179449698Y-136932811D01*
X179760767Y-136467264D01*
X179870000Y-135918113D01*
X179870000Y-135861887D01*
X179760767Y-135312736D01*
X179449698Y-134847189D01*
X178984151Y-134536120D01*
X178435000Y-134426887D01*
X177885849Y-134536120D01*
X177420302Y-134847189D01*
X177165000Y-135229275D01*
X176909698Y-134847189D01*
X176444151Y-134536120D01*
X175895000Y-134426887D01*
X175385000Y-134528332D01*
X175385000Y-133029802D01*
X176432401Y-131982401D01*
X176597148Y-131735840D01*
X176655000Y-131445000D01*
X176655000Y-129482995D01*
X176909698Y-129312811D01*
X177165000Y-128930725D01*
X177420302Y-129312811D01*
X177885849Y-129623880D01*
X178435000Y-129733113D01*
X178984151Y-129623880D01*
X179449698Y-129312811D01*
X179760767Y-128847264D01*
X179870000Y-128298113D01*
X179870000Y-128241887D01*
X179760767Y-127692736D01*
X179449698Y-127227189D01*
X178984151Y-126916120D01*
X178435000Y-126806887D01*
X177885849Y-126916120D01*
X177420302Y-127227189D01*
X177165000Y-127609275D01*
X176909698Y-127227189D01*
X176444151Y-126916120D01*
X175895000Y-126806887D01*
X175571114Y-126871312D01*
X172385122Y-123685320D01*
X172385162Y-123639833D01*
X172243117Y-123296057D01*
X171980327Y-123032808D01*
X171636799Y-122890162D01*
X171264833Y-122889838D01*
X170921057Y-123031883D01*
X170657808Y-123294673D01*
X170515162Y-123638201D01*
X170515090Y-123720288D01*
X170480122Y-123685320D01*
X170480162Y-123639833D01*
X170338117Y-123296057D01*
X170075327Y-123032808D01*
X169731799Y-122890162D01*
X169359833Y-122889838D01*
X169016057Y-123031883D01*
X168752808Y-123294673D01*
X168610162Y-123638201D01*
X168609838Y-124010167D01*
X168751883Y-124353943D01*
X169014673Y-124617192D01*
X169358201Y-124759838D01*
X169405077Y-124759879D01*
X172152881Y-127507683D01*
X172085000Y-127609275D01*
X171829698Y-127227189D01*
X171364151Y-126916120D01*
X170815000Y-126806887D01*
X170265849Y-126916120D01*
X169800302Y-127227189D01*
X169545000Y-127609275D01*
X169289698Y-127227189D01*
X168824151Y-126916120D01*
X168275000Y-126806887D01*
X167725849Y-126916120D01*
X167260302Y-127227189D01*
X167005000Y-127609275D01*
X166749698Y-127227189D01*
X166284151Y-126916120D01*
X165735000Y-126806887D01*
X165185849Y-126916120D01*
X164720302Y-127227189D01*
X164465000Y-127609275D01*
X164209698Y-127227189D01*
X163744151Y-126916120D01*
X163195000Y-126806887D01*
X163192397Y-126807405D01*
X165239680Y-124760122D01*
X165285167Y-124760162D01*
X165628943Y-124618117D01*
X165892192Y-124355327D01*
X166034838Y-124011799D01*
X166035162Y-123639833D01*
X165893117Y-123296057D01*
X165630327Y-123032808D01*
X165286799Y-122890162D01*
X164914833Y-122889838D01*
X164571057Y-123031883D01*
X164307808Y-123294673D01*
X164165162Y-123638201D01*
X164165121Y-123685077D01*
X160978886Y-126871312D01*
X160655000Y-126806887D01*
X160105849Y-126916120D01*
X159640302Y-127227189D01*
X159385000Y-127609275D01*
X159129698Y-127227189D01*
X158664151Y-126916120D01*
X158115000Y-126806887D01*
X157565849Y-126916120D01*
X157100302Y-127227189D01*
X156845000Y-127609275D01*
X156589698Y-127227189D01*
X156124151Y-126916120D01*
X155575000Y-126806887D01*
X155025849Y-126916120D01*
X154560302Y-127227189D01*
X154555000Y-127235124D01*
X154555000Y-126365005D01*
X154555001Y-126365000D01*
X154487633Y-126026326D01*
X154487633Y-126026325D01*
X154295790Y-125739210D01*
X154295787Y-125739208D01*
X153090499Y-124533919D01*
X153100000Y-124486154D01*
X153100000Y-124433846D01*
X152998379Y-123922964D01*
X152708988Y-123489858D01*
X152275882Y-123200467D01*
X151765000Y-123098846D01*
X151254118Y-123200467D01*
X150821012Y-123489858D01*
X150531621Y-123922964D01*
X150430000Y-124433846D01*
X150430000Y-124486154D01*
X150531621Y-124997036D01*
X150821012Y-125430142D01*
X151254118Y-125719533D01*
X151331045Y-125734835D01*
X151009771Y-125867582D01*
X150633902Y-126242796D01*
X150430232Y-126733287D01*
X150430040Y-126953461D01*
X148160466Y-124683886D01*
X148205000Y-124460000D01*
X148137633Y-124121325D01*
X147945790Y-123834210D01*
X147789136Y-123729538D01*
X147628988Y-123489858D01*
X147195882Y-123200467D01*
X146685000Y-123098846D01*
X146174118Y-123200467D01*
X145741012Y-123489858D01*
X145451621Y-123922964D01*
X145350000Y-124433846D01*
X145350000Y-124486154D01*
X145451621Y-124997036D01*
X145741012Y-125430142D01*
X146174118Y-125719533D01*
X146251045Y-125734835D01*
X145929771Y-125867582D01*
X145665000Y-126131892D01*
X145665000Y-125730005D01*
X145665001Y-125730000D01*
X145597633Y-125391325D01*
X145566680Y-125345000D01*
X145405790Y-125104210D01*
X145405787Y-125104208D01*
X144135790Y-123834210D01*
X144122006Y-123825000D01*
X143848675Y-123642367D01*
X143792484Y-123631190D01*
X143510000Y-123574999D01*
X143509995Y-123575000D01*
X142605878Y-123575000D01*
X142548988Y-123489858D01*
X142115882Y-123200467D01*
X141605000Y-123098846D01*
X141094118Y-123200467D01*
X140661012Y-123489858D01*
X140371621Y-123922964D01*
X140270000Y-124433846D01*
X140270000Y-124486154D01*
X140371621Y-124997036D01*
X140661012Y-125430142D01*
X141094118Y-125719533D01*
X141171045Y-125734835D01*
X140849771Y-125867582D01*
X140473902Y-126242796D01*
X140270232Y-126733287D01*
X140269769Y-127264383D01*
X140472582Y-127755229D01*
X140847796Y-128131098D01*
X141338287Y-128334768D01*
X141869383Y-128335231D01*
X142360229Y-128132418D01*
X142736098Y-127757204D01*
X142939768Y-127266713D01*
X142940231Y-126735617D01*
X142737418Y-126244771D01*
X142362204Y-125868902D01*
X142039212Y-125734784D01*
X142115882Y-125719533D01*
X142548988Y-125430142D01*
X142605878Y-125345000D01*
X143143420Y-125345000D01*
X143895000Y-126096579D01*
X143895000Y-128904995D01*
X143894999Y-128905000D01*
X143914486Y-129002964D01*
X143962367Y-129243675D01*
X144008562Y-129312811D01*
X144154210Y-129530790D01*
X145856842Y-131233421D01*
X145724064Y-131259833D01*
X145711325Y-131262367D01*
X145424210Y-131454210D01*
X145424208Y-131454213D01*
X144371164Y-132507256D01*
X144251057Y-132556883D01*
X144179873Y-132627943D01*
X143934670Y-132260971D01*
X143663828Y-132080000D01*
X143934670Y-131899029D01*
X144259526Y-131412848D01*
X144373600Y-130839359D01*
X144373600Y-130780641D01*
X144259526Y-130207152D01*
X143934670Y-129720971D01*
X143448489Y-129396115D01*
X142875000Y-129282041D01*
X142301511Y-129396115D01*
X141815330Y-129720971D01*
X141605000Y-130035752D01*
X141394670Y-129720971D01*
X140908489Y-129396115D01*
X140335000Y-129282041D01*
X139761511Y-129396115D01*
X139275330Y-129720971D01*
X138950474Y-130207152D01*
X138836400Y-130780641D01*
X138836400Y-130839359D01*
X138950474Y-131412848D01*
X139275330Y-131899029D01*
X139546172Y-132080000D01*
X139275330Y-132260971D01*
X139256192Y-132289613D01*
X137367744Y-130401164D01*
X137318117Y-130281057D01*
X137055327Y-130017808D01*
X136711799Y-129875162D01*
X136339833Y-129874838D01*
X135996057Y-130016883D01*
X135732808Y-130279673D01*
X135590162Y-130623201D01*
X135589838Y-130995167D01*
X135731883Y-131338943D01*
X135994673Y-131602192D01*
X136115986Y-131652566D01*
X138439208Y-133975787D01*
X138439210Y-133975790D01*
X138726325Y-134167633D01*
X139065000Y-134235000D01*
X139139002Y-134235000D01*
X139275330Y-134439029D01*
X139546172Y-134620000D01*
X139275330Y-134800971D01*
X138950474Y-135287152D01*
X138836400Y-135860641D01*
X138836400Y-135919359D01*
X138950474Y-136492848D01*
X139261574Y-136958442D01*
X139236083Y-136963238D01*
X139019959Y-137102310D01*
X138874969Y-137314510D01*
X138823960Y-137566400D01*
X138823960Y-139293600D01*
X138868238Y-139528917D01*
X139007310Y-139745041D01*
X139219510Y-139890031D01*
X139450000Y-139936706D01*
X139450000Y-142875000D01*
X139517367Y-143213675D01*
X139709210Y-143500790D01*
X139996325Y-143692633D01*
X140335000Y-143760000D01*
X140341379Y-143760000D01*
X140270000Y-144118846D01*
X140270000Y-144171154D01*
X140371621Y-144682036D01*
X140661012Y-145115142D01*
X140997537Y-145340000D01*
X134689931Y-145340000D01*
X134411019Y-145284521D01*
X134233856Y-145166145D01*
X134115478Y-144988979D01*
X134060000Y-144710070D01*
X134060000Y-121813172D01*
X136397538Y-121813172D01*
X136802709Y-122793761D01*
X137552293Y-123544655D01*
X138532173Y-123951536D01*
X139593172Y-123952462D01*
X140573761Y-123547291D01*
X141324655Y-122797707D01*
X141731536Y-121817827D01*
X141731540Y-121813172D01*
X174497538Y-121813172D01*
X174902709Y-122793761D01*
X175652293Y-123544655D01*
X176632173Y-123951536D01*
X177693172Y-123952462D01*
X178673761Y-123547291D01*
X179424655Y-122797707D01*
X179831536Y-121817827D01*
X179832462Y-120756828D01*
X179427291Y-119776239D01*
X178677707Y-119025345D01*
X177697827Y-118618464D01*
X176636828Y-118617538D01*
X175656239Y-119022709D01*
X174905345Y-119772293D01*
X174498464Y-120752173D01*
X174497538Y-121813172D01*
X141731540Y-121813172D01*
X141732462Y-120756828D01*
X141327291Y-119776239D01*
X141303838Y-119752745D01*
X157286861Y-119752745D01*
X157360995Y-119998864D01*
X157898223Y-120191965D01*
X158468454Y-120164778D01*
X158869005Y-119998864D01*
X158943139Y-119752745D01*
X158115000Y-118924605D01*
X157286861Y-119752745D01*
X141303838Y-119752745D01*
X140577707Y-119025345D01*
X139597827Y-118618464D01*
X138536828Y-118617538D01*
X137556239Y-119022709D01*
X136805345Y-119772293D01*
X136398464Y-120752173D01*
X136397538Y-121813172D01*
X134060000Y-121813172D01*
X134060000Y-97859930D01*
X134115478Y-97581021D01*
X134233856Y-97403855D01*
X134411019Y-97285479D01*
X134689931Y-97230000D01*
X140997537Y-97230000D01*
X140661012Y-97454858D01*
X140661012Y-97454858D01*
G37*
X140661012Y-97454858D02*
X140371621Y-97887964D01*
X140270000Y-98398846D01*
X140270000Y-98451154D01*
X140371621Y-98962036D01*
X140661012Y-99395142D01*
X141094118Y-99684533D01*
X141171045Y-99699835D01*
X140849771Y-99832582D01*
X140601921Y-100080000D01*
X138430005Y-100080000D01*
X138430000Y-100079999D01*
X138147516Y-100136190D01*
X138091325Y-100147367D01*
X137804210Y-100339210D01*
X137804208Y-100339213D01*
X135899210Y-102244210D01*
X135707367Y-102531325D01*
X135707367Y-102531326D01*
X135639999Y-102870000D01*
X135640000Y-102870005D01*
X135640000Y-106373178D01*
X135590162Y-106493201D01*
X135589838Y-106865167D01*
X135731883Y-107208943D01*
X135994673Y-107472192D01*
X136338201Y-107614838D01*
X136710167Y-107615162D01*
X136910000Y-107532593D01*
X136910000Y-109854995D01*
X136909999Y-109855000D01*
X136959728Y-110105000D01*
X136977367Y-110193675D01*
X137131778Y-110424769D01*
X137169210Y-110480790D01*
X138823960Y-112135539D01*
X138823960Y-113258600D01*
X138868238Y-113493917D01*
X139007310Y-113710041D01*
X139219510Y-113855031D01*
X139471400Y-113906040D01*
X141198600Y-113906040D01*
X141433917Y-113861762D01*
X141650041Y-113722690D01*
X141795031Y-113510490D01*
X141803864Y-113466869D01*
X141815330Y-113484029D01*
X142301511Y-113808885D01*
X142875000Y-113922959D01*
X143368656Y-113824765D01*
X142558190Y-114635230D01*
X142362204Y-114438902D01*
X141871713Y-114235232D01*
X141340617Y-114234769D01*
X140849771Y-114437582D01*
X140473902Y-114812796D01*
X140270232Y-115303287D01*
X140269769Y-115834383D01*
X140472582Y-116325229D01*
X140847796Y-116701098D01*
X141170788Y-116835216D01*
X141094118Y-116850467D01*
X140661012Y-117139858D01*
X140371621Y-117572964D01*
X140270000Y-118083846D01*
X140270000Y-118136154D01*
X140371621Y-118647036D01*
X140661012Y-119080142D01*
X141094118Y-119369533D01*
X141605000Y-119471154D01*
X142115882Y-119369533D01*
X142548988Y-119080142D01*
X142605878Y-118995000D01*
X142874995Y-118995000D01*
X142875000Y-118995001D01*
X143157484Y-118938810D01*
X143213675Y-118927633D01*
X143500790Y-118735790D01*
X144511579Y-117725000D01*
X145399349Y-117725000D01*
X145350232Y-117843287D01*
X145349769Y-118374383D01*
X145552582Y-118865229D01*
X145927796Y-119241098D01*
X146418287Y-119444768D01*
X146949383Y-119445231D01*
X147440229Y-119242418D01*
X147816098Y-118867204D01*
X148019768Y-118376713D01*
X148020231Y-117845617D01*
X147991066Y-117775032D01*
X148140167Y-117775162D01*
X148483943Y-117633117D01*
X148747192Y-117370327D01*
X148862077Y-117093656D01*
X150504208Y-118735787D01*
X150504210Y-118735790D01*
X150607660Y-118804913D01*
X150632582Y-118865229D01*
X151007796Y-119241098D01*
X151498287Y-119444768D01*
X152029383Y-119445231D01*
X152520229Y-119242418D01*
X152896098Y-118867204D01*
X153036855Y-118528223D01*
X156668035Y-118528223D01*
X156695222Y-119098454D01*
X156861136Y-119499005D01*
X157107255Y-119573139D01*
X157935395Y-118745000D01*
X157107255Y-117916861D01*
X156861136Y-117990995D01*
X156668035Y-118528223D01*
X153036855Y-118528223D01*
X153099768Y-118376713D01*
X153100231Y-117845617D01*
X152897418Y-117354771D01*
X152522204Y-116978902D01*
X152199212Y-116844784D01*
X152275882Y-116829533D01*
X152708988Y-116540142D01*
X152998379Y-116107036D01*
X153100000Y-115596154D01*
X153100000Y-115543846D01*
X153090499Y-115496081D01*
X154671579Y-113915000D01*
X163463420Y-113915000D01*
X164716420Y-115167999D01*
X164465000Y-115544275D01*
X164209698Y-115162189D01*
X163744151Y-114851120D01*
X163195000Y-114741887D01*
X162645849Y-114851120D01*
X162180302Y-115162189D01*
X161925000Y-115544275D01*
X161669698Y-115162189D01*
X161204151Y-114851120D01*
X160655000Y-114741887D01*
X160105849Y-114851120D01*
X159640302Y-115162189D01*
X159370014Y-115566703D01*
X159267389Y-115349866D01*
X158852423Y-114973959D01*
X158464039Y-114813096D01*
X158242000Y-114935085D01*
X158242000Y-116078000D01*
X158262000Y-116078000D01*
X158262000Y-116332000D01*
X158242000Y-116332000D01*
X158242000Y-116352000D01*
X157988000Y-116352000D01*
X157988000Y-116332000D01*
X157968000Y-116332000D01*
X157968000Y-116078000D01*
X157988000Y-116078000D01*
X157988000Y-114935085D01*
X157765961Y-114813096D01*
X157377577Y-114973959D01*
X157004864Y-115311590D01*
X156978162Y-115169683D01*
X156839090Y-114953559D01*
X156626890Y-114808569D01*
X156375000Y-114757560D01*
X154775000Y-114757560D01*
X154539683Y-114801838D01*
X154323559Y-114940910D01*
X154178569Y-115153110D01*
X154127560Y-115405000D01*
X154127560Y-117005000D01*
X154171838Y-117240317D01*
X154310910Y-117456441D01*
X154523110Y-117601431D01*
X154775000Y-117652440D01*
X156375000Y-117652440D01*
X156610317Y-117608162D01*
X156826441Y-117469090D01*
X156971431Y-117256890D01*
X157003732Y-117097384D01*
X157377577Y-117436041D01*
X157435793Y-117460153D01*
X157360995Y-117491136D01*
X157286861Y-117737255D01*
X158115000Y-118565395D01*
X158943139Y-117737255D01*
X158869005Y-117491136D01*
X158788911Y-117462347D01*
X158852423Y-117436041D01*
X159267389Y-117060134D01*
X159370014Y-116843297D01*
X159640302Y-117247811D01*
X159961426Y-117462379D01*
X159803200Y-117527757D01*
X159399176Y-117931077D01*
X159371577Y-117997544D01*
X159368864Y-117990995D01*
X159122745Y-117916861D01*
X158294605Y-118745000D01*
X159122745Y-119573139D01*
X159368864Y-119499005D01*
X159371196Y-119492517D01*
X159397757Y-119556800D01*
X159801077Y-119960824D01*
X160328309Y-120179750D01*
X160899187Y-120180248D01*
X161426800Y-119962243D01*
X161830824Y-119558923D01*
X161852383Y-119507002D01*
X161925084Y-119507002D01*
X161803096Y-119729039D01*
X161963959Y-120117423D01*
X162339866Y-120532389D01*
X162845959Y-120771914D01*
X163068000Y-120650629D01*
X163068000Y-119507000D01*
X163322000Y-119507000D01*
X163322000Y-120650629D01*
X163544041Y-120771914D01*
X164050134Y-120532389D01*
X164426041Y-120117423D01*
X164586904Y-119729039D01*
X164464915Y-119507000D01*
X163322000Y-119507000D01*
X163068000Y-119507000D01*
X163048000Y-119507000D01*
X163048000Y-119253000D01*
X163068000Y-119253000D01*
X163068000Y-118109371D01*
X163322000Y-118109371D01*
X163322000Y-119253000D01*
X164464915Y-119253000D01*
X164586904Y-119030961D01*
X164426041Y-118642577D01*
X164050134Y-118227611D01*
X163544041Y-117988086D01*
X163322000Y-118109371D01*
X163068000Y-118109371D01*
X162845959Y-117988086D01*
X162339866Y-118227611D01*
X162050172Y-118547405D01*
X162050248Y-118460813D01*
X161832243Y-117933200D01*
X161428923Y-117529176D01*
X161317715Y-117482999D01*
X161669698Y-117247811D01*
X161925000Y-116865725D01*
X162180302Y-117247811D01*
X162645849Y-117558880D01*
X163195000Y-117668113D01*
X163744151Y-117558880D01*
X164209698Y-117247811D01*
X164465000Y-116865725D01*
X164720302Y-117247811D01*
X165185849Y-117558880D01*
X165735000Y-117668113D01*
X166284151Y-117558880D01*
X166749698Y-117247811D01*
X167005000Y-116865725D01*
X167260302Y-117247811D01*
X167725849Y-117558880D01*
X168275000Y-117668113D01*
X168824151Y-117558880D01*
X169289698Y-117247811D01*
X169545000Y-116865725D01*
X169800302Y-117247811D01*
X170265849Y-117558880D01*
X170815000Y-117668113D01*
X171364151Y-117558880D01*
X171829698Y-117247811D01*
X172085000Y-116865725D01*
X172152881Y-116967317D01*
X171153454Y-117966744D01*
X171101691Y-117945250D01*
X170530813Y-117944752D01*
X170003200Y-118162757D01*
X169599176Y-118566077D01*
X169380250Y-119093309D01*
X169379752Y-119664187D01*
X169597757Y-120191800D01*
X170001077Y-120595824D01*
X170528309Y-120814750D01*
X171099187Y-120815248D01*
X171626800Y-120597243D01*
X172030824Y-120193923D01*
X172249750Y-119666691D01*
X172250248Y-119095813D01*
X172227951Y-119041851D01*
X173662943Y-117606859D01*
X173904151Y-117558880D01*
X174369698Y-117247811D01*
X174625000Y-116865725D01*
X174880302Y-117247811D01*
X175345849Y-117558880D01*
X175895000Y-117668113D01*
X176444151Y-117558880D01*
X176909698Y-117247811D01*
X177165000Y-116865725D01*
X177420302Y-117247811D01*
X177885849Y-117558880D01*
X178435000Y-117668113D01*
X178984151Y-117558880D01*
X179449698Y-117247811D01*
X179760767Y-116782264D01*
X179870000Y-116233113D01*
X179870000Y-116176887D01*
X179760767Y-115627736D01*
X179449698Y-115162189D01*
X178984151Y-114851120D01*
X178435000Y-114741887D01*
X177885849Y-114851120D01*
X177420302Y-115162189D01*
X177165000Y-115544275D01*
X176909698Y-115162189D01*
X176444151Y-114851120D01*
X175895000Y-114741887D01*
X175345849Y-114851120D01*
X174880302Y-115162189D01*
X174625000Y-115544275D01*
X174369698Y-115162189D01*
X173904151Y-114851120D01*
X173355000Y-114741887D01*
X172805849Y-114851120D01*
X172340302Y-115162189D01*
X172085000Y-115544275D01*
X171829698Y-115162189D01*
X171364151Y-114851120D01*
X170815000Y-114741887D01*
X170638562Y-114776983D01*
X166995790Y-111134210D01*
X166895666Y-111067310D01*
X166708675Y-110942367D01*
X166637644Y-110928238D01*
X166370000Y-110874999D01*
X166369995Y-110875000D01*
X162156580Y-110875000D01*
X163018562Y-110013017D01*
X163195000Y-110048113D01*
X163744151Y-109938880D01*
X164209698Y-109627811D01*
X164465000Y-109245725D01*
X164720302Y-109627811D01*
X165185849Y-109938880D01*
X165735000Y-110048113D01*
X166284151Y-109938880D01*
X166749698Y-109627811D01*
X167005000Y-109245725D01*
X167260302Y-109627811D01*
X167725849Y-109938880D01*
X168275000Y-110048113D01*
X168824151Y-109938880D01*
X169289698Y-109627811D01*
X169545000Y-109245725D01*
X169800302Y-109627811D01*
X170265849Y-109938880D01*
X170815000Y-110048113D01*
X171364151Y-109938880D01*
X171829698Y-109627811D01*
X172085000Y-109245725D01*
X172340302Y-109627811D01*
X172805849Y-109938880D01*
X173355000Y-110048113D01*
X173904151Y-109938880D01*
X174369698Y-109627811D01*
X174625000Y-109245725D01*
X174880302Y-109627811D01*
X175345849Y-109938880D01*
X175895000Y-110048113D01*
X176444151Y-109938880D01*
X176909698Y-109627811D01*
X177165000Y-109245725D01*
X177420302Y-109627811D01*
X177885849Y-109938880D01*
X178435000Y-110048113D01*
X178984151Y-109938880D01*
X179449698Y-109627811D01*
X179760767Y-109162264D01*
X179870000Y-108613113D01*
X179870000Y-108556887D01*
X179760767Y-108007736D01*
X179449698Y-107542189D01*
X178984151Y-107231120D01*
X178435000Y-107121887D01*
X177885849Y-107231120D01*
X177420302Y-107542189D01*
X177165000Y-107924275D01*
X176909698Y-107542189D01*
X176444151Y-107231120D01*
X175895000Y-107121887D01*
X175345849Y-107231120D01*
X174880302Y-107542189D01*
X174625000Y-107924275D01*
X174369698Y-107542189D01*
X173904151Y-107231120D01*
X173355000Y-107121887D01*
X172805849Y-107231120D01*
X172340302Y-107542189D01*
X172085000Y-107924275D01*
X171829698Y-107542189D01*
X171364151Y-107231120D01*
X170815000Y-107121887D01*
X170265849Y-107231120D01*
X169800302Y-107542189D01*
X169545000Y-107924275D01*
X169289698Y-107542189D01*
X168824151Y-107231120D01*
X168275000Y-107121887D01*
X167725849Y-107231120D01*
X167260302Y-107542189D01*
X167005000Y-107924275D01*
X166749698Y-107542189D01*
X166284151Y-107231120D01*
X165735000Y-107121887D01*
X165185849Y-107231120D01*
X164720302Y-107542189D01*
X164465000Y-107924275D01*
X164209698Y-107542189D01*
X163744151Y-107231120D01*
X163195000Y-107121887D01*
X163192397Y-107122405D01*
X168177401Y-102137401D01*
X168342148Y-101890839D01*
X168400000Y-101600000D01*
X168400000Y-99374802D01*
X168695000Y-99079802D01*
X168695000Y-99187002D01*
X168853748Y-99187002D01*
X168695000Y-99345750D01*
X168695000Y-100036309D01*
X168791673Y-100269698D01*
X168970301Y-100448327D01*
X169203690Y-100545000D01*
X169894250Y-100545000D01*
X170053000Y-100386250D01*
X170053000Y-99187000D01*
X170033000Y-99187000D01*
X170033000Y-98933000D01*
X170053000Y-98933000D01*
X170053000Y-98913000D01*
X170307000Y-98913000D01*
X170307000Y-98933000D01*
X170327000Y-98933000D01*
X170327000Y-99187000D01*
X170307000Y-99187000D01*
X170307000Y-100386250D01*
X170465750Y-100545000D01*
X171156310Y-100545000D01*
X171389699Y-100448327D01*
X171568327Y-100269698D01*
X171640597Y-100095223D01*
X171669946Y-100139147D01*
X171960000Y-100332954D01*
X171960000Y-103505000D01*
X172017852Y-103795839D01*
X172182599Y-104042401D01*
X172419878Y-104279680D01*
X172419838Y-104325167D01*
X172561883Y-104668943D01*
X172824673Y-104932192D01*
X173168201Y-105074838D01*
X173540167Y-105075162D01*
X173883943Y-104933117D01*
X174147192Y-104670327D01*
X174289838Y-104326799D01*
X174290162Y-103954833D01*
X174148117Y-103611057D01*
X173885327Y-103347808D01*
X173541799Y-103205162D01*
X173494923Y-103205121D01*
X173480000Y-103190198D01*
X173480000Y-100332954D01*
X173770054Y-100139147D01*
X173990000Y-99809974D01*
X174209946Y-100139147D01*
X174500000Y-100332954D01*
X174500000Y-103505000D01*
X174557852Y-103795839D01*
X174722599Y-104042401D01*
X174959878Y-104279680D01*
X174959838Y-104325167D01*
X175101883Y-104668943D01*
X175364673Y-104932192D01*
X175708201Y-105074838D01*
X176080167Y-105075162D01*
X176423943Y-104933117D01*
X176687192Y-104670327D01*
X176829838Y-104326799D01*
X176830162Y-103954833D01*
X176688117Y-103611057D01*
X176425327Y-103347808D01*
X176081799Y-103205162D01*
X176034923Y-103205121D01*
X176020000Y-103190198D01*
X176020000Y-100332954D01*
X176310054Y-100139147D01*
X176530000Y-99809974D01*
X176749946Y-100139147D01*
X177231715Y-100461054D01*
X177800000Y-100574093D01*
X178368285Y-100461054D01*
X178850054Y-100139147D01*
X179070000Y-99809974D01*
X179289946Y-100139147D01*
X179771715Y-100461054D01*
X180340000Y-100574093D01*
X180908285Y-100461054D01*
X181390054Y-100139147D01*
X181711961Y-99657378D01*
X181825000Y-99089093D01*
X181825000Y-99030907D01*
X181711961Y-98462622D01*
X181390054Y-97980853D01*
X180908285Y-97658946D01*
X180340000Y-97545907D01*
X179771715Y-97658946D01*
X179289946Y-97980853D01*
X179070000Y-98310026D01*
X178850054Y-97980853D01*
X178559322Y-97786593D01*
X178502148Y-97499161D01*
X178337401Y-97252599D01*
X178314802Y-97230000D01*
X181540070Y-97230000D01*
X181818979Y-97285478D01*
X181996145Y-97403856D01*
X182114521Y-97581019D01*
X182170000Y-97859931D01*
X182170000Y-144710069D01*
X182114521Y-144988981D01*
X181996145Y-145166144D01*
X181818979Y-145284522D01*
X181540070Y-145340000D01*
X153726579Y-145340000D01*
X154295787Y-144770792D01*
X154295790Y-144770790D01*
X154487633Y-144483675D01*
X154507152Y-144385546D01*
X154555001Y-144145000D01*
X154555000Y-144144995D01*
X154555000Y-143795750D01*
X168695000Y-143795750D01*
X168695000Y-144486309D01*
X168791673Y-144719698D01*
X168970301Y-144898327D01*
X169203690Y-144995000D01*
X169894250Y-144995000D01*
X170053000Y-144836250D01*
X170053000Y-143637000D01*
X168853750Y-143637000D01*
X168695000Y-143795750D01*
X154555000Y-143795750D01*
X154555000Y-142533691D01*
X168695000Y-142533691D01*
X168695000Y-143224250D01*
X168853750Y-143383000D01*
X170053000Y-143383000D01*
X170053000Y-142183750D01*
X170307000Y-142183750D01*
X170307000Y-143383000D01*
X170327000Y-143383000D01*
X170327000Y-143637000D01*
X170307000Y-143637000D01*
X170307000Y-144836250D01*
X170465750Y-144995000D01*
X171156310Y-144995000D01*
X171389699Y-144898327D01*
X171568327Y-144719698D01*
X171640597Y-144545223D01*
X171669946Y-144589147D01*
X172151715Y-144911054D01*
X172720000Y-145024093D01*
X173288285Y-144911054D01*
X173770054Y-144589147D01*
X173990000Y-144259974D01*
X174209946Y-144589147D01*
X174691715Y-144911054D01*
X175260000Y-145024093D01*
X175828285Y-144911054D01*
X176310054Y-144589147D01*
X176530000Y-144259974D01*
X176749946Y-144589147D01*
X177231715Y-144911054D01*
X177800000Y-145024093D01*
X178368285Y-144911054D01*
X178850054Y-144589147D01*
X179070000Y-144259974D01*
X179289946Y-144589147D01*
X179771715Y-144911054D01*
X180340000Y-145024093D01*
X180908285Y-144911054D01*
X181390054Y-144589147D01*
X181711961Y-144107378D01*
X181825000Y-143539093D01*
X181825000Y-143480907D01*
X181711961Y-142912622D01*
X181390054Y-142430853D01*
X180908285Y-142108946D01*
X180340000Y-141995907D01*
X179771715Y-142108946D01*
X179289946Y-142430853D01*
X179070000Y-142760026D01*
X178850054Y-142430853D01*
X178368285Y-142108946D01*
X177800000Y-141995907D01*
X177231715Y-142108946D01*
X176749946Y-142430853D01*
X176530000Y-142760026D01*
X176310054Y-142430853D01*
X175828285Y-142108946D01*
X175260000Y-141995907D01*
X174691715Y-142108946D01*
X174209946Y-142430853D01*
X173990000Y-142760026D01*
X173770054Y-142430853D01*
X173288285Y-142108946D01*
X172720000Y-141995907D01*
X172151715Y-142108946D01*
X171669946Y-142430853D01*
X171640597Y-142474777D01*
X171568327Y-142300302D01*
X171389699Y-142121673D01*
X171156310Y-142025000D01*
X170465750Y-142025000D01*
X170307000Y-142183750D01*
X170053000Y-142183750D01*
X169894250Y-142025000D01*
X169203690Y-142025000D01*
X168970301Y-142121673D01*
X168791673Y-142300302D01*
X168695000Y-142533691D01*
X154555000Y-142533691D01*
X154555000Y-139437745D01*
X157286861Y-139437745D01*
X157360995Y-139683864D01*
X157898223Y-139876965D01*
X158468454Y-139849778D01*
X158869005Y-139683864D01*
X158943139Y-139437745D01*
X158115000Y-138609605D01*
X157286861Y-139437745D01*
X154555000Y-139437745D01*
X154555000Y-138213223D01*
X156668035Y-138213223D01*
X156695222Y-138783454D01*
X156861136Y-139184005D01*
X157107255Y-139258139D01*
X157935395Y-138430000D01*
X157107255Y-137601861D01*
X156861136Y-137675995D01*
X156668035Y-138213223D01*
X154555000Y-138213223D01*
X154555000Y-137292889D01*
X154775000Y-137337440D01*
X156375000Y-137337440D01*
X156610317Y-137293162D01*
X156826441Y-137154090D01*
X156971431Y-136941890D01*
X157003732Y-136782384D01*
X157377577Y-137121041D01*
X157435793Y-137145153D01*
X157360995Y-137176136D01*
X157286861Y-137422255D01*
X158115000Y-138250395D01*
X158943139Y-137422255D01*
X158869005Y-137176136D01*
X158788911Y-137147347D01*
X158852423Y-137121041D01*
X159267389Y-136745134D01*
X159370014Y-136528297D01*
X159640302Y-136932811D01*
X159961426Y-137147379D01*
X159803200Y-137212757D01*
X159399176Y-137616077D01*
X159371577Y-137682544D01*
X159368864Y-137675995D01*
X159122745Y-137601861D01*
X158294605Y-138430000D01*
X159122745Y-139258139D01*
X159368864Y-139184005D01*
X159371196Y-139177517D01*
X159397757Y-139241800D01*
X159801077Y-139645824D01*
X160328309Y-139864750D01*
X160899187Y-139865248D01*
X161426800Y-139647243D01*
X161830824Y-139243923D01*
X161852383Y-139192002D01*
X161925084Y-139192002D01*
X161803096Y-139414039D01*
X161963959Y-139802423D01*
X162339866Y-140217389D01*
X162845959Y-140456914D01*
X163068000Y-140335629D01*
X163068000Y-139192000D01*
X163322000Y-139192000D01*
X163322000Y-140335629D01*
X163544041Y-140456914D01*
X164050134Y-140217389D01*
X164426041Y-139802423D01*
X164586904Y-139414039D01*
X164464915Y-139192000D01*
X163322000Y-139192000D01*
X163068000Y-139192000D01*
X163048000Y-139192000D01*
X163048000Y-138938000D01*
X163068000Y-138938000D01*
X163068000Y-137794371D01*
X163322000Y-137794371D01*
X163322000Y-138938000D01*
X164464915Y-138938000D01*
X164586904Y-138715961D01*
X164426041Y-138327577D01*
X164050134Y-137912611D01*
X163544041Y-137673086D01*
X163322000Y-137794371D01*
X163068000Y-137794371D01*
X162845959Y-137673086D01*
X162339866Y-137912611D01*
X162050172Y-138232405D01*
X162050248Y-138145813D01*
X161832243Y-137618200D01*
X161428923Y-137214176D01*
X161317715Y-137167999D01*
X161669698Y-136932811D01*
X161925000Y-136550725D01*
X162180302Y-136932811D01*
X162645849Y-137243880D01*
X163195000Y-137353113D01*
X163744151Y-137243880D01*
X164209698Y-136932811D01*
X164465000Y-136550725D01*
X164720302Y-136932811D01*
X165185849Y-137243880D01*
X165735000Y-137353113D01*
X166284151Y-137243880D01*
X166749698Y-136932811D01*
X167005000Y-136550725D01*
X167260302Y-136932811D01*
X167725849Y-137243880D01*
X168275000Y-137353113D01*
X168824151Y-137243880D01*
X169289698Y-136932811D01*
X169545000Y-136550725D01*
X169612881Y-136652317D01*
X168135320Y-138129878D01*
X168089833Y-138129838D01*
X167746057Y-138271883D01*
X167482808Y-138534673D01*
X167340162Y-138878201D01*
X167339838Y-139250167D01*
X167481883Y-139593943D01*
X167744673Y-139857192D01*
X168088201Y-139999838D01*
X168460167Y-140000162D01*
X168803943Y-139858117D01*
X169067192Y-139595327D01*
X169209838Y-139251799D01*
X169209879Y-139204923D01*
X169380026Y-139034776D01*
X169379752Y-139349187D01*
X169597757Y-139876800D01*
X170001077Y-140280824D01*
X170528309Y-140499750D01*
X171099187Y-140500248D01*
X171626800Y-140282243D01*
X172030824Y-139878923D01*
X172053215Y-139825000D01*
X172720000Y-139825000D01*
X173010839Y-139767148D01*
X173257401Y-139602401D01*
X173866341Y-138993461D01*
X174094673Y-139222192D01*
X174438201Y-139364838D01*
X174810167Y-139365162D01*
X175153943Y-139223117D01*
X175417192Y-138960327D01*
X175559838Y-138616799D01*
X175560162Y-138244833D01*
X175418117Y-137901057D01*
X175385000Y-137867882D01*
X175385000Y-137251668D01*
X175895000Y-137353113D01*
X176444151Y-137243880D01*
X176909698Y-136932811D01*
X177165000Y-136550725D01*
X177420302Y-136932811D01*
X177885849Y-137243880D01*
X178435000Y-137353113D01*
X178984151Y-137243880D01*
X179449698Y-136932811D01*
X179760767Y-136467264D01*
X179870000Y-135918113D01*
X179870000Y-135861887D01*
X179760767Y-135312736D01*
X179449698Y-134847189D01*
X178984151Y-134536120D01*
X178435000Y-134426887D01*
X177885849Y-134536120D01*
X177420302Y-134847189D01*
X177165000Y-135229275D01*
X176909698Y-134847189D01*
X176444151Y-134536120D01*
X175895000Y-134426887D01*
X175385000Y-134528332D01*
X175385000Y-133029802D01*
X176432401Y-131982401D01*
X176597148Y-131735840D01*
X176655000Y-131445000D01*
X176655000Y-129482995D01*
X176909698Y-129312811D01*
X177165000Y-128930725D01*
X177420302Y-129312811D01*
X177885849Y-129623880D01*
X178435000Y-129733113D01*
X178984151Y-129623880D01*
X179449698Y-129312811D01*
X179760767Y-128847264D01*
X179870000Y-128298113D01*
X179870000Y-128241887D01*
X179760767Y-127692736D01*
X179449698Y-127227189D01*
X178984151Y-126916120D01*
X178435000Y-126806887D01*
X177885849Y-126916120D01*
X177420302Y-127227189D01*
X177165000Y-127609275D01*
X176909698Y-127227189D01*
X176444151Y-126916120D01*
X175895000Y-126806887D01*
X175571114Y-126871312D01*
X172385122Y-123685320D01*
X172385162Y-123639833D01*
X172243117Y-123296057D01*
X171980327Y-123032808D01*
X171636799Y-122890162D01*
X171264833Y-122889838D01*
X170921057Y-123031883D01*
X170657808Y-123294673D01*
X170515162Y-123638201D01*
X170515090Y-123720288D01*
X170480122Y-123685320D01*
X170480162Y-123639833D01*
X170338117Y-123296057D01*
X170075327Y-123032808D01*
X169731799Y-122890162D01*
X169359833Y-122889838D01*
X169016057Y-123031883D01*
X168752808Y-123294673D01*
X168610162Y-123638201D01*
X168609838Y-124010167D01*
X168751883Y-124353943D01*
X169014673Y-124617192D01*
X169358201Y-124759838D01*
X169405077Y-124759879D01*
X172152881Y-127507683D01*
X172085000Y-127609275D01*
X171829698Y-127227189D01*
X171364151Y-126916120D01*
X170815000Y-126806887D01*
X170265849Y-126916120D01*
X169800302Y-127227189D01*
X169545000Y-127609275D01*
X169289698Y-127227189D01*
X168824151Y-126916120D01*
X168275000Y-126806887D01*
X167725849Y-126916120D01*
X167260302Y-127227189D01*
X167005000Y-127609275D01*
X166749698Y-127227189D01*
X166284151Y-126916120D01*
X165735000Y-126806887D01*
X165185849Y-126916120D01*
X164720302Y-127227189D01*
X164465000Y-127609275D01*
X164209698Y-127227189D01*
X163744151Y-126916120D01*
X163195000Y-126806887D01*
X163192397Y-126807405D01*
X165239680Y-124760122D01*
X165285167Y-124760162D01*
X165628943Y-124618117D01*
X165892192Y-124355327D01*
X166034838Y-124011799D01*
X166035162Y-123639833D01*
X165893117Y-123296057D01*
X165630327Y-123032808D01*
X165286799Y-122890162D01*
X164914833Y-122889838D01*
X164571057Y-123031883D01*
X164307808Y-123294673D01*
X164165162Y-123638201D01*
X164165121Y-123685077D01*
X160978886Y-126871312D01*
X160655000Y-126806887D01*
X160105849Y-126916120D01*
X159640302Y-127227189D01*
X159385000Y-127609275D01*
X159129698Y-127227189D01*
X158664151Y-126916120D01*
X158115000Y-126806887D01*
X157565849Y-126916120D01*
X157100302Y-127227189D01*
X156845000Y-127609275D01*
X156589698Y-127227189D01*
X156124151Y-126916120D01*
X155575000Y-126806887D01*
X155025849Y-126916120D01*
X154560302Y-127227189D01*
X154555000Y-127235124D01*
X154555000Y-126365005D01*
X154555001Y-126365000D01*
X154487633Y-126026326D01*
X154487633Y-126026325D01*
X154295790Y-125739210D01*
X154295787Y-125739208D01*
X153090499Y-124533919D01*
X153100000Y-124486154D01*
X153100000Y-124433846D01*
X152998379Y-123922964D01*
X152708988Y-123489858D01*
X152275882Y-123200467D01*
X151765000Y-123098846D01*
X151254118Y-123200467D01*
X150821012Y-123489858D01*
X150531621Y-123922964D01*
X150430000Y-124433846D01*
X150430000Y-124486154D01*
X150531621Y-124997036D01*
X150821012Y-125430142D01*
X151254118Y-125719533D01*
X151331045Y-125734835D01*
X151009771Y-125867582D01*
X150633902Y-126242796D01*
X150430232Y-126733287D01*
X150430040Y-126953461D01*
X148160466Y-124683886D01*
X148205000Y-124460000D01*
X148137633Y-124121325D01*
X147945790Y-123834210D01*
X147789136Y-123729538D01*
X147628988Y-123489858D01*
X147195882Y-123200467D01*
X146685000Y-123098846D01*
X146174118Y-123200467D01*
X145741012Y-123489858D01*
X145451621Y-123922964D01*
X145350000Y-124433846D01*
X145350000Y-124486154D01*
X145451621Y-124997036D01*
X145741012Y-125430142D01*
X146174118Y-125719533D01*
X146251045Y-125734835D01*
X145929771Y-125867582D01*
X145665000Y-126131892D01*
X145665000Y-125730005D01*
X145665001Y-125730000D01*
X145597633Y-125391325D01*
X145566680Y-125345000D01*
X145405790Y-125104210D01*
X145405787Y-125104208D01*
X144135790Y-123834210D01*
X144122006Y-123825000D01*
X143848675Y-123642367D01*
X143792484Y-123631190D01*
X143510000Y-123574999D01*
X143509995Y-123575000D01*
X142605878Y-123575000D01*
X142548988Y-123489858D01*
X142115882Y-123200467D01*
X141605000Y-123098846D01*
X141094118Y-123200467D01*
X140661012Y-123489858D01*
X140371621Y-123922964D01*
X140270000Y-124433846D01*
X140270000Y-124486154D01*
X140371621Y-124997036D01*
X140661012Y-125430142D01*
X141094118Y-125719533D01*
X141171045Y-125734835D01*
X140849771Y-125867582D01*
X140473902Y-126242796D01*
X140270232Y-126733287D01*
X140269769Y-127264383D01*
X140472582Y-127755229D01*
X140847796Y-128131098D01*
X141338287Y-128334768D01*
X141869383Y-128335231D01*
X142360229Y-128132418D01*
X142736098Y-127757204D01*
X142939768Y-127266713D01*
X142940231Y-126735617D01*
X142737418Y-126244771D01*
X142362204Y-125868902D01*
X142039212Y-125734784D01*
X142115882Y-125719533D01*
X142548988Y-125430142D01*
X142605878Y-125345000D01*
X143143420Y-125345000D01*
X143895000Y-126096579D01*
X143895000Y-128904995D01*
X143894999Y-128905000D01*
X143914486Y-129002964D01*
X143962367Y-129243675D01*
X144008562Y-129312811D01*
X144154210Y-129530790D01*
X145856842Y-131233421D01*
X145724064Y-131259833D01*
X145711325Y-131262367D01*
X145424210Y-131454210D01*
X145424208Y-131454213D01*
X144371164Y-132507256D01*
X144251057Y-132556883D01*
X144179873Y-132627943D01*
X143934670Y-132260971D01*
X143663828Y-132080000D01*
X143934670Y-131899029D01*
X144259526Y-131412848D01*
X144373600Y-130839359D01*
X144373600Y-130780641D01*
X144259526Y-130207152D01*
X143934670Y-129720971D01*
X143448489Y-129396115D01*
X142875000Y-129282041D01*
X142301511Y-129396115D01*
X141815330Y-129720971D01*
X141605000Y-130035752D01*
X141394670Y-129720971D01*
X140908489Y-129396115D01*
X140335000Y-129282041D01*
X139761511Y-129396115D01*
X139275330Y-129720971D01*
X138950474Y-130207152D01*
X138836400Y-130780641D01*
X138836400Y-130839359D01*
X138950474Y-131412848D01*
X139275330Y-131899029D01*
X139546172Y-132080000D01*
X139275330Y-132260971D01*
X139256192Y-132289613D01*
X137367744Y-130401164D01*
X137318117Y-130281057D01*
X137055327Y-130017808D01*
X136711799Y-129875162D01*
X136339833Y-129874838D01*
X135996057Y-130016883D01*
X135732808Y-130279673D01*
X135590162Y-130623201D01*
X135589838Y-130995167D01*
X135731883Y-131338943D01*
X135994673Y-131602192D01*
X136115986Y-131652566D01*
X138439208Y-133975787D01*
X138439210Y-133975790D01*
X138726325Y-134167633D01*
X139065000Y-134235000D01*
X139139002Y-134235000D01*
X139275330Y-134439029D01*
X139546172Y-134620000D01*
X139275330Y-134800971D01*
X138950474Y-135287152D01*
X138836400Y-135860641D01*
X138836400Y-135919359D01*
X138950474Y-136492848D01*
X139261574Y-136958442D01*
X139236083Y-136963238D01*
X139019959Y-137102310D01*
X138874969Y-137314510D01*
X138823960Y-137566400D01*
X138823960Y-139293600D01*
X138868238Y-139528917D01*
X139007310Y-139745041D01*
X139219510Y-139890031D01*
X139450000Y-139936706D01*
X139450000Y-142875000D01*
X139517367Y-143213675D01*
X139709210Y-143500790D01*
X139996325Y-143692633D01*
X140335000Y-143760000D01*
X140341379Y-143760000D01*
X140270000Y-144118846D01*
X140270000Y-144171154D01*
X140371621Y-144682036D01*
X140661012Y-145115142D01*
X140997537Y-145340000D01*
X134689931Y-145340000D01*
X134411019Y-145284521D01*
X134233856Y-145166145D01*
X134115478Y-144988979D01*
X134060000Y-144710070D01*
X134060000Y-121813172D01*
X136397538Y-121813172D01*
X136802709Y-122793761D01*
X137552293Y-123544655D01*
X138532173Y-123951536D01*
X139593172Y-123952462D01*
X140573761Y-123547291D01*
X141324655Y-122797707D01*
X141731536Y-121817827D01*
X141731540Y-121813172D01*
X174497538Y-121813172D01*
X174902709Y-122793761D01*
X175652293Y-123544655D01*
X176632173Y-123951536D01*
X177693172Y-123952462D01*
X178673761Y-123547291D01*
X179424655Y-122797707D01*
X179831536Y-121817827D01*
X179832462Y-120756828D01*
X179427291Y-119776239D01*
X178677707Y-119025345D01*
X177697827Y-118618464D01*
X176636828Y-118617538D01*
X175656239Y-119022709D01*
X174905345Y-119772293D01*
X174498464Y-120752173D01*
X174497538Y-121813172D01*
X141731540Y-121813172D01*
X141732462Y-120756828D01*
X141327291Y-119776239D01*
X141303838Y-119752745D01*
X157286861Y-119752745D01*
X157360995Y-119998864D01*
X157898223Y-120191965D01*
X158468454Y-120164778D01*
X158869005Y-119998864D01*
X158943139Y-119752745D01*
X158115000Y-118924605D01*
X157286861Y-119752745D01*
X141303838Y-119752745D01*
X140577707Y-119025345D01*
X139597827Y-118618464D01*
X138536828Y-118617538D01*
X137556239Y-119022709D01*
X136805345Y-119772293D01*
X136398464Y-120752173D01*
X136397538Y-121813172D01*
X134060000Y-121813172D01*
X134060000Y-97859930D01*
X134115478Y-97581021D01*
X134233856Y-97403855D01*
X134411019Y-97285479D01*
X134689931Y-97230000D01*
X140997537Y-97230000D01*
X140661012Y-97454858D01*
G36*
X163805598Y-134577178D02*
X163744151Y-134536120D01*
X163195000Y-134426887D01*
X162645849Y-134536120D01*
X162180302Y-134847189D01*
X161925000Y-135229275D01*
X161669698Y-134847189D01*
X161204151Y-134536120D01*
X160655000Y-134426887D01*
X160105849Y-134536120D01*
X159640302Y-134847189D01*
X159370014Y-135251703D01*
X159267389Y-135034866D01*
X158852423Y-134658959D01*
X158464039Y-134498096D01*
X158242000Y-134620085D01*
X158242000Y-135763000D01*
X158262000Y-135763000D01*
X158262000Y-136017000D01*
X158242000Y-136017000D01*
X158242000Y-136037000D01*
X157988000Y-136037000D01*
X157988000Y-136017000D01*
X157968000Y-136017000D01*
X157968000Y-135763000D01*
X157988000Y-135763000D01*
X157988000Y-134620085D01*
X157765961Y-134498096D01*
X157377577Y-134658959D01*
X157004864Y-134996590D01*
X156978162Y-134854683D01*
X156839090Y-134638559D01*
X156626890Y-134493569D01*
X156375000Y-134442560D01*
X155099019Y-134442560D01*
X155306579Y-134235000D01*
X163463420Y-134235000D01*
X163805598Y-134577178D01*
X163805598Y-134577178D01*
G37*
X163805598Y-134577178D02*
X163744151Y-134536120D01*
X163195000Y-134426887D01*
X162645849Y-134536120D01*
X162180302Y-134847189D01*
X161925000Y-135229275D01*
X161669698Y-134847189D01*
X161204151Y-134536120D01*
X160655000Y-134426887D01*
X160105849Y-134536120D01*
X159640302Y-134847189D01*
X159370014Y-135251703D01*
X159267389Y-135034866D01*
X158852423Y-134658959D01*
X158464039Y-134498096D01*
X158242000Y-134620085D01*
X158242000Y-135763000D01*
X158262000Y-135763000D01*
X158262000Y-136017000D01*
X158242000Y-136017000D01*
X158242000Y-136037000D01*
X157988000Y-136037000D01*
X157988000Y-136017000D01*
X157968000Y-136017000D01*
X157968000Y-135763000D01*
X157988000Y-135763000D01*
X157988000Y-134620085D01*
X157765961Y-134498096D01*
X157377577Y-134658959D01*
X157004864Y-134996590D01*
X156978162Y-134854683D01*
X156839090Y-134638559D01*
X156626890Y-134493569D01*
X156375000Y-134442560D01*
X155099019Y-134442560D01*
X155306579Y-134235000D01*
X163463420Y-134235000D01*
X163805598Y-134577178D01*
M02*
