G04 #@! TF.GenerationSoftware,KiCad,Pcbnew,5.0.0*
G04 #@! TF.CreationDate,2018-07-29T15:48:31+02:00*
G04 #@! TF.ProjectId,led_leveldriver,6C65645F6C6576656C6472697665722E,rev?*
G04 #@! TF.SameCoordinates,Original*
G04 #@! TF.FileFunction,Copper,L2,Bot,Signal*
G04 #@! TF.FilePolarity,Positive*
%FSLAX46Y46*%
G04 Gerber Fmt 4.6, Leading zero omitted, Abs format (unit mm)*
G04 Created by KiCad (PCBNEW 5.0.0) date Sun Jul 29 15:48:31 2018*
%MOMM*%
%LPD*%
G01*
G04 APERTURE LIST*
G04 #@! TA.AperFunction,ComponentPad*
%ADD10C,4.064000*%
G04 #@! TD*
G04 #@! TA.AperFunction,ComponentPad*
%ADD11O,1.700000X1.700000*%
G04 #@! TD*
G04 #@! TA.AperFunction,ComponentPad*
%ADD12R,1.700000X1.700000*%
G04 #@! TD*
G04 #@! TA.AperFunction,ComponentPad*
%ADD13R,1.727200X2.250000*%
G04 #@! TD*
G04 #@! TA.AperFunction,ComponentPad*
%ADD14O,1.727200X2.250000*%
G04 #@! TD*
G04 #@! TA.AperFunction,ComponentPad*
%ADD15O,1.727200X1.727200*%
G04 #@! TD*
G04 #@! TA.AperFunction,SMDPad,CuDef*
%ADD16R,2.500000X3.750000*%
G04 #@! TD*
G04 #@! TA.AperFunction,SMDPad,CuDef*
%ADD17R,0.800000X0.750000*%
G04 #@! TD*
G04 #@! TA.AperFunction,SMDPad,CuDef*
%ADD18R,0.750000X0.800000*%
G04 #@! TD*
G04 #@! TA.AperFunction,ComponentPad*
%ADD19O,1.600000X1.600000*%
G04 #@! TD*
G04 #@! TA.AperFunction,ComponentPad*
%ADD20R,1.600000X1.600000*%
G04 #@! TD*
G04 #@! TA.AperFunction,ComponentPad*
%ADD21C,2.800000*%
G04 #@! TD*
G04 #@! TA.AperFunction,ComponentPad*
%ADD22R,2.800000X2.800000*%
G04 #@! TD*
G04 #@! TA.AperFunction,SMDPad,CuDef*
%ADD23R,0.500000X0.900000*%
G04 #@! TD*
G04 #@! TA.AperFunction,SMDPad,CuDef*
%ADD24R,0.900000X0.500000*%
G04 #@! TD*
G04 #@! TA.AperFunction,SMDPad,CuDef*
%ADD25R,2.000000X1.500000*%
G04 #@! TD*
G04 #@! TA.AperFunction,SMDPad,CuDef*
%ADD26R,2.000000X3.800000*%
G04 #@! TD*
G04 #@! TA.AperFunction,ViaPad*
%ADD27C,0.600000*%
G04 #@! TD*
G04 #@! TA.AperFunction,Conductor*
%ADD28C,0.500000*%
G04 #@! TD*
G04 #@! TA.AperFunction,Conductor*
%ADD29C,0.250000*%
G04 #@! TD*
G04 #@! TA.AperFunction,Conductor*
%ADD30C,0.254000*%
G04 #@! TD*
G04 APERTURE END LIST*
D10*
G04 #@! TO.P,REF\002A\002A,1*
G04 #@! TO.N,N/C*
X181734000Y-93820000D03*
G04 #@! TD*
G04 #@! TO.P,REF\002A\002A,1*
G04 #@! TO.N,N/C*
X111734000Y-93820000D03*
G04 #@! TD*
G04 #@! TO.P,REF\002A\002A,1*
G04 #@! TO.N,N/C*
X181734000Y-38820000D03*
G04 #@! TD*
D11*
G04 #@! TO.P,Output,5*
G04 #@! TO.N,GND*
X126254000Y-85024000D03*
G04 #@! TO.P,Output,4*
G04 #@! TO.N,/DOUT*
X128794000Y-85024000D03*
G04 #@! TO.P,Output,3*
G04 #@! TO.N,/RCK*
X131334000Y-85024000D03*
G04 #@! TO.P,Output,2*
G04 #@! TO.N,/SRCK*
X133874000Y-85024000D03*
D12*
G04 #@! TO.P,Output,1*
G04 #@! TO.N,VCC*
X136414000Y-85024000D03*
G04 #@! TD*
D13*
G04 #@! TO.P,U2,1*
G04 #@! TO.N,Net-(U2-Pad1)*
X126254000Y-59370000D03*
D14*
G04 #@! TO.P,U2,2*
G04 #@! TO.N,Net-(U2-Pad2)*
X128794000Y-59370000D03*
G04 #@! TO.P,U2,3*
G04 #@! TO.N,Net-(U2-Pad3)*
X131334000Y-59370000D03*
G04 #@! TO.P,U2,4*
G04 #@! TO.N,Net-(U2-Pad4)*
X133874000Y-59370000D03*
G04 #@! TO.P,U2,5*
G04 #@! TO.N,Net-(U2-Pad5)*
X136414000Y-59370000D03*
G04 #@! TO.P,U2,6*
G04 #@! TO.N,Net-(U2-Pad6)*
X138954000Y-59370000D03*
G04 #@! TO.P,U2,7*
G04 #@! TO.N,Net-(U2-Pad7)*
X141494000Y-59370000D03*
G04 #@! TO.P,U2,8*
G04 #@! TO.N,Net-(U2-Pad8)*
X144034000Y-59370000D03*
G04 #@! TO.P,U2,9*
G04 #@! TO.N,Net-(U2-Pad9)*
X146574000Y-59370000D03*
G04 #@! TO.P,U2,10*
G04 #@! TO.N,Net-(U2-Pad10)*
X149114000Y-59370000D03*
G04 #@! TO.P,U2,11*
G04 #@! TO.N,Net-(U2-Pad11)*
X151654000Y-59370000D03*
G04 #@! TO.P,U2,12*
G04 #@! TO.N,Net-(U2-Pad12)*
X154194000Y-59370000D03*
G04 #@! TO.P,U2,13*
G04 #@! TO.N,Net-(U2-Pad13)*
X156734000Y-59370000D03*
G04 #@! TO.P,U2,14*
G04 #@! TO.N,Net-(U2-Pad14)*
X159274000Y-59370000D03*
G04 #@! TO.P,U2,15*
G04 #@! TO.N,Net-(U2-Pad15)*
X161814000Y-59370000D03*
G04 #@! TO.P,U2,16*
G04 #@! TO.N,Net-(U2-Pad16)*
X164354000Y-59370000D03*
G04 #@! TO.P,U2,17*
G04 #@! TO.N,Net-(U2-Pad17)*
X166894000Y-59370000D03*
G04 #@! TO.P,U2,18*
G04 #@! TO.N,+3V3*
X169434000Y-59370000D03*
G04 #@! TO.P,U2,19*
G04 #@! TO.N,GND*
X171974000Y-59370000D03*
G04 #@! TO.P,U2,20*
X174514000Y-59370000D03*
G04 #@! TO.P,U2,21*
G04 #@! TO.N,Net-(U2-Pad21)*
X174514000Y-44130000D03*
G04 #@! TO.P,U2,22*
G04 #@! TO.N,Net-(U2-Pad22)*
X171974000Y-44130000D03*
G04 #@! TO.P,U2,23*
G04 #@! TO.N,Net-(U2-Pad23)*
X169434000Y-44130000D03*
G04 #@! TO.P,U2,24*
G04 #@! TO.N,Net-(U2-Pad24)*
X166894000Y-44130000D03*
G04 #@! TO.P,U2,25*
G04 #@! TO.N,Net-(U2-Pad25)*
X164354000Y-44130000D03*
G04 #@! TO.P,U2,26*
G04 #@! TO.N,Net-(U2-Pad26)*
X161814000Y-44130000D03*
G04 #@! TO.P,U2,27*
G04 #@! TO.N,Net-(U2-Pad27)*
X159274000Y-44130000D03*
G04 #@! TO.P,U2,28*
G04 #@! TO.N,Net-(U2-Pad28)*
X156734000Y-44130000D03*
G04 #@! TO.P,U2,29*
G04 #@! TO.N,Net-(U2-Pad29)*
X154194000Y-44130000D03*
G04 #@! TO.P,U2,30*
G04 #@! TO.N,Net-(U2-Pad30)*
X151654000Y-44130000D03*
G04 #@! TO.P,U2,31*
G04 #@! TO.N,Net-(U2-Pad31)*
X149114000Y-44130000D03*
G04 #@! TO.P,U2,32*
G04 #@! TO.N,Net-(U2-Pad32)*
X146574000Y-44130000D03*
G04 #@! TO.P,U2,33*
G04 #@! TO.N,Net-(U2-Pad33)*
X144034000Y-44130000D03*
G04 #@! TO.P,U2,34*
G04 #@! TO.N,Net-(U2-Pad34)*
X141494000Y-44130000D03*
G04 #@! TO.P,U2,35*
G04 #@! TO.N,Net-(U2-Pad35)*
X138954000Y-44130000D03*
G04 #@! TO.P,U2,36*
G04 #@! TO.N,Net-(U2-Pad36)*
X136414000Y-44130000D03*
G04 #@! TO.P,U2,37*
G04 #@! TO.N,Net-(U2-Pad37)*
X133874000Y-44130000D03*
G04 #@! TO.P,U2,38*
G04 #@! TO.N,Net-(U2-Pad38)*
X131334000Y-44130000D03*
G04 #@! TO.P,U2,39*
G04 #@! TO.N,GND*
X128794000Y-44130000D03*
G04 #@! TO.P,U2,40*
G04 #@! TO.N,+3V3*
X126203200Y-44130000D03*
D15*
G04 #@! TO.P,U2,41*
G04 #@! TO.N,Net-(U2-Pad41)*
X130064000Y-50470000D03*
G04 #@! TO.P,U2,42*
G04 #@! TO.N,Net-(U2-Pad42)*
X130064000Y-53010000D03*
G04 #@! TD*
D16*
G04 #@! TO.P,C1,2*
G04 #@! TO.N,GND*
X137684000Y-54875000D03*
G04 #@! TO.P,C1,1*
G04 #@! TO.N,VCC*
X137684000Y-48625000D03*
G04 #@! TD*
G04 #@! TO.P,C2,1*
G04 #@! TO.N,+3V3*
X153559000Y-48625000D03*
G04 #@! TO.P,C2,2*
G04 #@! TO.N,GND*
X153559000Y-54875000D03*
G04 #@! TD*
D17*
G04 #@! TO.P,C3,2*
G04 #@! TO.N,GND*
X170958000Y-55560000D03*
G04 #@! TO.P,C3,1*
G04 #@! TO.N,+3V3*
X169458000Y-55560000D03*
G04 #@! TD*
G04 #@! TO.P,C4,1*
G04 #@! TO.N,VCC*
X121924000Y-68260000D03*
G04 #@! TO.P,C4,2*
G04 #@! TO.N,GND*
X120424000Y-68260000D03*
G04 #@! TD*
D18*
G04 #@! TO.P,C5,1*
G04 #@! TO.N,VCC*
X149114000Y-75130000D03*
G04 #@! TO.P,C5,2*
G04 #@! TO.N,GND*
X149114000Y-76630000D03*
G04 #@! TD*
D19*
G04 #@! TO.P,IC1,20*
G04 #@! TO.N,Net-(IC1-Pad20)*
X151654000Y-79690000D03*
G04 #@! TO.P,IC1,10*
G04 #@! TO.N,GND*
X128794000Y-72070000D03*
G04 #@! TO.P,IC1,19*
X149114000Y-79690000D03*
G04 #@! TO.P,IC1,9*
X131334000Y-72070000D03*
G04 #@! TO.P,IC1,18*
G04 #@! TO.N,/DOUT*
X146574000Y-79690000D03*
G04 #@! TO.P,IC1,8*
G04 #@! TO.N,Net-(IC1-Pad8)*
X133874000Y-72070000D03*
G04 #@! TO.P,IC1,17*
G04 #@! TO.N,/L7*
X144034000Y-79690000D03*
G04 #@! TO.P,IC1,7*
G04 #@! TO.N,/L3*
X136414000Y-72070000D03*
G04 #@! TO.P,IC1,16*
G04 #@! TO.N,/L6*
X141494000Y-79690000D03*
G04 #@! TO.P,IC1,6*
G04 #@! TO.N,/L2*
X138954000Y-72070000D03*
G04 #@! TO.P,IC1,15*
G04 #@! TO.N,/L5*
X138954000Y-79690000D03*
G04 #@! TO.P,IC1,5*
G04 #@! TO.N,/L1*
X141494000Y-72070000D03*
G04 #@! TO.P,IC1,14*
G04 #@! TO.N,/L4*
X136414000Y-79690000D03*
G04 #@! TO.P,IC1,4*
G04 #@! TO.N,/L0*
X144034000Y-72070000D03*
G04 #@! TO.P,IC1,13*
G04 #@! TO.N,/SRCK*
X133874000Y-79690000D03*
G04 #@! TO.P,IC1,3*
G04 #@! TO.N,/DATA*
X146574000Y-72070000D03*
G04 #@! TO.P,IC1,12*
G04 #@! TO.N,/RCK*
X131334000Y-79690000D03*
G04 #@! TO.P,IC1,2*
G04 #@! TO.N,VCC*
X149114000Y-72070000D03*
G04 #@! TO.P,IC1,11*
G04 #@! TO.N,GND*
X128794000Y-79690000D03*
D20*
G04 #@! TO.P,IC1,1*
G04 #@! TO.N,Net-(IC1-Pad1)*
X151654000Y-72070000D03*
G04 #@! TD*
D21*
G04 #@! TO.P,J2,2*
G04 #@! TO.N,GND*
X117364000Y-60640000D03*
D22*
G04 #@! TO.P,J2,1*
G04 #@! TO.N,VCC*
X117364000Y-55140000D03*
G04 #@! TD*
D23*
G04 #@! TO.P,R1,2*
G04 #@! TO.N,Net-(R1-Pad2)*
X121924000Y-70800000D03*
G04 #@! TO.P,R1,1*
G04 #@! TO.N,VCC*
X120424000Y-70800000D03*
G04 #@! TD*
G04 #@! TO.P,R2,1*
G04 #@! TO.N,VCC*
X118864000Y-68260000D03*
G04 #@! TO.P,R2,2*
G04 #@! TO.N,Net-(R2-Pad2)*
X117364000Y-68260000D03*
G04 #@! TD*
D24*
G04 #@! TO.P,R7,2*
G04 #@! TO.N,VCC*
X133874000Y-66990000D03*
G04 #@! TO.P,R7,1*
G04 #@! TO.N,Net-(IC1-Pad8)*
X133874000Y-68490000D03*
G04 #@! TD*
D11*
G04 #@! TO.P,J1,8*
G04 #@! TO.N,Net-(J1-Pad8)*
X171974000Y-79690000D03*
G04 #@! TO.P,J1,7*
G04 #@! TO.N,Net-(J1-Pad7)*
X169434000Y-79690000D03*
G04 #@! TO.P,J1,6*
G04 #@! TO.N,Net-(J1-Pad6)*
X171974000Y-77150000D03*
G04 #@! TO.P,J1,5*
G04 #@! TO.N,Net-(J1-Pad5)*
X169434000Y-77150000D03*
G04 #@! TO.P,J1,4*
G04 #@! TO.N,Net-(J1-Pad4)*
X171974000Y-74610000D03*
G04 #@! TO.P,J1,3*
G04 #@! TO.N,Net-(J1-Pad3)*
X169434000Y-74610000D03*
G04 #@! TO.P,J1,2*
G04 #@! TO.N,Net-(J1-Pad2)*
X171974000Y-72070000D03*
D12*
G04 #@! TO.P,J1,1*
G04 #@! TO.N,Net-(J1-Pad1)*
X169434000Y-72070000D03*
G04 #@! TD*
D25*
G04 #@! TO.P,U1,1*
G04 #@! TO.N,GND*
X142814000Y-54050000D03*
G04 #@! TO.P,U1,3*
G04 #@! TO.N,VCC*
X142814000Y-49450000D03*
G04 #@! TO.P,U1,2*
G04 #@! TO.N,+3V3*
X142814000Y-51750000D03*
D26*
X149114000Y-51750000D03*
G04 #@! TD*
D17*
G04 #@! TO.P,C6,1*
G04 #@! TO.N,+3V3*
X126254000Y-46924000D03*
G04 #@! TO.P,C6,2*
G04 #@! TO.N,GND*
X127754000Y-46924000D03*
G04 #@! TD*
D10*
G04 #@! TO.P,REF\002A\002A,1*
G04 #@! TO.N,N/C*
X111734000Y-38820000D03*
G04 #@! TD*
D27*
G04 #@! TO.N,VCC*
X133874000Y-47305000D03*
X124984000Y-66990000D03*
X131969000Y-66990000D03*
X175784000Y-69403000D03*
X168418000Y-69403000D03*
X160798000Y-69403000D03*
X160798000Y-75880000D03*
X160798000Y-81087000D03*
X162449000Y-86294000D03*
X168418000Y-87310000D03*
X176292000Y-87310000D03*
X120412000Y-72070000D03*
G04 #@! TO.N,GND*
X117364000Y-79690000D03*
G04 #@! TO.N,/DATA*
X122444000Y-73340000D03*
G04 #@! TO.N,Net-(R1-Pad2)*
X122444000Y-69530000D03*
G04 #@! TO.N,Net-(R2-Pad2)*
X116094000Y-66990000D03*
G04 #@! TD*
D28*
G04 #@! TO.N,VCC*
X138509000Y-49450000D02*
X137684000Y-48625000D01*
X142814000Y-49450000D02*
X138509000Y-49450000D01*
X135194000Y-48625000D02*
X137684000Y-48625000D01*
X133874000Y-47305000D02*
X135194000Y-48625000D01*
D29*
X118864000Y-68960000D02*
X118864000Y-68260000D01*
X118864000Y-69740000D02*
X118864000Y-68960000D01*
X119924000Y-70800000D02*
X118864000Y-69740000D01*
X120424000Y-70800000D02*
X119924000Y-70800000D01*
X124984000Y-66990000D02*
X123079000Y-66990000D01*
X121924000Y-67635000D02*
X122569000Y-66990000D01*
X122569000Y-66990000D02*
X123079000Y-66990000D01*
X121924000Y-68260000D02*
X121924000Y-67635000D01*
X149114000Y-75130000D02*
X149114000Y-72070000D01*
X133874000Y-66990000D02*
X131969000Y-66990000D01*
D28*
X175784000Y-69403000D02*
X168418000Y-69403000D01*
X168418000Y-69403000D02*
X160798000Y-69403000D01*
X160798000Y-69403000D02*
X160798000Y-75880000D01*
X160798000Y-75880000D02*
X160798000Y-81087000D01*
X160798000Y-81087000D02*
X160798000Y-84643000D01*
X160798000Y-84643000D02*
X162449000Y-86294000D01*
X162449000Y-86294000D02*
X162748999Y-86593999D01*
X162748999Y-86593999D02*
X163465000Y-87310000D01*
X163465000Y-87310000D02*
X168418000Y-87310000D01*
X168418000Y-87310000D02*
X176292000Y-87310000D01*
D29*
X120424000Y-70800000D02*
X120424000Y-72058000D01*
X120424000Y-72058000D02*
X120412000Y-72070000D01*
G04 #@! TO.N,GND*
X149114000Y-76630000D02*
X149114000Y-79690000D01*
G04 #@! TO.N,Net-(IC1-Pad8)*
X133874000Y-68490000D02*
X133874000Y-72070000D01*
G04 #@! TO.N,/DOUT*
X146574000Y-79690000D02*
X146574000Y-80960000D01*
X146574000Y-80960000D02*
X145304000Y-82230000D01*
X145304000Y-82230000D02*
X129556000Y-82230000D01*
X128794000Y-82992000D02*
X128794000Y-85024000D01*
X129556000Y-82230000D02*
X128794000Y-82992000D01*
D28*
G04 #@! TO.N,+3V3*
X151809000Y-48625000D02*
X153559000Y-48625000D01*
X147439000Y-48625000D02*
X151809000Y-48625000D01*
X144314000Y-51750000D02*
X147439000Y-48625000D01*
X142814000Y-51750000D02*
X144314000Y-51750000D01*
X153559000Y-48625000D02*
X162499000Y-48625000D01*
X169434000Y-55560000D02*
X169434000Y-59370000D01*
X135144000Y-51750000D02*
X142814000Y-51750000D01*
X149114000Y-51750000D02*
X153432000Y-51750000D01*
X153559000Y-51623000D02*
X153559000Y-48625000D01*
X153432000Y-51750000D02*
X153559000Y-51623000D01*
X169458000Y-55560000D02*
X169458000Y-54314000D01*
X163769000Y-48625000D02*
X162499000Y-48625000D01*
X169458000Y-54314000D02*
X163769000Y-48625000D01*
X126203200Y-46873200D02*
X126254000Y-46924000D01*
X126203200Y-44130000D02*
X126203200Y-46873200D01*
X126254000Y-47799000D02*
X126649000Y-48194000D01*
X126254000Y-46924000D02*
X126254000Y-47799000D01*
X131588000Y-48194000D02*
X135144000Y-51750000D01*
X126649000Y-48194000D02*
X131588000Y-48194000D01*
D29*
G04 #@! TO.N,/DATA*
X145304000Y-73340000D02*
X146574000Y-72070000D01*
X122444000Y-73340000D02*
X145304000Y-73340000D01*
G04 #@! TO.N,Net-(R1-Pad2)*
X121924000Y-70800000D02*
X121924000Y-70050000D01*
X121924000Y-70050000D02*
X122444000Y-69530000D01*
G04 #@! TO.N,Net-(R2-Pad2)*
X116094000Y-66990000D02*
X117364000Y-68260000D01*
G04 #@! TO.N,Net-(U2-Pad11)*
X151654000Y-59631400D02*
X151654000Y-59370000D01*
G04 #@! TO.N,Net-(U2-Pad12)*
X154194000Y-59631400D02*
X154194000Y-59370000D01*
G04 #@! TD*
D30*
G04 #@! TO.N,GND*
G36*
X182394809Y-35600776D02*
X183028631Y-35799404D01*
X183609562Y-36121418D01*
X184113879Y-36553670D01*
X184520981Y-37078503D01*
X184814234Y-37674473D01*
X184983868Y-38325707D01*
X185024000Y-38847269D01*
X185024001Y-93784026D01*
X184953224Y-94480812D01*
X184754596Y-95114631D01*
X184432582Y-95695561D01*
X184000329Y-96199879D01*
X183475497Y-96606981D01*
X182879532Y-96900232D01*
X182228297Y-97069867D01*
X181706731Y-97110000D01*
X111769964Y-97110000D01*
X111073188Y-97039224D01*
X110439369Y-96840596D01*
X109858439Y-96518582D01*
X109354121Y-96086329D01*
X108947019Y-95561497D01*
X108653768Y-94965532D01*
X108484133Y-94314297D01*
X108444000Y-93792731D01*
X108444000Y-93289501D01*
X109067000Y-93289501D01*
X109067000Y-94350499D01*
X109473026Y-95330734D01*
X110223266Y-96080974D01*
X111203501Y-96487000D01*
X112264499Y-96487000D01*
X113244734Y-96080974D01*
X113994974Y-95330734D01*
X114401000Y-94350499D01*
X114401000Y-93289501D01*
X179067000Y-93289501D01*
X179067000Y-94350499D01*
X179473026Y-95330734D01*
X180223266Y-96080974D01*
X181203501Y-96487000D01*
X182264499Y-96487000D01*
X183244734Y-96080974D01*
X183994974Y-95330734D01*
X184401000Y-94350499D01*
X184401000Y-93289501D01*
X183994974Y-92309266D01*
X183244734Y-91559026D01*
X182264499Y-91153000D01*
X181203501Y-91153000D01*
X180223266Y-91559026D01*
X179473026Y-92309266D01*
X179067000Y-93289501D01*
X114401000Y-93289501D01*
X113994974Y-92309266D01*
X113244734Y-91559026D01*
X112264499Y-91153000D01*
X111203501Y-91153000D01*
X110223266Y-91559026D01*
X109473026Y-92309266D01*
X109067000Y-93289501D01*
X108444000Y-93289501D01*
X108444000Y-85380892D01*
X124812514Y-85380892D01*
X125058817Y-85905358D01*
X125487076Y-86295645D01*
X125897110Y-86465476D01*
X126127000Y-86344155D01*
X126127000Y-85151000D01*
X124933181Y-85151000D01*
X124812514Y-85380892D01*
X108444000Y-85380892D01*
X108444000Y-84667108D01*
X124812514Y-84667108D01*
X124933181Y-84897000D01*
X126127000Y-84897000D01*
X126127000Y-83703845D01*
X126381000Y-83703845D01*
X126381000Y-84897000D01*
X126401000Y-84897000D01*
X126401000Y-85151000D01*
X126381000Y-85151000D01*
X126381000Y-86344155D01*
X126610890Y-86465476D01*
X127020924Y-86295645D01*
X127449183Y-85905358D01*
X127510157Y-85775522D01*
X127723375Y-86094625D01*
X128214582Y-86422839D01*
X128647744Y-86509000D01*
X128940256Y-86509000D01*
X129373418Y-86422839D01*
X129864625Y-86094625D01*
X130064000Y-85796239D01*
X130263375Y-86094625D01*
X130754582Y-86422839D01*
X131187744Y-86509000D01*
X131480256Y-86509000D01*
X131913418Y-86422839D01*
X132404625Y-86094625D01*
X132604000Y-85796239D01*
X132803375Y-86094625D01*
X133294582Y-86422839D01*
X133727744Y-86509000D01*
X134020256Y-86509000D01*
X134453418Y-86422839D01*
X134944625Y-86094625D01*
X134956816Y-86076381D01*
X134965843Y-86121765D01*
X135106191Y-86331809D01*
X135316235Y-86472157D01*
X135564000Y-86521440D01*
X137264000Y-86521440D01*
X137511765Y-86472157D01*
X137721809Y-86331809D01*
X137862157Y-86121765D01*
X137911440Y-85874000D01*
X137911440Y-84174000D01*
X137862157Y-83926235D01*
X137721809Y-83716191D01*
X137511765Y-83575843D01*
X137264000Y-83526560D01*
X135564000Y-83526560D01*
X135316235Y-83575843D01*
X135106191Y-83716191D01*
X134965843Y-83926235D01*
X134956816Y-83971619D01*
X134944625Y-83953375D01*
X134453418Y-83625161D01*
X134020256Y-83539000D01*
X133727744Y-83539000D01*
X133294582Y-83625161D01*
X132803375Y-83953375D01*
X132604000Y-84251761D01*
X132404625Y-83953375D01*
X131913418Y-83625161D01*
X131480256Y-83539000D01*
X131187744Y-83539000D01*
X130754582Y-83625161D01*
X130263375Y-83953375D01*
X130064000Y-84251761D01*
X129864625Y-83953375D01*
X129554000Y-83745822D01*
X129554000Y-83306801D01*
X129870802Y-82990000D01*
X145229153Y-82990000D01*
X145304000Y-83004888D01*
X145378847Y-82990000D01*
X145378852Y-82990000D01*
X145600537Y-82945904D01*
X145851929Y-82777929D01*
X145894331Y-82714470D01*
X147058473Y-81550329D01*
X147121929Y-81507929D01*
X147289904Y-81256537D01*
X147334000Y-81034852D01*
X147334000Y-81034848D01*
X147348888Y-80960001D01*
X147338019Y-80905358D01*
X147608577Y-80724577D01*
X147864947Y-80340892D01*
X147961611Y-80545134D01*
X148376577Y-80921041D01*
X148764961Y-81081904D01*
X148987000Y-80959915D01*
X148987000Y-79817000D01*
X148967000Y-79817000D01*
X148967000Y-79563000D01*
X148987000Y-79563000D01*
X148987000Y-78420085D01*
X149241000Y-78420085D01*
X149241000Y-79563000D01*
X149261000Y-79563000D01*
X149261000Y-79817000D01*
X149241000Y-79817000D01*
X149241000Y-80959915D01*
X149463039Y-81081904D01*
X149851423Y-80921041D01*
X150266389Y-80545134D01*
X150363053Y-80340892D01*
X150619423Y-80724577D01*
X151094091Y-81041740D01*
X151512667Y-81125000D01*
X151795333Y-81125000D01*
X152213909Y-81041740D01*
X152688577Y-80724577D01*
X153005740Y-80249909D01*
X153117113Y-79690000D01*
X153005740Y-79130091D01*
X152688577Y-78655423D01*
X152213909Y-78338260D01*
X151795333Y-78255000D01*
X151512667Y-78255000D01*
X151094091Y-78338260D01*
X150619423Y-78655423D01*
X150363053Y-79039108D01*
X150266389Y-78834866D01*
X149851423Y-78458959D01*
X149463039Y-78298096D01*
X149241000Y-78420085D01*
X148987000Y-78420085D01*
X148764961Y-78298096D01*
X148376577Y-78458959D01*
X147961611Y-78834866D01*
X147864947Y-79039108D01*
X147608577Y-78655423D01*
X147133909Y-78338260D01*
X146715333Y-78255000D01*
X146432667Y-78255000D01*
X146014091Y-78338260D01*
X145539423Y-78655423D01*
X145304000Y-79007758D01*
X145068577Y-78655423D01*
X144593909Y-78338260D01*
X144175333Y-78255000D01*
X143892667Y-78255000D01*
X143474091Y-78338260D01*
X142999423Y-78655423D01*
X142764000Y-79007758D01*
X142528577Y-78655423D01*
X142053909Y-78338260D01*
X141635333Y-78255000D01*
X141352667Y-78255000D01*
X140934091Y-78338260D01*
X140459423Y-78655423D01*
X140224000Y-79007758D01*
X139988577Y-78655423D01*
X139513909Y-78338260D01*
X139095333Y-78255000D01*
X138812667Y-78255000D01*
X138394091Y-78338260D01*
X137919423Y-78655423D01*
X137684000Y-79007758D01*
X137448577Y-78655423D01*
X136973909Y-78338260D01*
X136555333Y-78255000D01*
X136272667Y-78255000D01*
X135854091Y-78338260D01*
X135379423Y-78655423D01*
X135144000Y-79007758D01*
X134908577Y-78655423D01*
X134433909Y-78338260D01*
X134015333Y-78255000D01*
X133732667Y-78255000D01*
X133314091Y-78338260D01*
X132839423Y-78655423D01*
X132604000Y-79007758D01*
X132368577Y-78655423D01*
X131893909Y-78338260D01*
X131475333Y-78255000D01*
X131192667Y-78255000D01*
X130774091Y-78338260D01*
X130299423Y-78655423D01*
X130043053Y-79039108D01*
X129946389Y-78834866D01*
X129531423Y-78458959D01*
X129143039Y-78298096D01*
X128921000Y-78420085D01*
X128921000Y-79563000D01*
X128941000Y-79563000D01*
X128941000Y-79817000D01*
X128921000Y-79817000D01*
X128921000Y-80959915D01*
X129143039Y-81081904D01*
X129531423Y-80921041D01*
X129946389Y-80545134D01*
X130043053Y-80340892D01*
X130299423Y-80724577D01*
X130774091Y-81041740D01*
X131192667Y-81125000D01*
X131475333Y-81125000D01*
X131893909Y-81041740D01*
X132368577Y-80724577D01*
X132604000Y-80372242D01*
X132839423Y-80724577D01*
X133314091Y-81041740D01*
X133732667Y-81125000D01*
X134015333Y-81125000D01*
X134433909Y-81041740D01*
X134908577Y-80724577D01*
X135144000Y-80372242D01*
X135379423Y-80724577D01*
X135854091Y-81041740D01*
X136272667Y-81125000D01*
X136555333Y-81125000D01*
X136973909Y-81041740D01*
X137448577Y-80724577D01*
X137684000Y-80372242D01*
X137919423Y-80724577D01*
X138394091Y-81041740D01*
X138812667Y-81125000D01*
X139095333Y-81125000D01*
X139513909Y-81041740D01*
X139988577Y-80724577D01*
X140224000Y-80372242D01*
X140459423Y-80724577D01*
X140934091Y-81041740D01*
X141352667Y-81125000D01*
X141635333Y-81125000D01*
X142053909Y-81041740D01*
X142528577Y-80724577D01*
X142764000Y-80372242D01*
X142999423Y-80724577D01*
X143474091Y-81041740D01*
X143892667Y-81125000D01*
X144175333Y-81125000D01*
X144593909Y-81041740D01*
X145068577Y-80724577D01*
X145304000Y-80372242D01*
X145539423Y-80724577D01*
X145656436Y-80802762D01*
X144989199Y-81470000D01*
X129630848Y-81470000D01*
X129556000Y-81455112D01*
X129481152Y-81470000D01*
X129481148Y-81470000D01*
X129307605Y-81504520D01*
X129259462Y-81514096D01*
X129106003Y-81616635D01*
X129008071Y-81682071D01*
X128965671Y-81745527D01*
X128309530Y-82401669D01*
X128246071Y-82444071D01*
X128078096Y-82695464D01*
X128034000Y-82917149D01*
X128034000Y-82917153D01*
X128019112Y-82992000D01*
X128034000Y-83066847D01*
X128034000Y-83745822D01*
X127723375Y-83953375D01*
X127510157Y-84272478D01*
X127449183Y-84142642D01*
X127020924Y-83752355D01*
X126610890Y-83582524D01*
X126381000Y-83703845D01*
X126127000Y-83703845D01*
X125897110Y-83582524D01*
X125487076Y-83752355D01*
X125058817Y-84142642D01*
X124812514Y-84667108D01*
X108444000Y-84667108D01*
X108444000Y-80039041D01*
X127402086Y-80039041D01*
X127641611Y-80545134D01*
X128056577Y-80921041D01*
X128444961Y-81081904D01*
X128667000Y-80959915D01*
X128667000Y-79817000D01*
X127523371Y-79817000D01*
X127402086Y-80039041D01*
X108444000Y-80039041D01*
X108444000Y-79340959D01*
X127402086Y-79340959D01*
X127523371Y-79563000D01*
X128667000Y-79563000D01*
X128667000Y-78420085D01*
X128444961Y-78298096D01*
X128056577Y-78458959D01*
X127641611Y-78834866D01*
X127402086Y-79340959D01*
X108444000Y-79340959D01*
X108444000Y-76915750D01*
X148104000Y-76915750D01*
X148104000Y-77156309D01*
X148200673Y-77389698D01*
X148379301Y-77568327D01*
X148612690Y-77665000D01*
X148828250Y-77665000D01*
X148987000Y-77506250D01*
X148987000Y-76757000D01*
X149241000Y-76757000D01*
X149241000Y-77506250D01*
X149399750Y-77665000D01*
X149615310Y-77665000D01*
X149848699Y-77568327D01*
X150027327Y-77389698D01*
X150124000Y-77156309D01*
X150124000Y-76915750D01*
X149965250Y-76757000D01*
X149241000Y-76757000D01*
X148987000Y-76757000D01*
X148262750Y-76757000D01*
X148104000Y-76915750D01*
X108444000Y-76915750D01*
X108444000Y-73154017D01*
X121509000Y-73154017D01*
X121509000Y-73525983D01*
X121651345Y-73869635D01*
X121914365Y-74132655D01*
X122258017Y-74275000D01*
X122629983Y-74275000D01*
X122973635Y-74132655D01*
X123006290Y-74100000D01*
X145229153Y-74100000D01*
X145304000Y-74114888D01*
X145378847Y-74100000D01*
X145378852Y-74100000D01*
X145600537Y-74055904D01*
X145851929Y-73887929D01*
X145894331Y-73824470D01*
X146250114Y-73468688D01*
X146432667Y-73505000D01*
X146715333Y-73505000D01*
X147133909Y-73421740D01*
X147608577Y-73104577D01*
X147844000Y-72752242D01*
X148079423Y-73104577D01*
X148354001Y-73288044D01*
X148354000Y-74223541D01*
X148281191Y-74272191D01*
X148140843Y-74482235D01*
X148091560Y-74730000D01*
X148091560Y-75530000D01*
X148140843Y-75777765D01*
X148201873Y-75869102D01*
X148200673Y-75870302D01*
X148104000Y-76103691D01*
X148104000Y-76344250D01*
X148262750Y-76503000D01*
X148987000Y-76503000D01*
X148987000Y-76483000D01*
X149241000Y-76483000D01*
X149241000Y-76503000D01*
X149965250Y-76503000D01*
X150124000Y-76344250D01*
X150124000Y-76103691D01*
X150027327Y-75870302D01*
X150026127Y-75869102D01*
X150087157Y-75777765D01*
X150136440Y-75530000D01*
X150136440Y-74730000D01*
X150087157Y-74482235D01*
X149946809Y-74272191D01*
X149874000Y-74223541D01*
X149874000Y-73288043D01*
X150148577Y-73104577D01*
X150229215Y-72983894D01*
X150255843Y-73117765D01*
X150396191Y-73327809D01*
X150606235Y-73468157D01*
X150854000Y-73517440D01*
X152454000Y-73517440D01*
X152701765Y-73468157D01*
X152911809Y-73327809D01*
X153052157Y-73117765D01*
X153101440Y-72870000D01*
X153101440Y-71270000D01*
X153052157Y-71022235D01*
X152911809Y-70812191D01*
X152701765Y-70671843D01*
X152454000Y-70622560D01*
X150854000Y-70622560D01*
X150606235Y-70671843D01*
X150396191Y-70812191D01*
X150255843Y-71022235D01*
X150229215Y-71156106D01*
X150148577Y-71035423D01*
X149673909Y-70718260D01*
X149255333Y-70635000D01*
X148972667Y-70635000D01*
X148554091Y-70718260D01*
X148079423Y-71035423D01*
X147844000Y-71387758D01*
X147608577Y-71035423D01*
X147133909Y-70718260D01*
X146715333Y-70635000D01*
X146432667Y-70635000D01*
X146014091Y-70718260D01*
X145539423Y-71035423D01*
X145304000Y-71387758D01*
X145068577Y-71035423D01*
X144593909Y-70718260D01*
X144175333Y-70635000D01*
X143892667Y-70635000D01*
X143474091Y-70718260D01*
X142999423Y-71035423D01*
X142764000Y-71387758D01*
X142528577Y-71035423D01*
X142053909Y-70718260D01*
X141635333Y-70635000D01*
X141352667Y-70635000D01*
X140934091Y-70718260D01*
X140459423Y-71035423D01*
X140224000Y-71387758D01*
X139988577Y-71035423D01*
X139513909Y-70718260D01*
X139095333Y-70635000D01*
X138812667Y-70635000D01*
X138394091Y-70718260D01*
X137919423Y-71035423D01*
X137684000Y-71387758D01*
X137448577Y-71035423D01*
X136973909Y-70718260D01*
X136555333Y-70635000D01*
X136272667Y-70635000D01*
X135854091Y-70718260D01*
X135379423Y-71035423D01*
X135144000Y-71387758D01*
X134908577Y-71035423D01*
X134634000Y-70851957D01*
X134634000Y-69296573D01*
X134753062Y-69217017D01*
X159863000Y-69217017D01*
X159863000Y-69588983D01*
X159913000Y-69709694D01*
X159913001Y-75573304D01*
X159863000Y-75694017D01*
X159863000Y-76065983D01*
X159913000Y-76186694D01*
X159913001Y-80780304D01*
X159863000Y-80901017D01*
X159863000Y-81272983D01*
X159913000Y-81393694D01*
X159913001Y-84555835D01*
X159895663Y-84643000D01*
X159964348Y-84988309D01*
X160110576Y-85207154D01*
X160110578Y-85207156D01*
X160159952Y-85281049D01*
X160233845Y-85330423D01*
X161606345Y-86702924D01*
X161656345Y-86823635D01*
X161919365Y-87086655D01*
X162040078Y-87136656D01*
X162061575Y-87158153D01*
X162777577Y-87874156D01*
X162826951Y-87948049D01*
X162900844Y-87997423D01*
X162900845Y-87997424D01*
X163011880Y-88071615D01*
X163119690Y-88143652D01*
X163377835Y-88195000D01*
X163377839Y-88195000D01*
X163464999Y-88212337D01*
X163552159Y-88195000D01*
X168111306Y-88195000D01*
X168232017Y-88245000D01*
X168603983Y-88245000D01*
X168724694Y-88195000D01*
X175985306Y-88195000D01*
X176106017Y-88245000D01*
X176477983Y-88245000D01*
X176821635Y-88102655D01*
X177084655Y-87839635D01*
X177227000Y-87495983D01*
X177227000Y-87124017D01*
X177084655Y-86780365D01*
X176821635Y-86517345D01*
X176477983Y-86375000D01*
X176106017Y-86375000D01*
X175985306Y-86425000D01*
X168724694Y-86425000D01*
X168603983Y-86375000D01*
X168232017Y-86375000D01*
X168111306Y-86425000D01*
X163831579Y-86425000D01*
X163313153Y-85906575D01*
X163291656Y-85885078D01*
X163241655Y-85764365D01*
X162978635Y-85501345D01*
X162857924Y-85451345D01*
X161683000Y-84276422D01*
X161683000Y-81393694D01*
X161733000Y-81272983D01*
X161733000Y-80901017D01*
X161683000Y-80780306D01*
X161683000Y-76186694D01*
X161733000Y-76065983D01*
X161733000Y-75694017D01*
X161683000Y-75573306D01*
X161683000Y-74610000D01*
X167919908Y-74610000D01*
X168035161Y-75189418D01*
X168363375Y-75680625D01*
X168661761Y-75880000D01*
X168363375Y-76079375D01*
X168035161Y-76570582D01*
X167919908Y-77150000D01*
X168035161Y-77729418D01*
X168363375Y-78220625D01*
X168661761Y-78420000D01*
X168363375Y-78619375D01*
X168035161Y-79110582D01*
X167919908Y-79690000D01*
X168035161Y-80269418D01*
X168363375Y-80760625D01*
X168854582Y-81088839D01*
X169287744Y-81175000D01*
X169580256Y-81175000D01*
X170013418Y-81088839D01*
X170504625Y-80760625D01*
X170704000Y-80462239D01*
X170903375Y-80760625D01*
X171394582Y-81088839D01*
X171827744Y-81175000D01*
X172120256Y-81175000D01*
X172553418Y-81088839D01*
X173044625Y-80760625D01*
X173372839Y-80269418D01*
X173488092Y-79690000D01*
X173372839Y-79110582D01*
X173044625Y-78619375D01*
X172746239Y-78420000D01*
X173044625Y-78220625D01*
X173372839Y-77729418D01*
X173488092Y-77150000D01*
X173372839Y-76570582D01*
X173044625Y-76079375D01*
X172746239Y-75880000D01*
X173044625Y-75680625D01*
X173372839Y-75189418D01*
X173488092Y-74610000D01*
X173372839Y-74030582D01*
X173044625Y-73539375D01*
X172746239Y-73340000D01*
X173044625Y-73140625D01*
X173372839Y-72649418D01*
X173488092Y-72070000D01*
X173372839Y-71490582D01*
X173044625Y-70999375D01*
X172553418Y-70671161D01*
X172120256Y-70585000D01*
X171827744Y-70585000D01*
X171394582Y-70671161D01*
X170903375Y-70999375D01*
X170891184Y-71017619D01*
X170882157Y-70972235D01*
X170741809Y-70762191D01*
X170531765Y-70621843D01*
X170284000Y-70572560D01*
X168584000Y-70572560D01*
X168336235Y-70621843D01*
X168126191Y-70762191D01*
X167985843Y-70972235D01*
X167936560Y-71220000D01*
X167936560Y-72920000D01*
X167985843Y-73167765D01*
X168126191Y-73377809D01*
X168336235Y-73518157D01*
X168381619Y-73527184D01*
X168363375Y-73539375D01*
X168035161Y-74030582D01*
X167919908Y-74610000D01*
X161683000Y-74610000D01*
X161683000Y-70288000D01*
X168111306Y-70288000D01*
X168232017Y-70338000D01*
X168603983Y-70338000D01*
X168724694Y-70288000D01*
X175477306Y-70288000D01*
X175598017Y-70338000D01*
X175969983Y-70338000D01*
X176313635Y-70195655D01*
X176576655Y-69932635D01*
X176719000Y-69588983D01*
X176719000Y-69217017D01*
X176576655Y-68873365D01*
X176313635Y-68610345D01*
X175969983Y-68468000D01*
X175598017Y-68468000D01*
X175477306Y-68518000D01*
X168724694Y-68518000D01*
X168603983Y-68468000D01*
X168232017Y-68468000D01*
X168111306Y-68518000D01*
X161104694Y-68518000D01*
X160983983Y-68468000D01*
X160612017Y-68468000D01*
X160268365Y-68610345D01*
X160005345Y-68873365D01*
X159863000Y-69217017D01*
X134753062Y-69217017D01*
X134781809Y-69197809D01*
X134922157Y-68987765D01*
X134971440Y-68740000D01*
X134971440Y-68240000D01*
X134922157Y-67992235D01*
X134781809Y-67782191D01*
X134718666Y-67740000D01*
X134781809Y-67697809D01*
X134922157Y-67487765D01*
X134971440Y-67240000D01*
X134971440Y-66740000D01*
X134922157Y-66492235D01*
X134781809Y-66282191D01*
X134571765Y-66141843D01*
X134324000Y-66092560D01*
X133424000Y-66092560D01*
X133176235Y-66141843D01*
X133044300Y-66230000D01*
X132531290Y-66230000D01*
X132498635Y-66197345D01*
X132154983Y-66055000D01*
X131783017Y-66055000D01*
X131439365Y-66197345D01*
X131176345Y-66460365D01*
X131034000Y-66804017D01*
X131034000Y-67175983D01*
X131176345Y-67519635D01*
X131439365Y-67782655D01*
X131783017Y-67925000D01*
X132154983Y-67925000D01*
X132498635Y-67782655D01*
X132531290Y-67750000D01*
X133014368Y-67750000D01*
X132966191Y-67782191D01*
X132825843Y-67992235D01*
X132776560Y-68240000D01*
X132776560Y-68740000D01*
X132825843Y-68987765D01*
X132966191Y-69197809D01*
X133114000Y-69296573D01*
X133114001Y-70851956D01*
X132839423Y-71035423D01*
X132583053Y-71419108D01*
X132486389Y-71214866D01*
X132071423Y-70838959D01*
X131683039Y-70678096D01*
X131461000Y-70800085D01*
X131461000Y-71943000D01*
X131481000Y-71943000D01*
X131481000Y-72197000D01*
X131461000Y-72197000D01*
X131461000Y-72217000D01*
X131207000Y-72217000D01*
X131207000Y-72197000D01*
X128921000Y-72197000D01*
X128921000Y-72217000D01*
X128667000Y-72217000D01*
X128667000Y-72197000D01*
X127523371Y-72197000D01*
X127402086Y-72419041D01*
X127478265Y-72580000D01*
X123006290Y-72580000D01*
X122973635Y-72547345D01*
X122629983Y-72405000D01*
X122258017Y-72405000D01*
X121914365Y-72547345D01*
X121651345Y-72810365D01*
X121509000Y-73154017D01*
X108444000Y-73154017D01*
X108444000Y-66804017D01*
X115159000Y-66804017D01*
X115159000Y-67175983D01*
X115301345Y-67519635D01*
X115564365Y-67782655D01*
X115908017Y-67925000D01*
X115954199Y-67925000D01*
X116466560Y-68437362D01*
X116466560Y-68710000D01*
X116515843Y-68957765D01*
X116656191Y-69167809D01*
X116866235Y-69308157D01*
X117114000Y-69357440D01*
X117614000Y-69357440D01*
X117861765Y-69308157D01*
X118071809Y-69167809D01*
X118104000Y-69119632D01*
X118104000Y-69665153D01*
X118089112Y-69740000D01*
X118104000Y-69814847D01*
X118104000Y-69814851D01*
X118148096Y-70036536D01*
X118316071Y-70287929D01*
X118379529Y-70330331D01*
X119333673Y-71284475D01*
X119376071Y-71347929D01*
X119439524Y-71390327D01*
X119439526Y-71390329D01*
X119555277Y-71467671D01*
X119572092Y-71478906D01*
X119575843Y-71497765D01*
X119613590Y-71554258D01*
X119477000Y-71884017D01*
X119477000Y-72255983D01*
X119619345Y-72599635D01*
X119882365Y-72862655D01*
X120226017Y-73005000D01*
X120597983Y-73005000D01*
X120941635Y-72862655D01*
X121204655Y-72599635D01*
X121347000Y-72255983D01*
X121347000Y-71884017D01*
X121296140Y-71761230D01*
X121426235Y-71848157D01*
X121674000Y-71897440D01*
X122174000Y-71897440D01*
X122421765Y-71848157D01*
X122612128Y-71720959D01*
X127402086Y-71720959D01*
X127523371Y-71943000D01*
X128667000Y-71943000D01*
X128667000Y-70800085D01*
X128921000Y-70800085D01*
X128921000Y-71943000D01*
X131207000Y-71943000D01*
X131207000Y-70800085D01*
X130984961Y-70678096D01*
X130596577Y-70838959D01*
X130181611Y-71214866D01*
X130064000Y-71463367D01*
X129946389Y-71214866D01*
X129531423Y-70838959D01*
X129143039Y-70678096D01*
X128921000Y-70800085D01*
X128667000Y-70800085D01*
X128444961Y-70678096D01*
X128056577Y-70838959D01*
X127641611Y-71214866D01*
X127402086Y-71720959D01*
X122612128Y-71720959D01*
X122631809Y-71707809D01*
X122772157Y-71497765D01*
X122821440Y-71250000D01*
X122821440Y-70385696D01*
X122973635Y-70322655D01*
X123236655Y-70059635D01*
X123379000Y-69715983D01*
X123379000Y-69344017D01*
X123236655Y-69000365D01*
X122973635Y-68737345D01*
X122952799Y-68728715D01*
X122971440Y-68635000D01*
X122971440Y-67885000D01*
X122944587Y-67750000D01*
X124421710Y-67750000D01*
X124454365Y-67782655D01*
X124798017Y-67925000D01*
X125169983Y-67925000D01*
X125513635Y-67782655D01*
X125776655Y-67519635D01*
X125919000Y-67175983D01*
X125919000Y-66804017D01*
X125776655Y-66460365D01*
X125513635Y-66197345D01*
X125169983Y-66055000D01*
X124798017Y-66055000D01*
X124454365Y-66197345D01*
X124421710Y-66230000D01*
X122643848Y-66230000D01*
X122569000Y-66215112D01*
X122494152Y-66230000D01*
X122494148Y-66230000D01*
X122320605Y-66264520D01*
X122272462Y-66274096D01*
X122085418Y-66399076D01*
X122021071Y-66442071D01*
X121978671Y-66505527D01*
X121439528Y-67044671D01*
X121376072Y-67087071D01*
X121215448Y-67327460D01*
X121184898Y-67347873D01*
X121183698Y-67346673D01*
X120950309Y-67250000D01*
X120709750Y-67250000D01*
X120551000Y-67408750D01*
X120551000Y-68133000D01*
X120571000Y-68133000D01*
X120571000Y-68387000D01*
X120551000Y-68387000D01*
X120551000Y-69111250D01*
X120709750Y-69270000D01*
X120950309Y-69270000D01*
X121183698Y-69173327D01*
X121184898Y-69172127D01*
X121276235Y-69233157D01*
X121524000Y-69282440D01*
X121534506Y-69282440D01*
X121509000Y-69344017D01*
X121509000Y-69390199D01*
X121439527Y-69459671D01*
X121376072Y-69502071D01*
X121208097Y-69753463D01*
X121169331Y-69948347D01*
X121131809Y-69892191D01*
X120921765Y-69751843D01*
X120674000Y-69702560D01*
X120174000Y-69702560D01*
X119946595Y-69747793D01*
X119624000Y-69425199D01*
X119624000Y-69133025D01*
X119664302Y-69173327D01*
X119897691Y-69270000D01*
X120138250Y-69270000D01*
X120297000Y-69111250D01*
X120297000Y-68387000D01*
X120277000Y-68387000D01*
X120277000Y-68133000D01*
X120297000Y-68133000D01*
X120297000Y-67408750D01*
X120138250Y-67250000D01*
X119897691Y-67250000D01*
X119664302Y-67346673D01*
X119606646Y-67404328D01*
X119571809Y-67352191D01*
X119361765Y-67211843D01*
X119114000Y-67162560D01*
X118614000Y-67162560D01*
X118366235Y-67211843D01*
X118156191Y-67352191D01*
X118114000Y-67415334D01*
X118071809Y-67352191D01*
X117861765Y-67211843D01*
X117614000Y-67162560D01*
X117341362Y-67162560D01*
X117029000Y-66850199D01*
X117029000Y-66804017D01*
X116886655Y-66460365D01*
X116623635Y-66197345D01*
X116279983Y-66055000D01*
X115908017Y-66055000D01*
X115564365Y-66197345D01*
X115301345Y-66460365D01*
X115159000Y-66804017D01*
X108444000Y-66804017D01*
X108444000Y-62081724D01*
X116101882Y-62081724D01*
X116249455Y-62390106D01*
X117004031Y-62683405D01*
X117813409Y-62665614D01*
X118478545Y-62390106D01*
X118626118Y-62081724D01*
X117364000Y-60819605D01*
X116101882Y-62081724D01*
X108444000Y-62081724D01*
X108444000Y-60280031D01*
X115320595Y-60280031D01*
X115338386Y-61089409D01*
X115613894Y-61754545D01*
X115922276Y-61902118D01*
X117184395Y-60640000D01*
X117543605Y-60640000D01*
X118805724Y-61902118D01*
X119114106Y-61754545D01*
X119407405Y-60999969D01*
X119389614Y-60190591D01*
X119114106Y-59525455D01*
X118805724Y-59377882D01*
X117543605Y-60640000D01*
X117184395Y-60640000D01*
X115922276Y-59377882D01*
X115613894Y-59525455D01*
X115320595Y-60280031D01*
X108444000Y-60280031D01*
X108444000Y-59198276D01*
X116101882Y-59198276D01*
X117364000Y-60460395D01*
X118626118Y-59198276D01*
X118478545Y-58889894D01*
X117723969Y-58596595D01*
X116914591Y-58614386D01*
X116249455Y-58889894D01*
X116101882Y-59198276D01*
X108444000Y-59198276D01*
X108444000Y-53740000D01*
X115316560Y-53740000D01*
X115316560Y-56540000D01*
X115365843Y-56787765D01*
X115506191Y-56997809D01*
X115716235Y-57138157D01*
X115964000Y-57187440D01*
X118764000Y-57187440D01*
X119011765Y-57138157D01*
X119221809Y-56997809D01*
X119362157Y-56787765D01*
X119411440Y-56540000D01*
X119411440Y-55160750D01*
X135799000Y-55160750D01*
X135799000Y-56876309D01*
X135895673Y-57109698D01*
X136074301Y-57288327D01*
X136307690Y-57385000D01*
X137398250Y-57385000D01*
X137557000Y-57226250D01*
X137557000Y-55002000D01*
X137811000Y-55002000D01*
X137811000Y-57226250D01*
X137969750Y-57385000D01*
X139060310Y-57385000D01*
X139293699Y-57288327D01*
X139472327Y-57109698D01*
X139569000Y-56876309D01*
X139569000Y-55160750D01*
X139410250Y-55002000D01*
X137811000Y-55002000D01*
X137557000Y-55002000D01*
X135957750Y-55002000D01*
X135799000Y-55160750D01*
X119411440Y-55160750D01*
X119411440Y-53740000D01*
X119362157Y-53492235D01*
X119221809Y-53282191D01*
X119011765Y-53141843D01*
X118764000Y-53092560D01*
X115964000Y-53092560D01*
X115716235Y-53141843D01*
X115506191Y-53282191D01*
X115365843Y-53492235D01*
X115316560Y-53740000D01*
X108444000Y-53740000D01*
X108444000Y-43721002D01*
X124704600Y-43721002D01*
X124704600Y-44538997D01*
X124791550Y-44976124D01*
X125122770Y-45471830D01*
X125318201Y-45602413D01*
X125318201Y-46207911D01*
X125255843Y-46301235D01*
X125206560Y-46549000D01*
X125206560Y-47299000D01*
X125255843Y-47546765D01*
X125368345Y-47715134D01*
X125351663Y-47799000D01*
X125420348Y-48144309D01*
X125566576Y-48363154D01*
X125566578Y-48363156D01*
X125615952Y-48437049D01*
X125689845Y-48486423D01*
X125961575Y-48758153D01*
X126010951Y-48832049D01*
X126303690Y-49027652D01*
X126561835Y-49079000D01*
X126561839Y-49079000D01*
X126648999Y-49096337D01*
X126736159Y-49079000D01*
X129448370Y-49079000D01*
X128983570Y-49389570D01*
X128652350Y-49885275D01*
X128536041Y-50470000D01*
X128652350Y-51054725D01*
X128983570Y-51550430D01*
X129267281Y-51740000D01*
X128983570Y-51929570D01*
X128652350Y-52425275D01*
X128536041Y-53010000D01*
X128652350Y-53594725D01*
X128983570Y-54090430D01*
X129479275Y-54421650D01*
X129916402Y-54508600D01*
X130211598Y-54508600D01*
X130648725Y-54421650D01*
X131144430Y-54090430D01*
X131475650Y-53594725D01*
X131591959Y-53010000D01*
X131475650Y-52425275D01*
X131144430Y-51929570D01*
X130860719Y-51740000D01*
X131144430Y-51550430D01*
X131475650Y-51054725D01*
X131591959Y-50470000D01*
X131475650Y-49885275D01*
X131144430Y-49389570D01*
X130679630Y-49079000D01*
X131221422Y-49079000D01*
X134456577Y-52314156D01*
X134505951Y-52388049D01*
X134579844Y-52437423D01*
X134579845Y-52437424D01*
X134673497Y-52500000D01*
X134798690Y-52583652D01*
X135056835Y-52635000D01*
X135056839Y-52635000D01*
X135143999Y-52652337D01*
X135231159Y-52635000D01*
X135900975Y-52635000D01*
X135895673Y-52640302D01*
X135799000Y-52873691D01*
X135799000Y-54589250D01*
X135957750Y-54748000D01*
X137557000Y-54748000D01*
X137557000Y-54728000D01*
X137811000Y-54728000D01*
X137811000Y-54748000D01*
X139410250Y-54748000D01*
X139569000Y-54589250D01*
X139569000Y-54335750D01*
X141179000Y-54335750D01*
X141179000Y-54926310D01*
X141275673Y-55159699D01*
X141454302Y-55338327D01*
X141687691Y-55435000D01*
X142528250Y-55435000D01*
X142687000Y-55276250D01*
X142687000Y-54177000D01*
X142941000Y-54177000D01*
X142941000Y-55276250D01*
X143099750Y-55435000D01*
X143940309Y-55435000D01*
X144173698Y-55338327D01*
X144351275Y-55160750D01*
X151674000Y-55160750D01*
X151674000Y-56876309D01*
X151770673Y-57109698D01*
X151949301Y-57288327D01*
X152182690Y-57385000D01*
X153273250Y-57385000D01*
X153432000Y-57226250D01*
X153432000Y-55002000D01*
X153686000Y-55002000D01*
X153686000Y-57226250D01*
X153844750Y-57385000D01*
X154935310Y-57385000D01*
X155168699Y-57288327D01*
X155347327Y-57109698D01*
X155444000Y-56876309D01*
X155444000Y-55160750D01*
X155285250Y-55002000D01*
X153686000Y-55002000D01*
X153432000Y-55002000D01*
X151832750Y-55002000D01*
X151674000Y-55160750D01*
X144351275Y-55160750D01*
X144352327Y-55159699D01*
X144449000Y-54926310D01*
X144449000Y-54335750D01*
X144290250Y-54177000D01*
X142941000Y-54177000D01*
X142687000Y-54177000D01*
X141337750Y-54177000D01*
X141179000Y-54335750D01*
X139569000Y-54335750D01*
X139569000Y-52873691D01*
X139472327Y-52640302D01*
X139467025Y-52635000D01*
X141193413Y-52635000D01*
X141215843Y-52747765D01*
X141316927Y-52899047D01*
X141275673Y-52940301D01*
X141179000Y-53173690D01*
X141179000Y-53764250D01*
X141337750Y-53923000D01*
X142687000Y-53923000D01*
X142687000Y-53903000D01*
X142941000Y-53903000D01*
X142941000Y-53923000D01*
X144290250Y-53923000D01*
X144449000Y-53764250D01*
X144449000Y-53173690D01*
X144352327Y-52940301D01*
X144311073Y-52899047D01*
X144412157Y-52747765D01*
X144435964Y-52628078D01*
X144659310Y-52583652D01*
X144952049Y-52388049D01*
X145001425Y-52314153D01*
X147466804Y-49848775D01*
X147466560Y-49850000D01*
X147466560Y-53650000D01*
X147515843Y-53897765D01*
X147656191Y-54107809D01*
X147866235Y-54248157D01*
X148114000Y-54297440D01*
X150114000Y-54297440D01*
X150361765Y-54248157D01*
X150571809Y-54107809D01*
X150712157Y-53897765D01*
X150761440Y-53650000D01*
X150761440Y-52635000D01*
X151775975Y-52635000D01*
X151770673Y-52640302D01*
X151674000Y-52873691D01*
X151674000Y-54589250D01*
X151832750Y-54748000D01*
X153432000Y-54748000D01*
X153432000Y-54728000D01*
X153686000Y-54728000D01*
X153686000Y-54748000D01*
X155285250Y-54748000D01*
X155444000Y-54589250D01*
X155444000Y-52873691D01*
X155347327Y-52640302D01*
X155168699Y-52461673D01*
X154935310Y-52365000D01*
X154085450Y-52365000D01*
X154119425Y-52314153D01*
X154123154Y-52310424D01*
X154197049Y-52261049D01*
X154392652Y-51968310D01*
X154444000Y-51710165D01*
X154444000Y-51710160D01*
X154461337Y-51623001D01*
X154444000Y-51535841D01*
X154444000Y-51147440D01*
X154809000Y-51147440D01*
X155056765Y-51098157D01*
X155266809Y-50957809D01*
X155407157Y-50747765D01*
X155456440Y-50500000D01*
X155456440Y-49510000D01*
X163402422Y-49510000D01*
X168573001Y-54680580D01*
X168573001Y-54767884D01*
X168459843Y-54937235D01*
X168410560Y-55185000D01*
X168410560Y-55935000D01*
X168459843Y-56182765D01*
X168549000Y-56316197D01*
X168549001Y-57897587D01*
X168353570Y-58028170D01*
X168164000Y-58311881D01*
X167974430Y-58028170D01*
X167478724Y-57696950D01*
X166894000Y-57580641D01*
X166309275Y-57696950D01*
X165813570Y-58028170D01*
X165624000Y-58311881D01*
X165434430Y-58028170D01*
X164938724Y-57696950D01*
X164354000Y-57580641D01*
X163769275Y-57696950D01*
X163273570Y-58028170D01*
X163084000Y-58311881D01*
X162894430Y-58028170D01*
X162398724Y-57696950D01*
X161814000Y-57580641D01*
X161229275Y-57696950D01*
X160733570Y-58028170D01*
X160544000Y-58311881D01*
X160354430Y-58028170D01*
X159858724Y-57696950D01*
X159274000Y-57580641D01*
X158689275Y-57696950D01*
X158193570Y-58028170D01*
X158004000Y-58311881D01*
X157814430Y-58028170D01*
X157318724Y-57696950D01*
X156734000Y-57580641D01*
X156149275Y-57696950D01*
X155653570Y-58028170D01*
X155464000Y-58311881D01*
X155274430Y-58028170D01*
X154778724Y-57696950D01*
X154194000Y-57580641D01*
X153609275Y-57696950D01*
X153113570Y-58028170D01*
X152924000Y-58311881D01*
X152734430Y-58028170D01*
X152238724Y-57696950D01*
X151654000Y-57580641D01*
X151069275Y-57696950D01*
X150573570Y-58028170D01*
X150384000Y-58311881D01*
X150194430Y-58028170D01*
X149698724Y-57696950D01*
X149114000Y-57580641D01*
X148529275Y-57696950D01*
X148033570Y-58028170D01*
X147844000Y-58311881D01*
X147654430Y-58028170D01*
X147158724Y-57696950D01*
X146574000Y-57580641D01*
X145989275Y-57696950D01*
X145493570Y-58028170D01*
X145304000Y-58311881D01*
X145114430Y-58028170D01*
X144618724Y-57696950D01*
X144034000Y-57580641D01*
X143449275Y-57696950D01*
X142953570Y-58028170D01*
X142764000Y-58311881D01*
X142574430Y-58028170D01*
X142078724Y-57696950D01*
X141494000Y-57580641D01*
X140909275Y-57696950D01*
X140413570Y-58028170D01*
X140224000Y-58311881D01*
X140034430Y-58028170D01*
X139538724Y-57696950D01*
X138954000Y-57580641D01*
X138369275Y-57696950D01*
X137873570Y-58028170D01*
X137684000Y-58311881D01*
X137494430Y-58028170D01*
X136998724Y-57696950D01*
X136414000Y-57580641D01*
X135829275Y-57696950D01*
X135333570Y-58028170D01*
X135144000Y-58311881D01*
X134954430Y-58028170D01*
X134458724Y-57696950D01*
X133874000Y-57580641D01*
X133289275Y-57696950D01*
X132793570Y-58028170D01*
X132604000Y-58311881D01*
X132414430Y-58028170D01*
X131918724Y-57696950D01*
X131334000Y-57580641D01*
X130749275Y-57696950D01*
X130253570Y-58028170D01*
X130064000Y-58311881D01*
X129874430Y-58028170D01*
X129378724Y-57696950D01*
X128794000Y-57580641D01*
X128209275Y-57696950D01*
X127720932Y-58023251D01*
X127715757Y-57997235D01*
X127575409Y-57787191D01*
X127365365Y-57646843D01*
X127117600Y-57597560D01*
X125390400Y-57597560D01*
X125142635Y-57646843D01*
X124932591Y-57787191D01*
X124792243Y-57997235D01*
X124742960Y-58245000D01*
X124742960Y-60495000D01*
X124792243Y-60742765D01*
X124932591Y-60952809D01*
X125142635Y-61093157D01*
X125390400Y-61142440D01*
X127117600Y-61142440D01*
X127365365Y-61093157D01*
X127575409Y-60952809D01*
X127715757Y-60742765D01*
X127720932Y-60716749D01*
X128209276Y-61043050D01*
X128794000Y-61159359D01*
X129378725Y-61043050D01*
X129874430Y-60711830D01*
X130064000Y-60428119D01*
X130253570Y-60711830D01*
X130749276Y-61043050D01*
X131334000Y-61159359D01*
X131918725Y-61043050D01*
X132414430Y-60711830D01*
X132604000Y-60428119D01*
X132793570Y-60711830D01*
X133289276Y-61043050D01*
X133874000Y-61159359D01*
X134458725Y-61043050D01*
X134954430Y-60711830D01*
X135144000Y-60428119D01*
X135333570Y-60711830D01*
X135829276Y-61043050D01*
X136414000Y-61159359D01*
X136998725Y-61043050D01*
X137494430Y-60711830D01*
X137684000Y-60428119D01*
X137873570Y-60711830D01*
X138369276Y-61043050D01*
X138954000Y-61159359D01*
X139538725Y-61043050D01*
X140034430Y-60711830D01*
X140224000Y-60428119D01*
X140413570Y-60711830D01*
X140909276Y-61043050D01*
X141494000Y-61159359D01*
X142078725Y-61043050D01*
X142574430Y-60711830D01*
X142764000Y-60428119D01*
X142953570Y-60711830D01*
X143449276Y-61043050D01*
X144034000Y-61159359D01*
X144618725Y-61043050D01*
X145114430Y-60711830D01*
X145304000Y-60428119D01*
X145493570Y-60711830D01*
X145989276Y-61043050D01*
X146574000Y-61159359D01*
X147158725Y-61043050D01*
X147654430Y-60711830D01*
X147844000Y-60428119D01*
X148033570Y-60711830D01*
X148529276Y-61043050D01*
X149114000Y-61159359D01*
X149698725Y-61043050D01*
X150194430Y-60711830D01*
X150384000Y-60428119D01*
X150573570Y-60711830D01*
X151069276Y-61043050D01*
X151654000Y-61159359D01*
X152238725Y-61043050D01*
X152734430Y-60711830D01*
X152924000Y-60428119D01*
X153113570Y-60711830D01*
X153609276Y-61043050D01*
X154194000Y-61159359D01*
X154778725Y-61043050D01*
X155274430Y-60711830D01*
X155464000Y-60428119D01*
X155653570Y-60711830D01*
X156149276Y-61043050D01*
X156734000Y-61159359D01*
X157318725Y-61043050D01*
X157814430Y-60711830D01*
X158004000Y-60428119D01*
X158193570Y-60711830D01*
X158689276Y-61043050D01*
X159274000Y-61159359D01*
X159858725Y-61043050D01*
X160354430Y-60711830D01*
X160544000Y-60428119D01*
X160733570Y-60711830D01*
X161229276Y-61043050D01*
X161814000Y-61159359D01*
X162398725Y-61043050D01*
X162894430Y-60711830D01*
X163084000Y-60428119D01*
X163273570Y-60711830D01*
X163769276Y-61043050D01*
X164354000Y-61159359D01*
X164938725Y-61043050D01*
X165434430Y-60711830D01*
X165624000Y-60428119D01*
X165813570Y-60711830D01*
X166309276Y-61043050D01*
X166894000Y-61159359D01*
X167478725Y-61043050D01*
X167974430Y-60711830D01*
X168164000Y-60428119D01*
X168353570Y-60711830D01*
X168849276Y-61043050D01*
X169434000Y-61159359D01*
X170018725Y-61043050D01*
X170514430Y-60711830D01*
X170712473Y-60415439D01*
X171004132Y-60780873D01*
X171517843Y-61064527D01*
X171614974Y-61086358D01*
X171847000Y-60965217D01*
X171847000Y-59497000D01*
X172101000Y-59497000D01*
X172101000Y-60965217D01*
X172333026Y-61086358D01*
X172430157Y-61064527D01*
X172943868Y-60780873D01*
X173244000Y-60404823D01*
X173544132Y-60780873D01*
X174057843Y-61064527D01*
X174154974Y-61086358D01*
X174387000Y-60965217D01*
X174387000Y-59497000D01*
X174641000Y-59497000D01*
X174641000Y-60965217D01*
X174873026Y-61086358D01*
X174970157Y-61064527D01*
X175483868Y-60780873D01*
X175849925Y-60322222D01*
X176012600Y-59758400D01*
X176012600Y-59497000D01*
X174641000Y-59497000D01*
X174387000Y-59497000D01*
X172101000Y-59497000D01*
X171847000Y-59497000D01*
X171827000Y-59497000D01*
X171827000Y-59243000D01*
X171847000Y-59243000D01*
X171847000Y-57774783D01*
X172101000Y-57774783D01*
X172101000Y-59243000D01*
X174387000Y-59243000D01*
X174387000Y-57774783D01*
X174641000Y-57774783D01*
X174641000Y-59243000D01*
X176012600Y-59243000D01*
X176012600Y-58981600D01*
X175849925Y-58417778D01*
X175483868Y-57959127D01*
X174970157Y-57675473D01*
X174873026Y-57653642D01*
X174641000Y-57774783D01*
X174387000Y-57774783D01*
X174154974Y-57653642D01*
X174057843Y-57675473D01*
X173544132Y-57959127D01*
X173244000Y-58335177D01*
X172943868Y-57959127D01*
X172430157Y-57675473D01*
X172333026Y-57653642D01*
X172101000Y-57774783D01*
X171847000Y-57774783D01*
X171614974Y-57653642D01*
X171517843Y-57675473D01*
X171004132Y-57959127D01*
X170712473Y-58324561D01*
X170514430Y-58028170D01*
X170319000Y-57897588D01*
X170319000Y-56523322D01*
X170431691Y-56570000D01*
X170672250Y-56570000D01*
X170831000Y-56411250D01*
X170831000Y-55687000D01*
X171085000Y-55687000D01*
X171085000Y-56411250D01*
X171243750Y-56570000D01*
X171484309Y-56570000D01*
X171717698Y-56473327D01*
X171896327Y-56294699D01*
X171993000Y-56061310D01*
X171993000Y-55845750D01*
X171834250Y-55687000D01*
X171085000Y-55687000D01*
X170831000Y-55687000D01*
X170811000Y-55687000D01*
X170811000Y-55433000D01*
X170831000Y-55433000D01*
X170831000Y-54708750D01*
X171085000Y-54708750D01*
X171085000Y-55433000D01*
X171834250Y-55433000D01*
X171993000Y-55274250D01*
X171993000Y-55058690D01*
X171896327Y-54825301D01*
X171717698Y-54646673D01*
X171484309Y-54550000D01*
X171243750Y-54550000D01*
X171085000Y-54708750D01*
X170831000Y-54708750D01*
X170672250Y-54550000D01*
X170431691Y-54550000D01*
X170343000Y-54586737D01*
X170343000Y-54401161D01*
X170360337Y-54314000D01*
X170343000Y-54226839D01*
X170343000Y-54226835D01*
X170291652Y-53968690D01*
X170096049Y-53675951D01*
X170022156Y-53626577D01*
X164456425Y-48060847D01*
X164407049Y-47986951D01*
X164114310Y-47791348D01*
X163856165Y-47740000D01*
X163856161Y-47740000D01*
X163769000Y-47722663D01*
X163681839Y-47740000D01*
X155456440Y-47740000D01*
X155456440Y-46750000D01*
X155407157Y-46502235D01*
X155266809Y-46292191D01*
X155056765Y-46151843D01*
X154809000Y-46102560D01*
X152309000Y-46102560D01*
X152061235Y-46151843D01*
X151851191Y-46292191D01*
X151710843Y-46502235D01*
X151661560Y-46750000D01*
X151661560Y-47740000D01*
X147526159Y-47740000D01*
X147438999Y-47722663D01*
X147351839Y-47740000D01*
X147351835Y-47740000D01*
X147093690Y-47791348D01*
X147093688Y-47791349D01*
X147093689Y-47791349D01*
X146874845Y-47937576D01*
X146874844Y-47937577D01*
X146800951Y-47986951D01*
X146751577Y-48060844D01*
X144423951Y-50388470D01*
X144461440Y-50200000D01*
X144461440Y-48700000D01*
X144412157Y-48452235D01*
X144271809Y-48242191D01*
X144061765Y-48101843D01*
X143814000Y-48052560D01*
X141814000Y-48052560D01*
X141566235Y-48101843D01*
X141356191Y-48242191D01*
X141215843Y-48452235D01*
X141193413Y-48565000D01*
X139581440Y-48565000D01*
X139581440Y-46750000D01*
X139532157Y-46502235D01*
X139391809Y-46292191D01*
X139181765Y-46151843D01*
X138934000Y-46102560D01*
X136434000Y-46102560D01*
X136186235Y-46151843D01*
X135976191Y-46292191D01*
X135835843Y-46502235D01*
X135786560Y-46750000D01*
X135786560Y-47740000D01*
X135560579Y-47740000D01*
X134716656Y-46896077D01*
X134666655Y-46775365D01*
X134403635Y-46512345D01*
X134059983Y-46370000D01*
X133688017Y-46370000D01*
X133344365Y-46512345D01*
X133081345Y-46775365D01*
X132939000Y-47119017D01*
X132939000Y-47490983D01*
X133081345Y-47834635D01*
X133344365Y-48097655D01*
X133465077Y-48147656D01*
X134506576Y-49189155D01*
X134555951Y-49263049D01*
X134629844Y-49312423D01*
X134629845Y-49312424D01*
X134835740Y-49449999D01*
X134848690Y-49458652D01*
X135106835Y-49510000D01*
X135106839Y-49510000D01*
X135194000Y-49527337D01*
X135281161Y-49510000D01*
X135786560Y-49510000D01*
X135786560Y-50500000D01*
X135835843Y-50747765D01*
X135914178Y-50865000D01*
X135510579Y-50865000D01*
X132275424Y-47629846D01*
X132226049Y-47555951D01*
X131933310Y-47360348D01*
X131675165Y-47309000D01*
X131675161Y-47309000D01*
X131588000Y-47291663D01*
X131500839Y-47309000D01*
X128789000Y-47309000D01*
X128789000Y-47209750D01*
X128630250Y-47051000D01*
X127881000Y-47051000D01*
X127881000Y-47071000D01*
X127627000Y-47071000D01*
X127627000Y-47051000D01*
X127607000Y-47051000D01*
X127607000Y-46797000D01*
X127627000Y-46797000D01*
X127627000Y-46072750D01*
X127881000Y-46072750D01*
X127881000Y-46797000D01*
X128630250Y-46797000D01*
X128789000Y-46638250D01*
X128789000Y-46422690D01*
X128692327Y-46189301D01*
X128513698Y-46010673D01*
X128280309Y-45914000D01*
X128039750Y-45914000D01*
X127881000Y-46072750D01*
X127627000Y-46072750D01*
X127468250Y-45914000D01*
X127227691Y-45914000D01*
X127088200Y-45971779D01*
X127088200Y-45602412D01*
X127283630Y-45471830D01*
X127504822Y-45140793D01*
X127824132Y-45540873D01*
X128337843Y-45824527D01*
X128434974Y-45846358D01*
X128667000Y-45725217D01*
X128667000Y-44257000D01*
X128647000Y-44257000D01*
X128647000Y-44003000D01*
X128667000Y-44003000D01*
X128667000Y-42534783D01*
X128921000Y-42534783D01*
X128921000Y-44003000D01*
X128941000Y-44003000D01*
X128941000Y-44257000D01*
X128921000Y-44257000D01*
X128921000Y-45725217D01*
X129153026Y-45846358D01*
X129250157Y-45824527D01*
X129763868Y-45540873D01*
X130055528Y-45175438D01*
X130253570Y-45471830D01*
X130749275Y-45803050D01*
X131334000Y-45919359D01*
X131918724Y-45803050D01*
X132414430Y-45471830D01*
X132604000Y-45188119D01*
X132793570Y-45471830D01*
X133289275Y-45803050D01*
X133874000Y-45919359D01*
X134458724Y-45803050D01*
X134954430Y-45471830D01*
X135144000Y-45188119D01*
X135333570Y-45471830D01*
X135829275Y-45803050D01*
X136414000Y-45919359D01*
X136998724Y-45803050D01*
X137494430Y-45471830D01*
X137684000Y-45188119D01*
X137873570Y-45471830D01*
X138369275Y-45803050D01*
X138954000Y-45919359D01*
X139538724Y-45803050D01*
X140034430Y-45471830D01*
X140224000Y-45188119D01*
X140413570Y-45471830D01*
X140909275Y-45803050D01*
X141494000Y-45919359D01*
X142078724Y-45803050D01*
X142574430Y-45471830D01*
X142764000Y-45188119D01*
X142953570Y-45471830D01*
X143449275Y-45803050D01*
X144034000Y-45919359D01*
X144618724Y-45803050D01*
X145114430Y-45471830D01*
X145304000Y-45188119D01*
X145493570Y-45471830D01*
X145989275Y-45803050D01*
X146574000Y-45919359D01*
X147158724Y-45803050D01*
X147654430Y-45471830D01*
X147844000Y-45188119D01*
X148033570Y-45471830D01*
X148529275Y-45803050D01*
X149114000Y-45919359D01*
X149698724Y-45803050D01*
X150194430Y-45471830D01*
X150384000Y-45188119D01*
X150573570Y-45471830D01*
X151069275Y-45803050D01*
X151654000Y-45919359D01*
X152238724Y-45803050D01*
X152734430Y-45471830D01*
X152924000Y-45188119D01*
X153113570Y-45471830D01*
X153609275Y-45803050D01*
X154194000Y-45919359D01*
X154778724Y-45803050D01*
X155274430Y-45471830D01*
X155464000Y-45188119D01*
X155653570Y-45471830D01*
X156149275Y-45803050D01*
X156734000Y-45919359D01*
X157318724Y-45803050D01*
X157814430Y-45471830D01*
X158004000Y-45188119D01*
X158193570Y-45471830D01*
X158689275Y-45803050D01*
X159274000Y-45919359D01*
X159858724Y-45803050D01*
X160354430Y-45471830D01*
X160544000Y-45188119D01*
X160733570Y-45471830D01*
X161229275Y-45803050D01*
X161814000Y-45919359D01*
X162398724Y-45803050D01*
X162894430Y-45471830D01*
X163084000Y-45188119D01*
X163273570Y-45471830D01*
X163769275Y-45803050D01*
X164354000Y-45919359D01*
X164938724Y-45803050D01*
X165434430Y-45471830D01*
X165624000Y-45188119D01*
X165813570Y-45471830D01*
X166309275Y-45803050D01*
X166894000Y-45919359D01*
X167478724Y-45803050D01*
X167974430Y-45471830D01*
X168164000Y-45188119D01*
X168353570Y-45471830D01*
X168849275Y-45803050D01*
X169434000Y-45919359D01*
X170018724Y-45803050D01*
X170514430Y-45471830D01*
X170704000Y-45188119D01*
X170893570Y-45471830D01*
X171389275Y-45803050D01*
X171974000Y-45919359D01*
X172558724Y-45803050D01*
X173054430Y-45471830D01*
X173244000Y-45188119D01*
X173433570Y-45471830D01*
X173929275Y-45803050D01*
X174514000Y-45919359D01*
X175098724Y-45803050D01*
X175594430Y-45471830D01*
X175925650Y-44976125D01*
X176012600Y-44538998D01*
X176012600Y-43721003D01*
X175925650Y-43283875D01*
X175594430Y-42788170D01*
X175098725Y-42456950D01*
X174514000Y-42340641D01*
X173929276Y-42456950D01*
X173433570Y-42788170D01*
X173244000Y-43071881D01*
X173054430Y-42788170D01*
X172558725Y-42456950D01*
X171974000Y-42340641D01*
X171389276Y-42456950D01*
X170893570Y-42788170D01*
X170704000Y-43071881D01*
X170514430Y-42788170D01*
X170018725Y-42456950D01*
X169434000Y-42340641D01*
X168849276Y-42456950D01*
X168353570Y-42788170D01*
X168164000Y-43071881D01*
X167974430Y-42788170D01*
X167478725Y-42456950D01*
X166894000Y-42340641D01*
X166309276Y-42456950D01*
X165813570Y-42788170D01*
X165624000Y-43071881D01*
X165434430Y-42788170D01*
X164938725Y-42456950D01*
X164354000Y-42340641D01*
X163769276Y-42456950D01*
X163273570Y-42788170D01*
X163084000Y-43071881D01*
X162894430Y-42788170D01*
X162398725Y-42456950D01*
X161814000Y-42340641D01*
X161229276Y-42456950D01*
X160733570Y-42788170D01*
X160544000Y-43071881D01*
X160354430Y-42788170D01*
X159858725Y-42456950D01*
X159274000Y-42340641D01*
X158689276Y-42456950D01*
X158193570Y-42788170D01*
X158004000Y-43071881D01*
X157814430Y-42788170D01*
X157318725Y-42456950D01*
X156734000Y-42340641D01*
X156149276Y-42456950D01*
X155653570Y-42788170D01*
X155464000Y-43071881D01*
X155274430Y-42788170D01*
X154778725Y-42456950D01*
X154194000Y-42340641D01*
X153609276Y-42456950D01*
X153113570Y-42788170D01*
X152924000Y-43071881D01*
X152734430Y-42788170D01*
X152238725Y-42456950D01*
X151654000Y-42340641D01*
X151069276Y-42456950D01*
X150573570Y-42788170D01*
X150384000Y-43071881D01*
X150194430Y-42788170D01*
X149698725Y-42456950D01*
X149114000Y-42340641D01*
X148529276Y-42456950D01*
X148033570Y-42788170D01*
X147844000Y-43071881D01*
X147654430Y-42788170D01*
X147158725Y-42456950D01*
X146574000Y-42340641D01*
X145989276Y-42456950D01*
X145493570Y-42788170D01*
X145304000Y-43071881D01*
X145114430Y-42788170D01*
X144618725Y-42456950D01*
X144034000Y-42340641D01*
X143449276Y-42456950D01*
X142953570Y-42788170D01*
X142764000Y-43071881D01*
X142574430Y-42788170D01*
X142078725Y-42456950D01*
X141494000Y-42340641D01*
X140909276Y-42456950D01*
X140413570Y-42788170D01*
X140224000Y-43071881D01*
X140034430Y-42788170D01*
X139538725Y-42456950D01*
X138954000Y-42340641D01*
X138369276Y-42456950D01*
X137873570Y-42788170D01*
X137684000Y-43071881D01*
X137494430Y-42788170D01*
X136998725Y-42456950D01*
X136414000Y-42340641D01*
X135829276Y-42456950D01*
X135333570Y-42788170D01*
X135144000Y-43071881D01*
X134954430Y-42788170D01*
X134458725Y-42456950D01*
X133874000Y-42340641D01*
X133289276Y-42456950D01*
X132793570Y-42788170D01*
X132604000Y-43071881D01*
X132414430Y-42788170D01*
X131918725Y-42456950D01*
X131334000Y-42340641D01*
X130749276Y-42456950D01*
X130253570Y-42788170D01*
X130055527Y-43084561D01*
X129763868Y-42719127D01*
X129250157Y-42435473D01*
X129153026Y-42413642D01*
X128921000Y-42534783D01*
X128667000Y-42534783D01*
X128434974Y-42413642D01*
X128337843Y-42435473D01*
X127824132Y-42719127D01*
X127504822Y-43119207D01*
X127283630Y-42788170D01*
X126787925Y-42456950D01*
X126203200Y-42340641D01*
X125618476Y-42456950D01*
X125122770Y-42788170D01*
X124791550Y-43283875D01*
X124704600Y-43721002D01*
X108444000Y-43721002D01*
X108444000Y-38855964D01*
X108501539Y-38289501D01*
X109067000Y-38289501D01*
X109067000Y-39350499D01*
X109473026Y-40330734D01*
X110223266Y-41080974D01*
X111203501Y-41487000D01*
X112264499Y-41487000D01*
X113244734Y-41080974D01*
X113994974Y-40330734D01*
X114401000Y-39350499D01*
X114401000Y-38289501D01*
X179067000Y-38289501D01*
X179067000Y-39350499D01*
X179473026Y-40330734D01*
X180223266Y-41080974D01*
X181203501Y-41487000D01*
X182264499Y-41487000D01*
X183244734Y-41080974D01*
X183994974Y-40330734D01*
X184401000Y-39350499D01*
X184401000Y-38289501D01*
X183994974Y-37309266D01*
X183244734Y-36559026D01*
X182264499Y-36153000D01*
X181203501Y-36153000D01*
X180223266Y-36559026D01*
X179473026Y-37309266D01*
X179067000Y-38289501D01*
X114401000Y-38289501D01*
X113994974Y-37309266D01*
X113244734Y-36559026D01*
X112264499Y-36153000D01*
X111203501Y-36153000D01*
X110223266Y-36559026D01*
X109473026Y-37309266D01*
X109067000Y-38289501D01*
X108501539Y-38289501D01*
X108514776Y-38159191D01*
X108713404Y-37525369D01*
X109035418Y-36944438D01*
X109467670Y-36440121D01*
X109992503Y-36033019D01*
X110588473Y-35739766D01*
X111239707Y-35570132D01*
X111761269Y-35530000D01*
X181698036Y-35530000D01*
X182394809Y-35600776D01*
X182394809Y-35600776D01*
G37*
X182394809Y-35600776D02*
X183028631Y-35799404D01*
X183609562Y-36121418D01*
X184113879Y-36553670D01*
X184520981Y-37078503D01*
X184814234Y-37674473D01*
X184983868Y-38325707D01*
X185024000Y-38847269D01*
X185024001Y-93784026D01*
X184953224Y-94480812D01*
X184754596Y-95114631D01*
X184432582Y-95695561D01*
X184000329Y-96199879D01*
X183475497Y-96606981D01*
X182879532Y-96900232D01*
X182228297Y-97069867D01*
X181706731Y-97110000D01*
X111769964Y-97110000D01*
X111073188Y-97039224D01*
X110439369Y-96840596D01*
X109858439Y-96518582D01*
X109354121Y-96086329D01*
X108947019Y-95561497D01*
X108653768Y-94965532D01*
X108484133Y-94314297D01*
X108444000Y-93792731D01*
X108444000Y-93289501D01*
X109067000Y-93289501D01*
X109067000Y-94350499D01*
X109473026Y-95330734D01*
X110223266Y-96080974D01*
X111203501Y-96487000D01*
X112264499Y-96487000D01*
X113244734Y-96080974D01*
X113994974Y-95330734D01*
X114401000Y-94350499D01*
X114401000Y-93289501D01*
X179067000Y-93289501D01*
X179067000Y-94350499D01*
X179473026Y-95330734D01*
X180223266Y-96080974D01*
X181203501Y-96487000D01*
X182264499Y-96487000D01*
X183244734Y-96080974D01*
X183994974Y-95330734D01*
X184401000Y-94350499D01*
X184401000Y-93289501D01*
X183994974Y-92309266D01*
X183244734Y-91559026D01*
X182264499Y-91153000D01*
X181203501Y-91153000D01*
X180223266Y-91559026D01*
X179473026Y-92309266D01*
X179067000Y-93289501D01*
X114401000Y-93289501D01*
X113994974Y-92309266D01*
X113244734Y-91559026D01*
X112264499Y-91153000D01*
X111203501Y-91153000D01*
X110223266Y-91559026D01*
X109473026Y-92309266D01*
X109067000Y-93289501D01*
X108444000Y-93289501D01*
X108444000Y-85380892D01*
X124812514Y-85380892D01*
X125058817Y-85905358D01*
X125487076Y-86295645D01*
X125897110Y-86465476D01*
X126127000Y-86344155D01*
X126127000Y-85151000D01*
X124933181Y-85151000D01*
X124812514Y-85380892D01*
X108444000Y-85380892D01*
X108444000Y-84667108D01*
X124812514Y-84667108D01*
X124933181Y-84897000D01*
X126127000Y-84897000D01*
X126127000Y-83703845D01*
X126381000Y-83703845D01*
X126381000Y-84897000D01*
X126401000Y-84897000D01*
X126401000Y-85151000D01*
X126381000Y-85151000D01*
X126381000Y-86344155D01*
X126610890Y-86465476D01*
X127020924Y-86295645D01*
X127449183Y-85905358D01*
X127510157Y-85775522D01*
X127723375Y-86094625D01*
X128214582Y-86422839D01*
X128647744Y-86509000D01*
X128940256Y-86509000D01*
X129373418Y-86422839D01*
X129864625Y-86094625D01*
X130064000Y-85796239D01*
X130263375Y-86094625D01*
X130754582Y-86422839D01*
X131187744Y-86509000D01*
X131480256Y-86509000D01*
X131913418Y-86422839D01*
X132404625Y-86094625D01*
X132604000Y-85796239D01*
X132803375Y-86094625D01*
X133294582Y-86422839D01*
X133727744Y-86509000D01*
X134020256Y-86509000D01*
X134453418Y-86422839D01*
X134944625Y-86094625D01*
X134956816Y-86076381D01*
X134965843Y-86121765D01*
X135106191Y-86331809D01*
X135316235Y-86472157D01*
X135564000Y-86521440D01*
X137264000Y-86521440D01*
X137511765Y-86472157D01*
X137721809Y-86331809D01*
X137862157Y-86121765D01*
X137911440Y-85874000D01*
X137911440Y-84174000D01*
X137862157Y-83926235D01*
X137721809Y-83716191D01*
X137511765Y-83575843D01*
X137264000Y-83526560D01*
X135564000Y-83526560D01*
X135316235Y-83575843D01*
X135106191Y-83716191D01*
X134965843Y-83926235D01*
X134956816Y-83971619D01*
X134944625Y-83953375D01*
X134453418Y-83625161D01*
X134020256Y-83539000D01*
X133727744Y-83539000D01*
X133294582Y-83625161D01*
X132803375Y-83953375D01*
X132604000Y-84251761D01*
X132404625Y-83953375D01*
X131913418Y-83625161D01*
X131480256Y-83539000D01*
X131187744Y-83539000D01*
X130754582Y-83625161D01*
X130263375Y-83953375D01*
X130064000Y-84251761D01*
X129864625Y-83953375D01*
X129554000Y-83745822D01*
X129554000Y-83306801D01*
X129870802Y-82990000D01*
X145229153Y-82990000D01*
X145304000Y-83004888D01*
X145378847Y-82990000D01*
X145378852Y-82990000D01*
X145600537Y-82945904D01*
X145851929Y-82777929D01*
X145894331Y-82714470D01*
X147058473Y-81550329D01*
X147121929Y-81507929D01*
X147289904Y-81256537D01*
X147334000Y-81034852D01*
X147334000Y-81034848D01*
X147348888Y-80960001D01*
X147338019Y-80905358D01*
X147608577Y-80724577D01*
X147864947Y-80340892D01*
X147961611Y-80545134D01*
X148376577Y-80921041D01*
X148764961Y-81081904D01*
X148987000Y-80959915D01*
X148987000Y-79817000D01*
X148967000Y-79817000D01*
X148967000Y-79563000D01*
X148987000Y-79563000D01*
X148987000Y-78420085D01*
X149241000Y-78420085D01*
X149241000Y-79563000D01*
X149261000Y-79563000D01*
X149261000Y-79817000D01*
X149241000Y-79817000D01*
X149241000Y-80959915D01*
X149463039Y-81081904D01*
X149851423Y-80921041D01*
X150266389Y-80545134D01*
X150363053Y-80340892D01*
X150619423Y-80724577D01*
X151094091Y-81041740D01*
X151512667Y-81125000D01*
X151795333Y-81125000D01*
X152213909Y-81041740D01*
X152688577Y-80724577D01*
X153005740Y-80249909D01*
X153117113Y-79690000D01*
X153005740Y-79130091D01*
X152688577Y-78655423D01*
X152213909Y-78338260D01*
X151795333Y-78255000D01*
X151512667Y-78255000D01*
X151094091Y-78338260D01*
X150619423Y-78655423D01*
X150363053Y-79039108D01*
X150266389Y-78834866D01*
X149851423Y-78458959D01*
X149463039Y-78298096D01*
X149241000Y-78420085D01*
X148987000Y-78420085D01*
X148764961Y-78298096D01*
X148376577Y-78458959D01*
X147961611Y-78834866D01*
X147864947Y-79039108D01*
X147608577Y-78655423D01*
X147133909Y-78338260D01*
X146715333Y-78255000D01*
X146432667Y-78255000D01*
X146014091Y-78338260D01*
X145539423Y-78655423D01*
X145304000Y-79007758D01*
X145068577Y-78655423D01*
X144593909Y-78338260D01*
X144175333Y-78255000D01*
X143892667Y-78255000D01*
X143474091Y-78338260D01*
X142999423Y-78655423D01*
X142764000Y-79007758D01*
X142528577Y-78655423D01*
X142053909Y-78338260D01*
X141635333Y-78255000D01*
X141352667Y-78255000D01*
X140934091Y-78338260D01*
X140459423Y-78655423D01*
X140224000Y-79007758D01*
X139988577Y-78655423D01*
X139513909Y-78338260D01*
X139095333Y-78255000D01*
X138812667Y-78255000D01*
X138394091Y-78338260D01*
X137919423Y-78655423D01*
X137684000Y-79007758D01*
X137448577Y-78655423D01*
X136973909Y-78338260D01*
X136555333Y-78255000D01*
X136272667Y-78255000D01*
X135854091Y-78338260D01*
X135379423Y-78655423D01*
X135144000Y-79007758D01*
X134908577Y-78655423D01*
X134433909Y-78338260D01*
X134015333Y-78255000D01*
X133732667Y-78255000D01*
X133314091Y-78338260D01*
X132839423Y-78655423D01*
X132604000Y-79007758D01*
X132368577Y-78655423D01*
X131893909Y-78338260D01*
X131475333Y-78255000D01*
X131192667Y-78255000D01*
X130774091Y-78338260D01*
X130299423Y-78655423D01*
X130043053Y-79039108D01*
X129946389Y-78834866D01*
X129531423Y-78458959D01*
X129143039Y-78298096D01*
X128921000Y-78420085D01*
X128921000Y-79563000D01*
X128941000Y-79563000D01*
X128941000Y-79817000D01*
X128921000Y-79817000D01*
X128921000Y-80959915D01*
X129143039Y-81081904D01*
X129531423Y-80921041D01*
X129946389Y-80545134D01*
X130043053Y-80340892D01*
X130299423Y-80724577D01*
X130774091Y-81041740D01*
X131192667Y-81125000D01*
X131475333Y-81125000D01*
X131893909Y-81041740D01*
X132368577Y-80724577D01*
X132604000Y-80372242D01*
X132839423Y-80724577D01*
X133314091Y-81041740D01*
X133732667Y-81125000D01*
X134015333Y-81125000D01*
X134433909Y-81041740D01*
X134908577Y-80724577D01*
X135144000Y-80372242D01*
X135379423Y-80724577D01*
X135854091Y-81041740D01*
X136272667Y-81125000D01*
X136555333Y-81125000D01*
X136973909Y-81041740D01*
X137448577Y-80724577D01*
X137684000Y-80372242D01*
X137919423Y-80724577D01*
X138394091Y-81041740D01*
X138812667Y-81125000D01*
X139095333Y-81125000D01*
X139513909Y-81041740D01*
X139988577Y-80724577D01*
X140224000Y-80372242D01*
X140459423Y-80724577D01*
X140934091Y-81041740D01*
X141352667Y-81125000D01*
X141635333Y-81125000D01*
X142053909Y-81041740D01*
X142528577Y-80724577D01*
X142764000Y-80372242D01*
X142999423Y-80724577D01*
X143474091Y-81041740D01*
X143892667Y-81125000D01*
X144175333Y-81125000D01*
X144593909Y-81041740D01*
X145068577Y-80724577D01*
X145304000Y-80372242D01*
X145539423Y-80724577D01*
X145656436Y-80802762D01*
X144989199Y-81470000D01*
X129630848Y-81470000D01*
X129556000Y-81455112D01*
X129481152Y-81470000D01*
X129481148Y-81470000D01*
X129307605Y-81504520D01*
X129259462Y-81514096D01*
X129106003Y-81616635D01*
X129008071Y-81682071D01*
X128965671Y-81745527D01*
X128309530Y-82401669D01*
X128246071Y-82444071D01*
X128078096Y-82695464D01*
X128034000Y-82917149D01*
X128034000Y-82917153D01*
X128019112Y-82992000D01*
X128034000Y-83066847D01*
X128034000Y-83745822D01*
X127723375Y-83953375D01*
X127510157Y-84272478D01*
X127449183Y-84142642D01*
X127020924Y-83752355D01*
X126610890Y-83582524D01*
X126381000Y-83703845D01*
X126127000Y-83703845D01*
X125897110Y-83582524D01*
X125487076Y-83752355D01*
X125058817Y-84142642D01*
X124812514Y-84667108D01*
X108444000Y-84667108D01*
X108444000Y-80039041D01*
X127402086Y-80039041D01*
X127641611Y-80545134D01*
X128056577Y-80921041D01*
X128444961Y-81081904D01*
X128667000Y-80959915D01*
X128667000Y-79817000D01*
X127523371Y-79817000D01*
X127402086Y-80039041D01*
X108444000Y-80039041D01*
X108444000Y-79340959D01*
X127402086Y-79340959D01*
X127523371Y-79563000D01*
X128667000Y-79563000D01*
X128667000Y-78420085D01*
X128444961Y-78298096D01*
X128056577Y-78458959D01*
X127641611Y-78834866D01*
X127402086Y-79340959D01*
X108444000Y-79340959D01*
X108444000Y-76915750D01*
X148104000Y-76915750D01*
X148104000Y-77156309D01*
X148200673Y-77389698D01*
X148379301Y-77568327D01*
X148612690Y-77665000D01*
X148828250Y-77665000D01*
X148987000Y-77506250D01*
X148987000Y-76757000D01*
X149241000Y-76757000D01*
X149241000Y-77506250D01*
X149399750Y-77665000D01*
X149615310Y-77665000D01*
X149848699Y-77568327D01*
X150027327Y-77389698D01*
X150124000Y-77156309D01*
X150124000Y-76915750D01*
X149965250Y-76757000D01*
X149241000Y-76757000D01*
X148987000Y-76757000D01*
X148262750Y-76757000D01*
X148104000Y-76915750D01*
X108444000Y-76915750D01*
X108444000Y-73154017D01*
X121509000Y-73154017D01*
X121509000Y-73525983D01*
X121651345Y-73869635D01*
X121914365Y-74132655D01*
X122258017Y-74275000D01*
X122629983Y-74275000D01*
X122973635Y-74132655D01*
X123006290Y-74100000D01*
X145229153Y-74100000D01*
X145304000Y-74114888D01*
X145378847Y-74100000D01*
X145378852Y-74100000D01*
X145600537Y-74055904D01*
X145851929Y-73887929D01*
X145894331Y-73824470D01*
X146250114Y-73468688D01*
X146432667Y-73505000D01*
X146715333Y-73505000D01*
X147133909Y-73421740D01*
X147608577Y-73104577D01*
X147844000Y-72752242D01*
X148079423Y-73104577D01*
X148354001Y-73288044D01*
X148354000Y-74223541D01*
X148281191Y-74272191D01*
X148140843Y-74482235D01*
X148091560Y-74730000D01*
X148091560Y-75530000D01*
X148140843Y-75777765D01*
X148201873Y-75869102D01*
X148200673Y-75870302D01*
X148104000Y-76103691D01*
X148104000Y-76344250D01*
X148262750Y-76503000D01*
X148987000Y-76503000D01*
X148987000Y-76483000D01*
X149241000Y-76483000D01*
X149241000Y-76503000D01*
X149965250Y-76503000D01*
X150124000Y-76344250D01*
X150124000Y-76103691D01*
X150027327Y-75870302D01*
X150026127Y-75869102D01*
X150087157Y-75777765D01*
X150136440Y-75530000D01*
X150136440Y-74730000D01*
X150087157Y-74482235D01*
X149946809Y-74272191D01*
X149874000Y-74223541D01*
X149874000Y-73288043D01*
X150148577Y-73104577D01*
X150229215Y-72983894D01*
X150255843Y-73117765D01*
X150396191Y-73327809D01*
X150606235Y-73468157D01*
X150854000Y-73517440D01*
X152454000Y-73517440D01*
X152701765Y-73468157D01*
X152911809Y-73327809D01*
X153052157Y-73117765D01*
X153101440Y-72870000D01*
X153101440Y-71270000D01*
X153052157Y-71022235D01*
X152911809Y-70812191D01*
X152701765Y-70671843D01*
X152454000Y-70622560D01*
X150854000Y-70622560D01*
X150606235Y-70671843D01*
X150396191Y-70812191D01*
X150255843Y-71022235D01*
X150229215Y-71156106D01*
X150148577Y-71035423D01*
X149673909Y-70718260D01*
X149255333Y-70635000D01*
X148972667Y-70635000D01*
X148554091Y-70718260D01*
X148079423Y-71035423D01*
X147844000Y-71387758D01*
X147608577Y-71035423D01*
X147133909Y-70718260D01*
X146715333Y-70635000D01*
X146432667Y-70635000D01*
X146014091Y-70718260D01*
X145539423Y-71035423D01*
X145304000Y-71387758D01*
X145068577Y-71035423D01*
X144593909Y-70718260D01*
X144175333Y-70635000D01*
X143892667Y-70635000D01*
X143474091Y-70718260D01*
X142999423Y-71035423D01*
X142764000Y-71387758D01*
X142528577Y-71035423D01*
X142053909Y-70718260D01*
X141635333Y-70635000D01*
X141352667Y-70635000D01*
X140934091Y-70718260D01*
X140459423Y-71035423D01*
X140224000Y-71387758D01*
X139988577Y-71035423D01*
X139513909Y-70718260D01*
X139095333Y-70635000D01*
X138812667Y-70635000D01*
X138394091Y-70718260D01*
X137919423Y-71035423D01*
X137684000Y-71387758D01*
X137448577Y-71035423D01*
X136973909Y-70718260D01*
X136555333Y-70635000D01*
X136272667Y-70635000D01*
X135854091Y-70718260D01*
X135379423Y-71035423D01*
X135144000Y-71387758D01*
X134908577Y-71035423D01*
X134634000Y-70851957D01*
X134634000Y-69296573D01*
X134753062Y-69217017D01*
X159863000Y-69217017D01*
X159863000Y-69588983D01*
X159913000Y-69709694D01*
X159913001Y-75573304D01*
X159863000Y-75694017D01*
X159863000Y-76065983D01*
X159913000Y-76186694D01*
X159913001Y-80780304D01*
X159863000Y-80901017D01*
X159863000Y-81272983D01*
X159913000Y-81393694D01*
X159913001Y-84555835D01*
X159895663Y-84643000D01*
X159964348Y-84988309D01*
X160110576Y-85207154D01*
X160110578Y-85207156D01*
X160159952Y-85281049D01*
X160233845Y-85330423D01*
X161606345Y-86702924D01*
X161656345Y-86823635D01*
X161919365Y-87086655D01*
X162040078Y-87136656D01*
X162061575Y-87158153D01*
X162777577Y-87874156D01*
X162826951Y-87948049D01*
X162900844Y-87997423D01*
X162900845Y-87997424D01*
X163011880Y-88071615D01*
X163119690Y-88143652D01*
X163377835Y-88195000D01*
X163377839Y-88195000D01*
X163464999Y-88212337D01*
X163552159Y-88195000D01*
X168111306Y-88195000D01*
X168232017Y-88245000D01*
X168603983Y-88245000D01*
X168724694Y-88195000D01*
X175985306Y-88195000D01*
X176106017Y-88245000D01*
X176477983Y-88245000D01*
X176821635Y-88102655D01*
X177084655Y-87839635D01*
X177227000Y-87495983D01*
X177227000Y-87124017D01*
X177084655Y-86780365D01*
X176821635Y-86517345D01*
X176477983Y-86375000D01*
X176106017Y-86375000D01*
X175985306Y-86425000D01*
X168724694Y-86425000D01*
X168603983Y-86375000D01*
X168232017Y-86375000D01*
X168111306Y-86425000D01*
X163831579Y-86425000D01*
X163313153Y-85906575D01*
X163291656Y-85885078D01*
X163241655Y-85764365D01*
X162978635Y-85501345D01*
X162857924Y-85451345D01*
X161683000Y-84276422D01*
X161683000Y-81393694D01*
X161733000Y-81272983D01*
X161733000Y-80901017D01*
X161683000Y-80780306D01*
X161683000Y-76186694D01*
X161733000Y-76065983D01*
X161733000Y-75694017D01*
X161683000Y-75573306D01*
X161683000Y-74610000D01*
X167919908Y-74610000D01*
X168035161Y-75189418D01*
X168363375Y-75680625D01*
X168661761Y-75880000D01*
X168363375Y-76079375D01*
X168035161Y-76570582D01*
X167919908Y-77150000D01*
X168035161Y-77729418D01*
X168363375Y-78220625D01*
X168661761Y-78420000D01*
X168363375Y-78619375D01*
X168035161Y-79110582D01*
X167919908Y-79690000D01*
X168035161Y-80269418D01*
X168363375Y-80760625D01*
X168854582Y-81088839D01*
X169287744Y-81175000D01*
X169580256Y-81175000D01*
X170013418Y-81088839D01*
X170504625Y-80760625D01*
X170704000Y-80462239D01*
X170903375Y-80760625D01*
X171394582Y-81088839D01*
X171827744Y-81175000D01*
X172120256Y-81175000D01*
X172553418Y-81088839D01*
X173044625Y-80760625D01*
X173372839Y-80269418D01*
X173488092Y-79690000D01*
X173372839Y-79110582D01*
X173044625Y-78619375D01*
X172746239Y-78420000D01*
X173044625Y-78220625D01*
X173372839Y-77729418D01*
X173488092Y-77150000D01*
X173372839Y-76570582D01*
X173044625Y-76079375D01*
X172746239Y-75880000D01*
X173044625Y-75680625D01*
X173372839Y-75189418D01*
X173488092Y-74610000D01*
X173372839Y-74030582D01*
X173044625Y-73539375D01*
X172746239Y-73340000D01*
X173044625Y-73140625D01*
X173372839Y-72649418D01*
X173488092Y-72070000D01*
X173372839Y-71490582D01*
X173044625Y-70999375D01*
X172553418Y-70671161D01*
X172120256Y-70585000D01*
X171827744Y-70585000D01*
X171394582Y-70671161D01*
X170903375Y-70999375D01*
X170891184Y-71017619D01*
X170882157Y-70972235D01*
X170741809Y-70762191D01*
X170531765Y-70621843D01*
X170284000Y-70572560D01*
X168584000Y-70572560D01*
X168336235Y-70621843D01*
X168126191Y-70762191D01*
X167985843Y-70972235D01*
X167936560Y-71220000D01*
X167936560Y-72920000D01*
X167985843Y-73167765D01*
X168126191Y-73377809D01*
X168336235Y-73518157D01*
X168381619Y-73527184D01*
X168363375Y-73539375D01*
X168035161Y-74030582D01*
X167919908Y-74610000D01*
X161683000Y-74610000D01*
X161683000Y-70288000D01*
X168111306Y-70288000D01*
X168232017Y-70338000D01*
X168603983Y-70338000D01*
X168724694Y-70288000D01*
X175477306Y-70288000D01*
X175598017Y-70338000D01*
X175969983Y-70338000D01*
X176313635Y-70195655D01*
X176576655Y-69932635D01*
X176719000Y-69588983D01*
X176719000Y-69217017D01*
X176576655Y-68873365D01*
X176313635Y-68610345D01*
X175969983Y-68468000D01*
X175598017Y-68468000D01*
X175477306Y-68518000D01*
X168724694Y-68518000D01*
X168603983Y-68468000D01*
X168232017Y-68468000D01*
X168111306Y-68518000D01*
X161104694Y-68518000D01*
X160983983Y-68468000D01*
X160612017Y-68468000D01*
X160268365Y-68610345D01*
X160005345Y-68873365D01*
X159863000Y-69217017D01*
X134753062Y-69217017D01*
X134781809Y-69197809D01*
X134922157Y-68987765D01*
X134971440Y-68740000D01*
X134971440Y-68240000D01*
X134922157Y-67992235D01*
X134781809Y-67782191D01*
X134718666Y-67740000D01*
X134781809Y-67697809D01*
X134922157Y-67487765D01*
X134971440Y-67240000D01*
X134971440Y-66740000D01*
X134922157Y-66492235D01*
X134781809Y-66282191D01*
X134571765Y-66141843D01*
X134324000Y-66092560D01*
X133424000Y-66092560D01*
X133176235Y-66141843D01*
X133044300Y-66230000D01*
X132531290Y-66230000D01*
X132498635Y-66197345D01*
X132154983Y-66055000D01*
X131783017Y-66055000D01*
X131439365Y-66197345D01*
X131176345Y-66460365D01*
X131034000Y-66804017D01*
X131034000Y-67175983D01*
X131176345Y-67519635D01*
X131439365Y-67782655D01*
X131783017Y-67925000D01*
X132154983Y-67925000D01*
X132498635Y-67782655D01*
X132531290Y-67750000D01*
X133014368Y-67750000D01*
X132966191Y-67782191D01*
X132825843Y-67992235D01*
X132776560Y-68240000D01*
X132776560Y-68740000D01*
X132825843Y-68987765D01*
X132966191Y-69197809D01*
X133114000Y-69296573D01*
X133114001Y-70851956D01*
X132839423Y-71035423D01*
X132583053Y-71419108D01*
X132486389Y-71214866D01*
X132071423Y-70838959D01*
X131683039Y-70678096D01*
X131461000Y-70800085D01*
X131461000Y-71943000D01*
X131481000Y-71943000D01*
X131481000Y-72197000D01*
X131461000Y-72197000D01*
X131461000Y-72217000D01*
X131207000Y-72217000D01*
X131207000Y-72197000D01*
X128921000Y-72197000D01*
X128921000Y-72217000D01*
X128667000Y-72217000D01*
X128667000Y-72197000D01*
X127523371Y-72197000D01*
X127402086Y-72419041D01*
X127478265Y-72580000D01*
X123006290Y-72580000D01*
X122973635Y-72547345D01*
X122629983Y-72405000D01*
X122258017Y-72405000D01*
X121914365Y-72547345D01*
X121651345Y-72810365D01*
X121509000Y-73154017D01*
X108444000Y-73154017D01*
X108444000Y-66804017D01*
X115159000Y-66804017D01*
X115159000Y-67175983D01*
X115301345Y-67519635D01*
X115564365Y-67782655D01*
X115908017Y-67925000D01*
X115954199Y-67925000D01*
X116466560Y-68437362D01*
X116466560Y-68710000D01*
X116515843Y-68957765D01*
X116656191Y-69167809D01*
X116866235Y-69308157D01*
X117114000Y-69357440D01*
X117614000Y-69357440D01*
X117861765Y-69308157D01*
X118071809Y-69167809D01*
X118104000Y-69119632D01*
X118104000Y-69665153D01*
X118089112Y-69740000D01*
X118104000Y-69814847D01*
X118104000Y-69814851D01*
X118148096Y-70036536D01*
X118316071Y-70287929D01*
X118379529Y-70330331D01*
X119333673Y-71284475D01*
X119376071Y-71347929D01*
X119439524Y-71390327D01*
X119439526Y-71390329D01*
X119555277Y-71467671D01*
X119572092Y-71478906D01*
X119575843Y-71497765D01*
X119613590Y-71554258D01*
X119477000Y-71884017D01*
X119477000Y-72255983D01*
X119619345Y-72599635D01*
X119882365Y-72862655D01*
X120226017Y-73005000D01*
X120597983Y-73005000D01*
X120941635Y-72862655D01*
X121204655Y-72599635D01*
X121347000Y-72255983D01*
X121347000Y-71884017D01*
X121296140Y-71761230D01*
X121426235Y-71848157D01*
X121674000Y-71897440D01*
X122174000Y-71897440D01*
X122421765Y-71848157D01*
X122612128Y-71720959D01*
X127402086Y-71720959D01*
X127523371Y-71943000D01*
X128667000Y-71943000D01*
X128667000Y-70800085D01*
X128921000Y-70800085D01*
X128921000Y-71943000D01*
X131207000Y-71943000D01*
X131207000Y-70800085D01*
X130984961Y-70678096D01*
X130596577Y-70838959D01*
X130181611Y-71214866D01*
X130064000Y-71463367D01*
X129946389Y-71214866D01*
X129531423Y-70838959D01*
X129143039Y-70678096D01*
X128921000Y-70800085D01*
X128667000Y-70800085D01*
X128444961Y-70678096D01*
X128056577Y-70838959D01*
X127641611Y-71214866D01*
X127402086Y-71720959D01*
X122612128Y-71720959D01*
X122631809Y-71707809D01*
X122772157Y-71497765D01*
X122821440Y-71250000D01*
X122821440Y-70385696D01*
X122973635Y-70322655D01*
X123236655Y-70059635D01*
X123379000Y-69715983D01*
X123379000Y-69344017D01*
X123236655Y-69000365D01*
X122973635Y-68737345D01*
X122952799Y-68728715D01*
X122971440Y-68635000D01*
X122971440Y-67885000D01*
X122944587Y-67750000D01*
X124421710Y-67750000D01*
X124454365Y-67782655D01*
X124798017Y-67925000D01*
X125169983Y-67925000D01*
X125513635Y-67782655D01*
X125776655Y-67519635D01*
X125919000Y-67175983D01*
X125919000Y-66804017D01*
X125776655Y-66460365D01*
X125513635Y-66197345D01*
X125169983Y-66055000D01*
X124798017Y-66055000D01*
X124454365Y-66197345D01*
X124421710Y-66230000D01*
X122643848Y-66230000D01*
X122569000Y-66215112D01*
X122494152Y-66230000D01*
X122494148Y-66230000D01*
X122320605Y-66264520D01*
X122272462Y-66274096D01*
X122085418Y-66399076D01*
X122021071Y-66442071D01*
X121978671Y-66505527D01*
X121439528Y-67044671D01*
X121376072Y-67087071D01*
X121215448Y-67327460D01*
X121184898Y-67347873D01*
X121183698Y-67346673D01*
X120950309Y-67250000D01*
X120709750Y-67250000D01*
X120551000Y-67408750D01*
X120551000Y-68133000D01*
X120571000Y-68133000D01*
X120571000Y-68387000D01*
X120551000Y-68387000D01*
X120551000Y-69111250D01*
X120709750Y-69270000D01*
X120950309Y-69270000D01*
X121183698Y-69173327D01*
X121184898Y-69172127D01*
X121276235Y-69233157D01*
X121524000Y-69282440D01*
X121534506Y-69282440D01*
X121509000Y-69344017D01*
X121509000Y-69390199D01*
X121439527Y-69459671D01*
X121376072Y-69502071D01*
X121208097Y-69753463D01*
X121169331Y-69948347D01*
X121131809Y-69892191D01*
X120921765Y-69751843D01*
X120674000Y-69702560D01*
X120174000Y-69702560D01*
X119946595Y-69747793D01*
X119624000Y-69425199D01*
X119624000Y-69133025D01*
X119664302Y-69173327D01*
X119897691Y-69270000D01*
X120138250Y-69270000D01*
X120297000Y-69111250D01*
X120297000Y-68387000D01*
X120277000Y-68387000D01*
X120277000Y-68133000D01*
X120297000Y-68133000D01*
X120297000Y-67408750D01*
X120138250Y-67250000D01*
X119897691Y-67250000D01*
X119664302Y-67346673D01*
X119606646Y-67404328D01*
X119571809Y-67352191D01*
X119361765Y-67211843D01*
X119114000Y-67162560D01*
X118614000Y-67162560D01*
X118366235Y-67211843D01*
X118156191Y-67352191D01*
X118114000Y-67415334D01*
X118071809Y-67352191D01*
X117861765Y-67211843D01*
X117614000Y-67162560D01*
X117341362Y-67162560D01*
X117029000Y-66850199D01*
X117029000Y-66804017D01*
X116886655Y-66460365D01*
X116623635Y-66197345D01*
X116279983Y-66055000D01*
X115908017Y-66055000D01*
X115564365Y-66197345D01*
X115301345Y-66460365D01*
X115159000Y-66804017D01*
X108444000Y-66804017D01*
X108444000Y-62081724D01*
X116101882Y-62081724D01*
X116249455Y-62390106D01*
X117004031Y-62683405D01*
X117813409Y-62665614D01*
X118478545Y-62390106D01*
X118626118Y-62081724D01*
X117364000Y-60819605D01*
X116101882Y-62081724D01*
X108444000Y-62081724D01*
X108444000Y-60280031D01*
X115320595Y-60280031D01*
X115338386Y-61089409D01*
X115613894Y-61754545D01*
X115922276Y-61902118D01*
X117184395Y-60640000D01*
X117543605Y-60640000D01*
X118805724Y-61902118D01*
X119114106Y-61754545D01*
X119407405Y-60999969D01*
X119389614Y-60190591D01*
X119114106Y-59525455D01*
X118805724Y-59377882D01*
X117543605Y-60640000D01*
X117184395Y-60640000D01*
X115922276Y-59377882D01*
X115613894Y-59525455D01*
X115320595Y-60280031D01*
X108444000Y-60280031D01*
X108444000Y-59198276D01*
X116101882Y-59198276D01*
X117364000Y-60460395D01*
X118626118Y-59198276D01*
X118478545Y-58889894D01*
X117723969Y-58596595D01*
X116914591Y-58614386D01*
X116249455Y-58889894D01*
X116101882Y-59198276D01*
X108444000Y-59198276D01*
X108444000Y-53740000D01*
X115316560Y-53740000D01*
X115316560Y-56540000D01*
X115365843Y-56787765D01*
X115506191Y-56997809D01*
X115716235Y-57138157D01*
X115964000Y-57187440D01*
X118764000Y-57187440D01*
X119011765Y-57138157D01*
X119221809Y-56997809D01*
X119362157Y-56787765D01*
X119411440Y-56540000D01*
X119411440Y-55160750D01*
X135799000Y-55160750D01*
X135799000Y-56876309D01*
X135895673Y-57109698D01*
X136074301Y-57288327D01*
X136307690Y-57385000D01*
X137398250Y-57385000D01*
X137557000Y-57226250D01*
X137557000Y-55002000D01*
X137811000Y-55002000D01*
X137811000Y-57226250D01*
X137969750Y-57385000D01*
X139060310Y-57385000D01*
X139293699Y-57288327D01*
X139472327Y-57109698D01*
X139569000Y-56876309D01*
X139569000Y-55160750D01*
X139410250Y-55002000D01*
X137811000Y-55002000D01*
X137557000Y-55002000D01*
X135957750Y-55002000D01*
X135799000Y-55160750D01*
X119411440Y-55160750D01*
X119411440Y-53740000D01*
X119362157Y-53492235D01*
X119221809Y-53282191D01*
X119011765Y-53141843D01*
X118764000Y-53092560D01*
X115964000Y-53092560D01*
X115716235Y-53141843D01*
X115506191Y-53282191D01*
X115365843Y-53492235D01*
X115316560Y-53740000D01*
X108444000Y-53740000D01*
X108444000Y-43721002D01*
X124704600Y-43721002D01*
X124704600Y-44538997D01*
X124791550Y-44976124D01*
X125122770Y-45471830D01*
X125318201Y-45602413D01*
X125318201Y-46207911D01*
X125255843Y-46301235D01*
X125206560Y-46549000D01*
X125206560Y-47299000D01*
X125255843Y-47546765D01*
X125368345Y-47715134D01*
X125351663Y-47799000D01*
X125420348Y-48144309D01*
X125566576Y-48363154D01*
X125566578Y-48363156D01*
X125615952Y-48437049D01*
X125689845Y-48486423D01*
X125961575Y-48758153D01*
X126010951Y-48832049D01*
X126303690Y-49027652D01*
X126561835Y-49079000D01*
X126561839Y-49079000D01*
X126648999Y-49096337D01*
X126736159Y-49079000D01*
X129448370Y-49079000D01*
X128983570Y-49389570D01*
X128652350Y-49885275D01*
X128536041Y-50470000D01*
X128652350Y-51054725D01*
X128983570Y-51550430D01*
X129267281Y-51740000D01*
X128983570Y-51929570D01*
X128652350Y-52425275D01*
X128536041Y-53010000D01*
X128652350Y-53594725D01*
X128983570Y-54090430D01*
X129479275Y-54421650D01*
X129916402Y-54508600D01*
X130211598Y-54508600D01*
X130648725Y-54421650D01*
X131144430Y-54090430D01*
X131475650Y-53594725D01*
X131591959Y-53010000D01*
X131475650Y-52425275D01*
X131144430Y-51929570D01*
X130860719Y-51740000D01*
X131144430Y-51550430D01*
X131475650Y-51054725D01*
X131591959Y-50470000D01*
X131475650Y-49885275D01*
X131144430Y-49389570D01*
X130679630Y-49079000D01*
X131221422Y-49079000D01*
X134456577Y-52314156D01*
X134505951Y-52388049D01*
X134579844Y-52437423D01*
X134579845Y-52437424D01*
X134673497Y-52500000D01*
X134798690Y-52583652D01*
X135056835Y-52635000D01*
X135056839Y-52635000D01*
X135143999Y-52652337D01*
X135231159Y-52635000D01*
X135900975Y-52635000D01*
X135895673Y-52640302D01*
X135799000Y-52873691D01*
X135799000Y-54589250D01*
X135957750Y-54748000D01*
X137557000Y-54748000D01*
X137557000Y-54728000D01*
X137811000Y-54728000D01*
X137811000Y-54748000D01*
X139410250Y-54748000D01*
X139569000Y-54589250D01*
X139569000Y-54335750D01*
X141179000Y-54335750D01*
X141179000Y-54926310D01*
X141275673Y-55159699D01*
X141454302Y-55338327D01*
X141687691Y-55435000D01*
X142528250Y-55435000D01*
X142687000Y-55276250D01*
X142687000Y-54177000D01*
X142941000Y-54177000D01*
X142941000Y-55276250D01*
X143099750Y-55435000D01*
X143940309Y-55435000D01*
X144173698Y-55338327D01*
X144351275Y-55160750D01*
X151674000Y-55160750D01*
X151674000Y-56876309D01*
X151770673Y-57109698D01*
X151949301Y-57288327D01*
X152182690Y-57385000D01*
X153273250Y-57385000D01*
X153432000Y-57226250D01*
X153432000Y-55002000D01*
X153686000Y-55002000D01*
X153686000Y-57226250D01*
X153844750Y-57385000D01*
X154935310Y-57385000D01*
X155168699Y-57288327D01*
X155347327Y-57109698D01*
X155444000Y-56876309D01*
X155444000Y-55160750D01*
X155285250Y-55002000D01*
X153686000Y-55002000D01*
X153432000Y-55002000D01*
X151832750Y-55002000D01*
X151674000Y-55160750D01*
X144351275Y-55160750D01*
X144352327Y-55159699D01*
X144449000Y-54926310D01*
X144449000Y-54335750D01*
X144290250Y-54177000D01*
X142941000Y-54177000D01*
X142687000Y-54177000D01*
X141337750Y-54177000D01*
X141179000Y-54335750D01*
X139569000Y-54335750D01*
X139569000Y-52873691D01*
X139472327Y-52640302D01*
X139467025Y-52635000D01*
X141193413Y-52635000D01*
X141215843Y-52747765D01*
X141316927Y-52899047D01*
X141275673Y-52940301D01*
X141179000Y-53173690D01*
X141179000Y-53764250D01*
X141337750Y-53923000D01*
X142687000Y-53923000D01*
X142687000Y-53903000D01*
X142941000Y-53903000D01*
X142941000Y-53923000D01*
X144290250Y-53923000D01*
X144449000Y-53764250D01*
X144449000Y-53173690D01*
X144352327Y-52940301D01*
X144311073Y-52899047D01*
X144412157Y-52747765D01*
X144435964Y-52628078D01*
X144659310Y-52583652D01*
X144952049Y-52388049D01*
X145001425Y-52314153D01*
X147466804Y-49848775D01*
X147466560Y-49850000D01*
X147466560Y-53650000D01*
X147515843Y-53897765D01*
X147656191Y-54107809D01*
X147866235Y-54248157D01*
X148114000Y-54297440D01*
X150114000Y-54297440D01*
X150361765Y-54248157D01*
X150571809Y-54107809D01*
X150712157Y-53897765D01*
X150761440Y-53650000D01*
X150761440Y-52635000D01*
X151775975Y-52635000D01*
X151770673Y-52640302D01*
X151674000Y-52873691D01*
X151674000Y-54589250D01*
X151832750Y-54748000D01*
X153432000Y-54748000D01*
X153432000Y-54728000D01*
X153686000Y-54728000D01*
X153686000Y-54748000D01*
X155285250Y-54748000D01*
X155444000Y-54589250D01*
X155444000Y-52873691D01*
X155347327Y-52640302D01*
X155168699Y-52461673D01*
X154935310Y-52365000D01*
X154085450Y-52365000D01*
X154119425Y-52314153D01*
X154123154Y-52310424D01*
X154197049Y-52261049D01*
X154392652Y-51968310D01*
X154444000Y-51710165D01*
X154444000Y-51710160D01*
X154461337Y-51623001D01*
X154444000Y-51535841D01*
X154444000Y-51147440D01*
X154809000Y-51147440D01*
X155056765Y-51098157D01*
X155266809Y-50957809D01*
X155407157Y-50747765D01*
X155456440Y-50500000D01*
X155456440Y-49510000D01*
X163402422Y-49510000D01*
X168573001Y-54680580D01*
X168573001Y-54767884D01*
X168459843Y-54937235D01*
X168410560Y-55185000D01*
X168410560Y-55935000D01*
X168459843Y-56182765D01*
X168549000Y-56316197D01*
X168549001Y-57897587D01*
X168353570Y-58028170D01*
X168164000Y-58311881D01*
X167974430Y-58028170D01*
X167478724Y-57696950D01*
X166894000Y-57580641D01*
X166309275Y-57696950D01*
X165813570Y-58028170D01*
X165624000Y-58311881D01*
X165434430Y-58028170D01*
X164938724Y-57696950D01*
X164354000Y-57580641D01*
X163769275Y-57696950D01*
X163273570Y-58028170D01*
X163084000Y-58311881D01*
X162894430Y-58028170D01*
X162398724Y-57696950D01*
X161814000Y-57580641D01*
X161229275Y-57696950D01*
X160733570Y-58028170D01*
X160544000Y-58311881D01*
X160354430Y-58028170D01*
X159858724Y-57696950D01*
X159274000Y-57580641D01*
X158689275Y-57696950D01*
X158193570Y-58028170D01*
X158004000Y-58311881D01*
X157814430Y-58028170D01*
X157318724Y-57696950D01*
X156734000Y-57580641D01*
X156149275Y-57696950D01*
X155653570Y-58028170D01*
X155464000Y-58311881D01*
X155274430Y-58028170D01*
X154778724Y-57696950D01*
X154194000Y-57580641D01*
X153609275Y-57696950D01*
X153113570Y-58028170D01*
X152924000Y-58311881D01*
X152734430Y-58028170D01*
X152238724Y-57696950D01*
X151654000Y-57580641D01*
X151069275Y-57696950D01*
X150573570Y-58028170D01*
X150384000Y-58311881D01*
X150194430Y-58028170D01*
X149698724Y-57696950D01*
X149114000Y-57580641D01*
X148529275Y-57696950D01*
X148033570Y-58028170D01*
X147844000Y-58311881D01*
X147654430Y-58028170D01*
X147158724Y-57696950D01*
X146574000Y-57580641D01*
X145989275Y-57696950D01*
X145493570Y-58028170D01*
X145304000Y-58311881D01*
X145114430Y-58028170D01*
X144618724Y-57696950D01*
X144034000Y-57580641D01*
X143449275Y-57696950D01*
X142953570Y-58028170D01*
X142764000Y-58311881D01*
X142574430Y-58028170D01*
X142078724Y-57696950D01*
X141494000Y-57580641D01*
X140909275Y-57696950D01*
X140413570Y-58028170D01*
X140224000Y-58311881D01*
X140034430Y-58028170D01*
X139538724Y-57696950D01*
X138954000Y-57580641D01*
X138369275Y-57696950D01*
X137873570Y-58028170D01*
X137684000Y-58311881D01*
X137494430Y-58028170D01*
X136998724Y-57696950D01*
X136414000Y-57580641D01*
X135829275Y-57696950D01*
X135333570Y-58028170D01*
X135144000Y-58311881D01*
X134954430Y-58028170D01*
X134458724Y-57696950D01*
X133874000Y-57580641D01*
X133289275Y-57696950D01*
X132793570Y-58028170D01*
X132604000Y-58311881D01*
X132414430Y-58028170D01*
X131918724Y-57696950D01*
X131334000Y-57580641D01*
X130749275Y-57696950D01*
X130253570Y-58028170D01*
X130064000Y-58311881D01*
X129874430Y-58028170D01*
X129378724Y-57696950D01*
X128794000Y-57580641D01*
X128209275Y-57696950D01*
X127720932Y-58023251D01*
X127715757Y-57997235D01*
X127575409Y-57787191D01*
X127365365Y-57646843D01*
X127117600Y-57597560D01*
X125390400Y-57597560D01*
X125142635Y-57646843D01*
X124932591Y-57787191D01*
X124792243Y-57997235D01*
X124742960Y-58245000D01*
X124742960Y-60495000D01*
X124792243Y-60742765D01*
X124932591Y-60952809D01*
X125142635Y-61093157D01*
X125390400Y-61142440D01*
X127117600Y-61142440D01*
X127365365Y-61093157D01*
X127575409Y-60952809D01*
X127715757Y-60742765D01*
X127720932Y-60716749D01*
X128209276Y-61043050D01*
X128794000Y-61159359D01*
X129378725Y-61043050D01*
X129874430Y-60711830D01*
X130064000Y-60428119D01*
X130253570Y-60711830D01*
X130749276Y-61043050D01*
X131334000Y-61159359D01*
X131918725Y-61043050D01*
X132414430Y-60711830D01*
X132604000Y-60428119D01*
X132793570Y-60711830D01*
X133289276Y-61043050D01*
X133874000Y-61159359D01*
X134458725Y-61043050D01*
X134954430Y-60711830D01*
X135144000Y-60428119D01*
X135333570Y-60711830D01*
X135829276Y-61043050D01*
X136414000Y-61159359D01*
X136998725Y-61043050D01*
X137494430Y-60711830D01*
X137684000Y-60428119D01*
X137873570Y-60711830D01*
X138369276Y-61043050D01*
X138954000Y-61159359D01*
X139538725Y-61043050D01*
X140034430Y-60711830D01*
X140224000Y-60428119D01*
X140413570Y-60711830D01*
X140909276Y-61043050D01*
X141494000Y-61159359D01*
X142078725Y-61043050D01*
X142574430Y-60711830D01*
X142764000Y-60428119D01*
X142953570Y-60711830D01*
X143449276Y-61043050D01*
X144034000Y-61159359D01*
X144618725Y-61043050D01*
X145114430Y-60711830D01*
X145304000Y-60428119D01*
X145493570Y-60711830D01*
X145989276Y-61043050D01*
X146574000Y-61159359D01*
X147158725Y-61043050D01*
X147654430Y-60711830D01*
X147844000Y-60428119D01*
X148033570Y-60711830D01*
X148529276Y-61043050D01*
X149114000Y-61159359D01*
X149698725Y-61043050D01*
X150194430Y-60711830D01*
X150384000Y-60428119D01*
X150573570Y-60711830D01*
X151069276Y-61043050D01*
X151654000Y-61159359D01*
X152238725Y-61043050D01*
X152734430Y-60711830D01*
X152924000Y-60428119D01*
X153113570Y-60711830D01*
X153609276Y-61043050D01*
X154194000Y-61159359D01*
X154778725Y-61043050D01*
X155274430Y-60711830D01*
X155464000Y-60428119D01*
X155653570Y-60711830D01*
X156149276Y-61043050D01*
X156734000Y-61159359D01*
X157318725Y-61043050D01*
X157814430Y-60711830D01*
X158004000Y-60428119D01*
X158193570Y-60711830D01*
X158689276Y-61043050D01*
X159274000Y-61159359D01*
X159858725Y-61043050D01*
X160354430Y-60711830D01*
X160544000Y-60428119D01*
X160733570Y-60711830D01*
X161229276Y-61043050D01*
X161814000Y-61159359D01*
X162398725Y-61043050D01*
X162894430Y-60711830D01*
X163084000Y-60428119D01*
X163273570Y-60711830D01*
X163769276Y-61043050D01*
X164354000Y-61159359D01*
X164938725Y-61043050D01*
X165434430Y-60711830D01*
X165624000Y-60428119D01*
X165813570Y-60711830D01*
X166309276Y-61043050D01*
X166894000Y-61159359D01*
X167478725Y-61043050D01*
X167974430Y-60711830D01*
X168164000Y-60428119D01*
X168353570Y-60711830D01*
X168849276Y-61043050D01*
X169434000Y-61159359D01*
X170018725Y-61043050D01*
X170514430Y-60711830D01*
X170712473Y-60415439D01*
X171004132Y-60780873D01*
X171517843Y-61064527D01*
X171614974Y-61086358D01*
X171847000Y-60965217D01*
X171847000Y-59497000D01*
X172101000Y-59497000D01*
X172101000Y-60965217D01*
X172333026Y-61086358D01*
X172430157Y-61064527D01*
X172943868Y-60780873D01*
X173244000Y-60404823D01*
X173544132Y-60780873D01*
X174057843Y-61064527D01*
X174154974Y-61086358D01*
X174387000Y-60965217D01*
X174387000Y-59497000D01*
X174641000Y-59497000D01*
X174641000Y-60965217D01*
X174873026Y-61086358D01*
X174970157Y-61064527D01*
X175483868Y-60780873D01*
X175849925Y-60322222D01*
X176012600Y-59758400D01*
X176012600Y-59497000D01*
X174641000Y-59497000D01*
X174387000Y-59497000D01*
X172101000Y-59497000D01*
X171847000Y-59497000D01*
X171827000Y-59497000D01*
X171827000Y-59243000D01*
X171847000Y-59243000D01*
X171847000Y-57774783D01*
X172101000Y-57774783D01*
X172101000Y-59243000D01*
X174387000Y-59243000D01*
X174387000Y-57774783D01*
X174641000Y-57774783D01*
X174641000Y-59243000D01*
X176012600Y-59243000D01*
X176012600Y-58981600D01*
X175849925Y-58417778D01*
X175483868Y-57959127D01*
X174970157Y-57675473D01*
X174873026Y-57653642D01*
X174641000Y-57774783D01*
X174387000Y-57774783D01*
X174154974Y-57653642D01*
X174057843Y-57675473D01*
X173544132Y-57959127D01*
X173244000Y-58335177D01*
X172943868Y-57959127D01*
X172430157Y-57675473D01*
X172333026Y-57653642D01*
X172101000Y-57774783D01*
X171847000Y-57774783D01*
X171614974Y-57653642D01*
X171517843Y-57675473D01*
X171004132Y-57959127D01*
X170712473Y-58324561D01*
X170514430Y-58028170D01*
X170319000Y-57897588D01*
X170319000Y-56523322D01*
X170431691Y-56570000D01*
X170672250Y-56570000D01*
X170831000Y-56411250D01*
X170831000Y-55687000D01*
X171085000Y-55687000D01*
X171085000Y-56411250D01*
X171243750Y-56570000D01*
X171484309Y-56570000D01*
X171717698Y-56473327D01*
X171896327Y-56294699D01*
X171993000Y-56061310D01*
X171993000Y-55845750D01*
X171834250Y-55687000D01*
X171085000Y-55687000D01*
X170831000Y-55687000D01*
X170811000Y-55687000D01*
X170811000Y-55433000D01*
X170831000Y-55433000D01*
X170831000Y-54708750D01*
X171085000Y-54708750D01*
X171085000Y-55433000D01*
X171834250Y-55433000D01*
X171993000Y-55274250D01*
X171993000Y-55058690D01*
X171896327Y-54825301D01*
X171717698Y-54646673D01*
X171484309Y-54550000D01*
X171243750Y-54550000D01*
X171085000Y-54708750D01*
X170831000Y-54708750D01*
X170672250Y-54550000D01*
X170431691Y-54550000D01*
X170343000Y-54586737D01*
X170343000Y-54401161D01*
X170360337Y-54314000D01*
X170343000Y-54226839D01*
X170343000Y-54226835D01*
X170291652Y-53968690D01*
X170096049Y-53675951D01*
X170022156Y-53626577D01*
X164456425Y-48060847D01*
X164407049Y-47986951D01*
X164114310Y-47791348D01*
X163856165Y-47740000D01*
X163856161Y-47740000D01*
X163769000Y-47722663D01*
X163681839Y-47740000D01*
X155456440Y-47740000D01*
X155456440Y-46750000D01*
X155407157Y-46502235D01*
X155266809Y-46292191D01*
X155056765Y-46151843D01*
X154809000Y-46102560D01*
X152309000Y-46102560D01*
X152061235Y-46151843D01*
X151851191Y-46292191D01*
X151710843Y-46502235D01*
X151661560Y-46750000D01*
X151661560Y-47740000D01*
X147526159Y-47740000D01*
X147438999Y-47722663D01*
X147351839Y-47740000D01*
X147351835Y-47740000D01*
X147093690Y-47791348D01*
X147093688Y-47791349D01*
X147093689Y-47791349D01*
X146874845Y-47937576D01*
X146874844Y-47937577D01*
X146800951Y-47986951D01*
X146751577Y-48060844D01*
X144423951Y-50388470D01*
X144461440Y-50200000D01*
X144461440Y-48700000D01*
X144412157Y-48452235D01*
X144271809Y-48242191D01*
X144061765Y-48101843D01*
X143814000Y-48052560D01*
X141814000Y-48052560D01*
X141566235Y-48101843D01*
X141356191Y-48242191D01*
X141215843Y-48452235D01*
X141193413Y-48565000D01*
X139581440Y-48565000D01*
X139581440Y-46750000D01*
X139532157Y-46502235D01*
X139391809Y-46292191D01*
X139181765Y-46151843D01*
X138934000Y-46102560D01*
X136434000Y-46102560D01*
X136186235Y-46151843D01*
X135976191Y-46292191D01*
X135835843Y-46502235D01*
X135786560Y-46750000D01*
X135786560Y-47740000D01*
X135560579Y-47740000D01*
X134716656Y-46896077D01*
X134666655Y-46775365D01*
X134403635Y-46512345D01*
X134059983Y-46370000D01*
X133688017Y-46370000D01*
X133344365Y-46512345D01*
X133081345Y-46775365D01*
X132939000Y-47119017D01*
X132939000Y-47490983D01*
X133081345Y-47834635D01*
X133344365Y-48097655D01*
X133465077Y-48147656D01*
X134506576Y-49189155D01*
X134555951Y-49263049D01*
X134629844Y-49312423D01*
X134629845Y-49312424D01*
X134835740Y-49449999D01*
X134848690Y-49458652D01*
X135106835Y-49510000D01*
X135106839Y-49510000D01*
X135194000Y-49527337D01*
X135281161Y-49510000D01*
X135786560Y-49510000D01*
X135786560Y-50500000D01*
X135835843Y-50747765D01*
X135914178Y-50865000D01*
X135510579Y-50865000D01*
X132275424Y-47629846D01*
X132226049Y-47555951D01*
X131933310Y-47360348D01*
X131675165Y-47309000D01*
X131675161Y-47309000D01*
X131588000Y-47291663D01*
X131500839Y-47309000D01*
X128789000Y-47309000D01*
X128789000Y-47209750D01*
X128630250Y-47051000D01*
X127881000Y-47051000D01*
X127881000Y-47071000D01*
X127627000Y-47071000D01*
X127627000Y-47051000D01*
X127607000Y-47051000D01*
X127607000Y-46797000D01*
X127627000Y-46797000D01*
X127627000Y-46072750D01*
X127881000Y-46072750D01*
X127881000Y-46797000D01*
X128630250Y-46797000D01*
X128789000Y-46638250D01*
X128789000Y-46422690D01*
X128692327Y-46189301D01*
X128513698Y-46010673D01*
X128280309Y-45914000D01*
X128039750Y-45914000D01*
X127881000Y-46072750D01*
X127627000Y-46072750D01*
X127468250Y-45914000D01*
X127227691Y-45914000D01*
X127088200Y-45971779D01*
X127088200Y-45602412D01*
X127283630Y-45471830D01*
X127504822Y-45140793D01*
X127824132Y-45540873D01*
X128337843Y-45824527D01*
X128434974Y-45846358D01*
X128667000Y-45725217D01*
X128667000Y-44257000D01*
X128647000Y-44257000D01*
X128647000Y-44003000D01*
X128667000Y-44003000D01*
X128667000Y-42534783D01*
X128921000Y-42534783D01*
X128921000Y-44003000D01*
X128941000Y-44003000D01*
X128941000Y-44257000D01*
X128921000Y-44257000D01*
X128921000Y-45725217D01*
X129153026Y-45846358D01*
X129250157Y-45824527D01*
X129763868Y-45540873D01*
X130055528Y-45175438D01*
X130253570Y-45471830D01*
X130749275Y-45803050D01*
X131334000Y-45919359D01*
X131918724Y-45803050D01*
X132414430Y-45471830D01*
X132604000Y-45188119D01*
X132793570Y-45471830D01*
X133289275Y-45803050D01*
X133874000Y-45919359D01*
X134458724Y-45803050D01*
X134954430Y-45471830D01*
X135144000Y-45188119D01*
X135333570Y-45471830D01*
X135829275Y-45803050D01*
X136414000Y-45919359D01*
X136998724Y-45803050D01*
X137494430Y-45471830D01*
X137684000Y-45188119D01*
X137873570Y-45471830D01*
X138369275Y-45803050D01*
X138954000Y-45919359D01*
X139538724Y-45803050D01*
X140034430Y-45471830D01*
X140224000Y-45188119D01*
X140413570Y-45471830D01*
X140909275Y-45803050D01*
X141494000Y-45919359D01*
X142078724Y-45803050D01*
X142574430Y-45471830D01*
X142764000Y-45188119D01*
X142953570Y-45471830D01*
X143449275Y-45803050D01*
X144034000Y-45919359D01*
X144618724Y-45803050D01*
X145114430Y-45471830D01*
X145304000Y-45188119D01*
X145493570Y-45471830D01*
X145989275Y-45803050D01*
X146574000Y-45919359D01*
X147158724Y-45803050D01*
X147654430Y-45471830D01*
X147844000Y-45188119D01*
X148033570Y-45471830D01*
X148529275Y-45803050D01*
X149114000Y-45919359D01*
X149698724Y-45803050D01*
X150194430Y-45471830D01*
X150384000Y-45188119D01*
X150573570Y-45471830D01*
X151069275Y-45803050D01*
X151654000Y-45919359D01*
X152238724Y-45803050D01*
X152734430Y-45471830D01*
X152924000Y-45188119D01*
X153113570Y-45471830D01*
X153609275Y-45803050D01*
X154194000Y-45919359D01*
X154778724Y-45803050D01*
X155274430Y-45471830D01*
X155464000Y-45188119D01*
X155653570Y-45471830D01*
X156149275Y-45803050D01*
X156734000Y-45919359D01*
X157318724Y-45803050D01*
X157814430Y-45471830D01*
X158004000Y-45188119D01*
X158193570Y-45471830D01*
X158689275Y-45803050D01*
X159274000Y-45919359D01*
X159858724Y-45803050D01*
X160354430Y-45471830D01*
X160544000Y-45188119D01*
X160733570Y-45471830D01*
X161229275Y-45803050D01*
X161814000Y-45919359D01*
X162398724Y-45803050D01*
X162894430Y-45471830D01*
X163084000Y-45188119D01*
X163273570Y-45471830D01*
X163769275Y-45803050D01*
X164354000Y-45919359D01*
X164938724Y-45803050D01*
X165434430Y-45471830D01*
X165624000Y-45188119D01*
X165813570Y-45471830D01*
X166309275Y-45803050D01*
X166894000Y-45919359D01*
X167478724Y-45803050D01*
X167974430Y-45471830D01*
X168164000Y-45188119D01*
X168353570Y-45471830D01*
X168849275Y-45803050D01*
X169434000Y-45919359D01*
X170018724Y-45803050D01*
X170514430Y-45471830D01*
X170704000Y-45188119D01*
X170893570Y-45471830D01*
X171389275Y-45803050D01*
X171974000Y-45919359D01*
X172558724Y-45803050D01*
X173054430Y-45471830D01*
X173244000Y-45188119D01*
X173433570Y-45471830D01*
X173929275Y-45803050D01*
X174514000Y-45919359D01*
X175098724Y-45803050D01*
X175594430Y-45471830D01*
X175925650Y-44976125D01*
X176012600Y-44538998D01*
X176012600Y-43721003D01*
X175925650Y-43283875D01*
X175594430Y-42788170D01*
X175098725Y-42456950D01*
X174514000Y-42340641D01*
X173929276Y-42456950D01*
X173433570Y-42788170D01*
X173244000Y-43071881D01*
X173054430Y-42788170D01*
X172558725Y-42456950D01*
X171974000Y-42340641D01*
X171389276Y-42456950D01*
X170893570Y-42788170D01*
X170704000Y-43071881D01*
X170514430Y-42788170D01*
X170018725Y-42456950D01*
X169434000Y-42340641D01*
X168849276Y-42456950D01*
X168353570Y-42788170D01*
X168164000Y-43071881D01*
X167974430Y-42788170D01*
X167478725Y-42456950D01*
X166894000Y-42340641D01*
X166309276Y-42456950D01*
X165813570Y-42788170D01*
X165624000Y-43071881D01*
X165434430Y-42788170D01*
X164938725Y-42456950D01*
X164354000Y-42340641D01*
X163769276Y-42456950D01*
X163273570Y-42788170D01*
X163084000Y-43071881D01*
X162894430Y-42788170D01*
X162398725Y-42456950D01*
X161814000Y-42340641D01*
X161229276Y-42456950D01*
X160733570Y-42788170D01*
X160544000Y-43071881D01*
X160354430Y-42788170D01*
X159858725Y-42456950D01*
X159274000Y-42340641D01*
X158689276Y-42456950D01*
X158193570Y-42788170D01*
X158004000Y-43071881D01*
X157814430Y-42788170D01*
X157318725Y-42456950D01*
X156734000Y-42340641D01*
X156149276Y-42456950D01*
X155653570Y-42788170D01*
X155464000Y-43071881D01*
X155274430Y-42788170D01*
X154778725Y-42456950D01*
X154194000Y-42340641D01*
X153609276Y-42456950D01*
X153113570Y-42788170D01*
X152924000Y-43071881D01*
X152734430Y-42788170D01*
X152238725Y-42456950D01*
X151654000Y-42340641D01*
X151069276Y-42456950D01*
X150573570Y-42788170D01*
X150384000Y-43071881D01*
X150194430Y-42788170D01*
X149698725Y-42456950D01*
X149114000Y-42340641D01*
X148529276Y-42456950D01*
X148033570Y-42788170D01*
X147844000Y-43071881D01*
X147654430Y-42788170D01*
X147158725Y-42456950D01*
X146574000Y-42340641D01*
X145989276Y-42456950D01*
X145493570Y-42788170D01*
X145304000Y-43071881D01*
X145114430Y-42788170D01*
X144618725Y-42456950D01*
X144034000Y-42340641D01*
X143449276Y-42456950D01*
X142953570Y-42788170D01*
X142764000Y-43071881D01*
X142574430Y-42788170D01*
X142078725Y-42456950D01*
X141494000Y-42340641D01*
X140909276Y-42456950D01*
X140413570Y-42788170D01*
X140224000Y-43071881D01*
X140034430Y-42788170D01*
X139538725Y-42456950D01*
X138954000Y-42340641D01*
X138369276Y-42456950D01*
X137873570Y-42788170D01*
X137684000Y-43071881D01*
X137494430Y-42788170D01*
X136998725Y-42456950D01*
X136414000Y-42340641D01*
X135829276Y-42456950D01*
X135333570Y-42788170D01*
X135144000Y-43071881D01*
X134954430Y-42788170D01*
X134458725Y-42456950D01*
X133874000Y-42340641D01*
X133289276Y-42456950D01*
X132793570Y-42788170D01*
X132604000Y-43071881D01*
X132414430Y-42788170D01*
X131918725Y-42456950D01*
X131334000Y-42340641D01*
X130749276Y-42456950D01*
X130253570Y-42788170D01*
X130055527Y-43084561D01*
X129763868Y-42719127D01*
X129250157Y-42435473D01*
X129153026Y-42413642D01*
X128921000Y-42534783D01*
X128667000Y-42534783D01*
X128434974Y-42413642D01*
X128337843Y-42435473D01*
X127824132Y-42719127D01*
X127504822Y-43119207D01*
X127283630Y-42788170D01*
X126787925Y-42456950D01*
X126203200Y-42340641D01*
X125618476Y-42456950D01*
X125122770Y-42788170D01*
X124791550Y-43283875D01*
X124704600Y-43721002D01*
X108444000Y-43721002D01*
X108444000Y-38855964D01*
X108501539Y-38289501D01*
X109067000Y-38289501D01*
X109067000Y-39350499D01*
X109473026Y-40330734D01*
X110223266Y-41080974D01*
X111203501Y-41487000D01*
X112264499Y-41487000D01*
X113244734Y-41080974D01*
X113994974Y-40330734D01*
X114401000Y-39350499D01*
X114401000Y-38289501D01*
X179067000Y-38289501D01*
X179067000Y-39350499D01*
X179473026Y-40330734D01*
X180223266Y-41080974D01*
X181203501Y-41487000D01*
X182264499Y-41487000D01*
X183244734Y-41080974D01*
X183994974Y-40330734D01*
X184401000Y-39350499D01*
X184401000Y-38289501D01*
X183994974Y-37309266D01*
X183244734Y-36559026D01*
X182264499Y-36153000D01*
X181203501Y-36153000D01*
X180223266Y-36559026D01*
X179473026Y-37309266D01*
X179067000Y-38289501D01*
X114401000Y-38289501D01*
X113994974Y-37309266D01*
X113244734Y-36559026D01*
X112264499Y-36153000D01*
X111203501Y-36153000D01*
X110223266Y-36559026D01*
X109473026Y-37309266D01*
X109067000Y-38289501D01*
X108501539Y-38289501D01*
X108514776Y-38159191D01*
X108713404Y-37525369D01*
X109035418Y-36944438D01*
X109467670Y-36440121D01*
X109992503Y-36033019D01*
X110588473Y-35739766D01*
X111239707Y-35570132D01*
X111761269Y-35530000D01*
X181698036Y-35530000D01*
X182394809Y-35600776D01*
G04 #@! TD*
M02*
