G04 #@! TF.GenerationSoftware,KiCad,Pcbnew,5.0.0*
G04 #@! TF.CreationDate,2018-07-29T15:48:31+02:00*
G04 #@! TF.ProjectId,led_leveldriver,6C65645F6C6576656C6472697665722E,rev?*
G04 #@! TF.SameCoordinates,Original*
G04 #@! TF.FileFunction,Soldermask,Top*
G04 #@! TF.FilePolarity,Negative*
%FSLAX46Y46*%
G04 Gerber Fmt 4.6, Leading zero omitted, Abs format (unit mm)*
G04 Created by KiCad (PCBNEW 5.0.0) date Sun Jul 29 15:48:31 2018*
%MOMM*%
%LPD*%
G01*
G04 APERTURE LIST*
%ADD10C,4.464000*%
%ADD11O,2.100000X2.100000*%
%ADD12R,2.100000X2.100000*%
%ADD13R,2.127200X2.650000*%
%ADD14O,2.127200X2.650000*%
%ADD15O,2.127200X2.127200*%
%ADD16O,2.000000X2.000000*%
%ADD17R,2.000000X2.000000*%
%ADD18C,3.200000*%
%ADD19R,3.200000X3.200000*%
%ADD20R,1.300000X1.200000*%
%ADD21R,1.300000X0.900000*%
%ADD22R,1.900000X1.000000*%
G04 APERTURE END LIST*
D10*
G04 #@! TO.C,REF\002A\002A*
X181734000Y-93820000D03*
G04 #@! TD*
G04 #@! TO.C,REF\002A\002A*
X111734000Y-93820000D03*
G04 #@! TD*
G04 #@! TO.C,REF\002A\002A*
X181734000Y-38820000D03*
G04 #@! TD*
D11*
G04 #@! TO.C,Output*
X126254000Y-85024000D03*
X128794000Y-85024000D03*
X131334000Y-85024000D03*
X133874000Y-85024000D03*
D12*
X136414000Y-85024000D03*
G04 #@! TD*
D13*
G04 #@! TO.C,U2*
X126254000Y-59370000D03*
D14*
X128794000Y-59370000D03*
X131334000Y-59370000D03*
X133874000Y-59370000D03*
X136414000Y-59370000D03*
X138954000Y-59370000D03*
X141494000Y-59370000D03*
X144034000Y-59370000D03*
X146574000Y-59370000D03*
X149114000Y-59370000D03*
X151654000Y-59370000D03*
X154194000Y-59370000D03*
X156734000Y-59370000D03*
X159274000Y-59370000D03*
X161814000Y-59370000D03*
X164354000Y-59370000D03*
X166894000Y-59370000D03*
X169434000Y-59370000D03*
X171974000Y-59370000D03*
X174514000Y-59370000D03*
X174514000Y-44130000D03*
X171974000Y-44130000D03*
X169434000Y-44130000D03*
X166894000Y-44130000D03*
X164354000Y-44130000D03*
X161814000Y-44130000D03*
X159274000Y-44130000D03*
X156734000Y-44130000D03*
X154194000Y-44130000D03*
X151654000Y-44130000D03*
X149114000Y-44130000D03*
X146574000Y-44130000D03*
X144034000Y-44130000D03*
X141494000Y-44130000D03*
X138954000Y-44130000D03*
X136414000Y-44130000D03*
X133874000Y-44130000D03*
X131334000Y-44130000D03*
X128794000Y-44130000D03*
X126203200Y-44130000D03*
D15*
X130064000Y-50470000D03*
X130064000Y-53010000D03*
G04 #@! TD*
D16*
G04 #@! TO.C,IC1*
X151654000Y-79690000D03*
X128794000Y-72070000D03*
X149114000Y-79690000D03*
X131334000Y-72070000D03*
X146574000Y-79690000D03*
X133874000Y-72070000D03*
X144034000Y-79690000D03*
X136414000Y-72070000D03*
X141494000Y-79690000D03*
X138954000Y-72070000D03*
X138954000Y-79690000D03*
X141494000Y-72070000D03*
X136414000Y-79690000D03*
X144034000Y-72070000D03*
X133874000Y-79690000D03*
X146574000Y-72070000D03*
X131334000Y-79690000D03*
X149114000Y-72070000D03*
X128794000Y-79690000D03*
D17*
X151654000Y-72070000D03*
G04 #@! TD*
D18*
G04 #@! TO.C,J2*
X117364000Y-60640000D03*
D19*
X117364000Y-55140000D03*
G04 #@! TD*
D20*
G04 #@! TO.C,Q1*
X162814000Y-66990000D03*
X160814000Y-67940000D03*
X160814000Y-66040000D03*
G04 #@! TD*
G04 #@! TO.C,Q2*
X162814000Y-73340000D03*
X160814000Y-74290000D03*
X160814000Y-72390000D03*
G04 #@! TD*
G04 #@! TO.C,Q3*
X160814000Y-77470000D03*
X160814000Y-79370000D03*
X162814000Y-78420000D03*
G04 #@! TD*
G04 #@! TO.C,Q4*
X160814000Y-83820000D03*
X160814000Y-85720000D03*
X162814000Y-84770000D03*
G04 #@! TD*
G04 #@! TO.C,Q5*
X170434000Y-66990000D03*
X168434000Y-67940000D03*
X168434000Y-66040000D03*
G04 #@! TD*
G04 #@! TO.C,Q6*
X175774000Y-66040000D03*
X175774000Y-67940000D03*
X177774000Y-66990000D03*
G04 #@! TD*
G04 #@! TO.C,Q7*
X178274000Y-84770000D03*
X176274000Y-85720000D03*
X176274000Y-83820000D03*
G04 #@! TD*
G04 #@! TO.C,Q8*
X168434000Y-83820000D03*
X168434000Y-85720000D03*
X170434000Y-84770000D03*
G04 #@! TD*
D21*
G04 #@! TO.C,R3*
X158639000Y-67740000D03*
X158639000Y-66240000D03*
G04 #@! TD*
G04 #@! TO.C,R4*
X158639000Y-72590000D03*
X158639000Y-74090000D03*
G04 #@! TD*
G04 #@! TO.C,R5*
X158639000Y-79170000D03*
X158639000Y-77670000D03*
G04 #@! TD*
G04 #@! TO.C,R6*
X158639000Y-84020000D03*
X158639000Y-85520000D03*
G04 #@! TD*
G04 #@! TO.C,R8*
X166259000Y-67740000D03*
X166259000Y-66240000D03*
G04 #@! TD*
G04 #@! TO.C,R9*
X173879000Y-66240000D03*
X173879000Y-67740000D03*
G04 #@! TD*
G04 #@! TO.C,R10*
X173879000Y-85520000D03*
X173879000Y-84020000D03*
G04 #@! TD*
G04 #@! TO.C,R11*
X166259000Y-84020000D03*
X166259000Y-85520000D03*
G04 #@! TD*
D22*
G04 #@! TO.C,U3*
X124654000Y-68260000D03*
X124654000Y-69530000D03*
X124654000Y-70800000D03*
X124654000Y-72070000D03*
X124654000Y-73340000D03*
X124654000Y-74610000D03*
X124654000Y-75880000D03*
X124654000Y-77150000D03*
X124654000Y-78420000D03*
X124654000Y-79690000D03*
X115154000Y-79690000D03*
X115154000Y-78420000D03*
X115154000Y-77150000D03*
X115154000Y-75880000D03*
X115154000Y-68260000D03*
X115154000Y-69530000D03*
X115154000Y-70800000D03*
X115154000Y-72070000D03*
X115154000Y-73340000D03*
X115154000Y-74610000D03*
G04 #@! TD*
D11*
G04 #@! TO.C,J1*
X171974000Y-79690000D03*
X169434000Y-79690000D03*
X171974000Y-77150000D03*
X169434000Y-77150000D03*
X171974000Y-74610000D03*
X169434000Y-74610000D03*
X171974000Y-72070000D03*
D12*
X169434000Y-72070000D03*
G04 #@! TD*
D10*
G04 #@! TO.C,REF\002A\002A*
X111734000Y-38820000D03*
G04 #@! TD*
M02*
