M48
INCH,TZ
T1C0.0157
T2C0.0315
T3C0.0394
T4C0.0400
T5C0.0551
T6C0.1260
%
G90
G05
T1
X4.5706Y-2.6374
X4.6206Y-3.1374
X4.7406Y-2.8374
X4.8206Y-2.7374
X4.8206Y-2.8874
X4.9206Y-2.6374
X5.1956Y-2.6374
X5.2706Y-1.8624
X6.3306Y-2.7324
X6.3306Y-2.9874
X6.3306Y-3.1924
X6.3956Y-3.3974
X6.6306Y-2.7324
X6.6306Y-3.4374
X6.9206Y-2.7324
X6.9406Y-3.4374
T2
X5.0706Y-2.8374
X5.0706Y-3.1374
X5.1706Y-2.8374
X5.1706Y-3.1374
X5.2706Y-2.8374
X5.2706Y-3.1374
X5.3706Y-2.8374
X5.3706Y-3.1374
X5.4706Y-2.8374
X5.4706Y-3.1374
X5.5706Y-2.8374
X5.5706Y-3.1374
X5.6706Y-2.8374
X5.6706Y-3.1374
X5.7706Y-2.8374
X5.7706Y-3.1374
X5.8706Y-2.8374
X5.8706Y-3.1374
X5.9706Y-2.8374
X5.9706Y-3.1374
T3
X4.9706Y-3.3474
X5.0706Y-3.3474
X5.1706Y-3.3474
X5.2706Y-3.3474
X5.3706Y-3.3474
X6.6706Y-2.8374
X6.6706Y-2.9374
X6.6706Y-3.0374
X6.6706Y-3.1374
X6.7706Y-2.8374
X6.7706Y-2.9374
X6.7706Y-3.0374
X6.7706Y-3.1374
T4
X4.9686Y-1.7374
X4.9706Y-2.3374
X5.0706Y-1.7374
X5.0706Y-2.3374
X5.1206Y-1.987
X5.1206Y-2.087
X5.1706Y-1.7374
X5.1706Y-2.3374
X5.2706Y-1.7374
X5.2706Y-2.3374
X5.3706Y-1.7374
X5.3706Y-2.3374
X5.4706Y-1.7374
X5.4706Y-2.3374
X5.5706Y-1.7374
X5.5706Y-2.3374
X5.6706Y-1.7374
X5.6706Y-2.3374
X5.7706Y-1.7374
X5.7706Y-2.3374
X5.8706Y-1.7374
X5.8706Y-2.3374
X5.9706Y-1.7374
X5.9706Y-2.3374
X6.0706Y-1.7374
X6.0706Y-2.3374
X6.1706Y-1.7374
X6.1706Y-2.3374
X6.2706Y-1.7374
X6.2706Y-2.3374
X6.3706Y-1.7374
X6.3706Y-2.3374
X6.4706Y-1.7374
X6.4706Y-2.3374
X6.5706Y-1.7374
X6.5706Y-2.3374
X6.6706Y-1.7374
X6.6706Y-2.3374
X6.7706Y-1.7374
X6.7706Y-2.3374
X6.8706Y-1.7374
X6.8706Y-2.3374
T5
X4.6206Y-2.1709
X4.6206Y-2.3874
T6
X4.399Y-3.6937
X7.1549Y-1.5283
X7.1549Y-3.6937
X4.399Y-1.5283
T0
M30
