G04 #@! TF.GenerationSoftware,KiCad,Pcbnew,5.0.0*
G04 #@! TF.CreationDate,2018-07-29T15:48:31+02:00*
G04 #@! TF.ProjectId,led_leveldriver,6C65645F6C6576656C6472697665722E,rev?*
G04 #@! TF.SameCoordinates,Original*
G04 #@! TF.FileFunction,Legend,Bot*
G04 #@! TF.FilePolarity,Positive*
%FSLAX46Y46*%
G04 Gerber Fmt 4.6, Leading zero omitted, Abs format (unit mm)*
G04 Created by KiCad (PCBNEW 5.0.0) date Sun Jul 29 15:48:31 2018*
%MOMM*%
%LPD*%
G01*
G04 APERTURE LIST*
%ADD10C,0.120000*%
%ADD11C,0.150000*%
G04 APERTURE END LIST*
D10*
G04 #@! TO.C,C1*
X135834000Y-46450000D02*
X139534000Y-46450000D01*
X139534000Y-46450000D02*
X139534000Y-54750000D01*
X135834000Y-46450000D02*
X135834000Y-54750000D01*
G04 #@! TO.C,C2*
X151709000Y-46450000D02*
X151709000Y-54750000D01*
X155409000Y-46450000D02*
X155409000Y-54750000D01*
X151709000Y-46450000D02*
X155409000Y-46450000D01*
G04 #@! TO.C,C3*
X170558000Y-54960000D02*
X169858000Y-54960000D01*
X169858000Y-56160000D02*
X170558000Y-56160000D01*
G04 #@! TO.C,C4*
X121524000Y-67660000D02*
X120824000Y-67660000D01*
X120824000Y-68860000D02*
X121524000Y-68860000D01*
G04 #@! TO.C,C5*
X148514000Y-75530000D02*
X148514000Y-76230000D01*
X149714000Y-76230000D02*
X149714000Y-75530000D01*
G04 #@! TO.C,R1*
X120674000Y-71480000D02*
X121674000Y-71480000D01*
X121674000Y-70120000D02*
X120674000Y-70120000D01*
G04 #@! TO.C,R2*
X117614000Y-68940000D02*
X118614000Y-68940000D01*
X118614000Y-67580000D02*
X117614000Y-67580000D01*
G04 #@! TO.C,R7*
X134554000Y-68240000D02*
X134554000Y-67240000D01*
X133194000Y-67240000D02*
X133194000Y-68240000D01*
G04 #@! TO.C,U1*
X141864000Y-55160000D02*
X147874000Y-55160000D01*
X144114000Y-48340000D02*
X147874000Y-48340000D01*
X147874000Y-55160000D02*
X147874000Y-53900000D01*
X147874000Y-48340000D02*
X147874000Y-49600000D01*
G04 #@! TO.C,C6*
X126654000Y-47524000D02*
X127354000Y-47524000D01*
X127354000Y-46324000D02*
X126654000Y-46324000D01*
G04 #@! TO.C,C1*
D11*
X134691142Y-51583333D02*
X134738761Y-51535714D01*
X134786380Y-51392857D01*
X134786380Y-51297619D01*
X134738761Y-51154761D01*
X134643523Y-51059523D01*
X134548285Y-51011904D01*
X134357809Y-50964285D01*
X134214952Y-50964285D01*
X134024476Y-51011904D01*
X133929238Y-51059523D01*
X133834000Y-51154761D01*
X133786380Y-51297619D01*
X133786380Y-51392857D01*
X133834000Y-51535714D01*
X133881619Y-51583333D01*
X134786380Y-52535714D02*
X134786380Y-51964285D01*
X134786380Y-52250000D02*
X133786380Y-52250000D01*
X133929238Y-52154761D01*
X134024476Y-52059523D01*
X134072095Y-51964285D01*
G04 #@! TO.C,C2*
X150566142Y-51583333D02*
X150613761Y-51535714D01*
X150661380Y-51392857D01*
X150661380Y-51297619D01*
X150613761Y-51154761D01*
X150518523Y-51059523D01*
X150423285Y-51011904D01*
X150232809Y-50964285D01*
X150089952Y-50964285D01*
X149899476Y-51011904D01*
X149804238Y-51059523D01*
X149709000Y-51154761D01*
X149661380Y-51297619D01*
X149661380Y-51392857D01*
X149709000Y-51535714D01*
X149756619Y-51583333D01*
X149756619Y-51964285D02*
X149709000Y-52011904D01*
X149661380Y-52107142D01*
X149661380Y-52345238D01*
X149709000Y-52440476D01*
X149756619Y-52488095D01*
X149851857Y-52535714D01*
X149947095Y-52535714D01*
X150089952Y-52488095D01*
X150661380Y-51916666D01*
X150661380Y-52535714D01*
G04 #@! TO.C,C3*
X170374666Y-57417142D02*
X170422285Y-57464761D01*
X170565142Y-57512380D01*
X170660380Y-57512380D01*
X170803238Y-57464761D01*
X170898476Y-57369523D01*
X170946095Y-57274285D01*
X170993714Y-57083809D01*
X170993714Y-56940952D01*
X170946095Y-56750476D01*
X170898476Y-56655238D01*
X170803238Y-56560000D01*
X170660380Y-56512380D01*
X170565142Y-56512380D01*
X170422285Y-56560000D01*
X170374666Y-56607619D01*
X170041333Y-56512380D02*
X169422285Y-56512380D01*
X169755619Y-56893333D01*
X169612761Y-56893333D01*
X169517523Y-56940952D01*
X169469904Y-56988571D01*
X169422285Y-57083809D01*
X169422285Y-57321904D01*
X169469904Y-57417142D01*
X169517523Y-57464761D01*
X169612761Y-57512380D01*
X169898476Y-57512380D01*
X169993714Y-57464761D01*
X170041333Y-57417142D01*
G04 #@! TO.C,C4*
X121340666Y-67117142D02*
X121388285Y-67164761D01*
X121531142Y-67212380D01*
X121626380Y-67212380D01*
X121769238Y-67164761D01*
X121864476Y-67069523D01*
X121912095Y-66974285D01*
X121959714Y-66783809D01*
X121959714Y-66640952D01*
X121912095Y-66450476D01*
X121864476Y-66355238D01*
X121769238Y-66260000D01*
X121626380Y-66212380D01*
X121531142Y-66212380D01*
X121388285Y-66260000D01*
X121340666Y-66307619D01*
X120483523Y-66545714D02*
X120483523Y-67212380D01*
X120721619Y-66164761D02*
X120959714Y-66879047D01*
X120340666Y-66879047D01*
G04 #@! TO.C,C5*
X147971142Y-75713333D02*
X148018761Y-75665714D01*
X148066380Y-75522857D01*
X148066380Y-75427619D01*
X148018761Y-75284761D01*
X147923523Y-75189523D01*
X147828285Y-75141904D01*
X147637809Y-75094285D01*
X147494952Y-75094285D01*
X147304476Y-75141904D01*
X147209238Y-75189523D01*
X147114000Y-75284761D01*
X147066380Y-75427619D01*
X147066380Y-75522857D01*
X147114000Y-75665714D01*
X147161619Y-75713333D01*
X147066380Y-76618095D02*
X147066380Y-76141904D01*
X147542571Y-76094285D01*
X147494952Y-76141904D01*
X147447333Y-76237142D01*
X147447333Y-76475238D01*
X147494952Y-76570476D01*
X147542571Y-76618095D01*
X147637809Y-76665714D01*
X147875904Y-76665714D01*
X147971142Y-76618095D01*
X148018761Y-76570476D01*
X148066380Y-76475238D01*
X148066380Y-76237142D01*
X148018761Y-76141904D01*
X147971142Y-76094285D01*
G04 #@! TO.C,R1*
X121340666Y-72702380D02*
X121674000Y-72226190D01*
X121912095Y-72702380D02*
X121912095Y-71702380D01*
X121531142Y-71702380D01*
X121435904Y-71750000D01*
X121388285Y-71797619D01*
X121340666Y-71892857D01*
X121340666Y-72035714D01*
X121388285Y-72130952D01*
X121435904Y-72178571D01*
X121531142Y-72226190D01*
X121912095Y-72226190D01*
X120388285Y-72702380D02*
X120959714Y-72702380D01*
X120674000Y-72702380D02*
X120674000Y-71702380D01*
X120769238Y-71845238D01*
X120864476Y-71940476D01*
X120959714Y-71988095D01*
G04 #@! TO.C,R2*
X118280666Y-67262380D02*
X118614000Y-66786190D01*
X118852095Y-67262380D02*
X118852095Y-66262380D01*
X118471142Y-66262380D01*
X118375904Y-66310000D01*
X118328285Y-66357619D01*
X118280666Y-66452857D01*
X118280666Y-66595714D01*
X118328285Y-66690952D01*
X118375904Y-66738571D01*
X118471142Y-66786190D01*
X118852095Y-66786190D01*
X117899714Y-66357619D02*
X117852095Y-66310000D01*
X117756857Y-66262380D01*
X117518761Y-66262380D01*
X117423523Y-66310000D01*
X117375904Y-66357619D01*
X117328285Y-66452857D01*
X117328285Y-66548095D01*
X117375904Y-66690952D01*
X117947333Y-67262380D01*
X117328285Y-67262380D01*
G04 #@! TO.C,R7*
X135776380Y-67573333D02*
X135300190Y-67240000D01*
X135776380Y-67001904D02*
X134776380Y-67001904D01*
X134776380Y-67382857D01*
X134824000Y-67478095D01*
X134871619Y-67525714D01*
X134966857Y-67573333D01*
X135109714Y-67573333D01*
X135204952Y-67525714D01*
X135252571Y-67478095D01*
X135300190Y-67382857D01*
X135300190Y-67001904D01*
X134776380Y-67906666D02*
X134776380Y-68573333D01*
X135776380Y-68144761D01*
G04 #@! TO.C,U1*
X146725904Y-55702380D02*
X146725904Y-56511904D01*
X146678285Y-56607142D01*
X146630666Y-56654761D01*
X146535428Y-56702380D01*
X146344952Y-56702380D01*
X146249714Y-56654761D01*
X146202095Y-56607142D01*
X146154476Y-56511904D01*
X146154476Y-55702380D01*
X145154476Y-56702380D02*
X145725904Y-56702380D01*
X145440190Y-56702380D02*
X145440190Y-55702380D01*
X145535428Y-55845238D01*
X145630666Y-55940476D01*
X145725904Y-55988095D01*
G04 #@! TO.C,C6*
X127170666Y-48781142D02*
X127218285Y-48828761D01*
X127361142Y-48876380D01*
X127456380Y-48876380D01*
X127599238Y-48828761D01*
X127694476Y-48733523D01*
X127742095Y-48638285D01*
X127789714Y-48447809D01*
X127789714Y-48304952D01*
X127742095Y-48114476D01*
X127694476Y-48019238D01*
X127599238Y-47924000D01*
X127456380Y-47876380D01*
X127361142Y-47876380D01*
X127218285Y-47924000D01*
X127170666Y-47971619D01*
X126313523Y-47876380D02*
X126504000Y-47876380D01*
X126599238Y-47924000D01*
X126646857Y-47971619D01*
X126742095Y-48114476D01*
X126789714Y-48304952D01*
X126789714Y-48685904D01*
X126742095Y-48781142D01*
X126694476Y-48828761D01*
X126599238Y-48876380D01*
X126408761Y-48876380D01*
X126313523Y-48828761D01*
X126265904Y-48781142D01*
X126218285Y-48685904D01*
X126218285Y-48447809D01*
X126265904Y-48352571D01*
X126313523Y-48304952D01*
X126408761Y-48257333D01*
X126599238Y-48257333D01*
X126694476Y-48304952D01*
X126742095Y-48352571D01*
X126789714Y-48447809D01*
G04 #@! TD*
M02*
