G04 #@! TF.GenerationSoftware,KiCad,Pcbnew,5.0.0*
G04 #@! TF.CreationDate,2018-07-29T15:48:31+02:00*
G04 #@! TF.ProjectId,led_leveldriver,6C65645F6C6576656C6472697665722E,rev?*
G04 #@! TF.SameCoordinates,Original*
G04 #@! TF.FileFunction,Legend,Top*
G04 #@! TF.FilePolarity,Positive*
%FSLAX46Y46*%
G04 Gerber Fmt 4.6, Leading zero omitted, Abs format (unit mm)*
G04 Created by KiCad (PCBNEW 5.0.0) date Sun Jul 29 15:48:31 2018*
%MOMM*%
%LPD*%
G01*
G04 APERTURE LIST*
%ADD10C,0.120000*%
%ADD11C,0.304800*%
%ADD12C,0.150000*%
%ADD13C,0.222250*%
G04 APERTURE END LIST*
D10*
G04 #@! TO.C,REF\002A\002A*
X184020000Y-93820000D02*
G75*
G03X184020000Y-93820000I-2286000J0D01*
G01*
X114020000Y-93820000D02*
G75*
G03X114020000Y-93820000I-2286000J0D01*
G01*
X184020000Y-38820000D02*
G75*
G03X184020000Y-38820000I-2286000J0D01*
G01*
G04 #@! TO.C,Output*
X137744000Y-83694000D02*
X137744000Y-85024000D01*
X136414000Y-83694000D02*
X137744000Y-83694000D01*
X135144000Y-83694000D02*
X135144000Y-86354000D01*
X135144000Y-86354000D02*
X124924000Y-86354000D01*
X135144000Y-83694000D02*
X124924000Y-83694000D01*
X124924000Y-83694000D02*
X124924000Y-86354000D01*
D11*
G04 #@! TO.C,U2*
X123714800Y-40250000D02*
X177114800Y-40250000D01*
X177114800Y-40250000D02*
X177114800Y-63250000D01*
X177114800Y-63250000D02*
X123714800Y-63250000D01*
X123714800Y-63250000D02*
X123714800Y-40250000D01*
D10*
G04 #@! TO.C,IC1*
X152984000Y-78530000D02*
X152984000Y-76880000D01*
X127464000Y-78530000D02*
X152984000Y-78530000D01*
X127464000Y-73230000D02*
X127464000Y-78530000D01*
X152984000Y-73230000D02*
X127464000Y-73230000D01*
X152984000Y-74880000D02*
X152984000Y-73230000D01*
X152984000Y-76880000D02*
G75*
G02X152984000Y-74880000I0J1000000D01*
G01*
G04 #@! TO.C,J2*
X114314000Y-52540000D02*
X114314000Y-55390000D01*
X117164000Y-52540000D02*
X114314000Y-52540000D01*
X119164000Y-64090000D02*
X117364000Y-64090000D01*
X119164000Y-62690000D02*
X119164000Y-64090000D01*
X120164000Y-62690000D02*
X119164000Y-62690000D01*
X120164000Y-52790000D02*
X120164000Y-62690000D01*
X117364000Y-52790000D02*
X120164000Y-52790000D01*
X115564000Y-64090000D02*
X117364000Y-64090000D01*
X115564000Y-62690000D02*
X115564000Y-64090000D01*
X114564000Y-62690000D02*
X115564000Y-62690000D01*
X114564000Y-52790000D02*
X114564000Y-62690000D01*
X117364000Y-52790000D02*
X114564000Y-52790000D01*
G04 #@! TO.C,Q1*
X162574000Y-68570000D02*
X161114000Y-68570000D01*
X162574000Y-65410000D02*
X160414000Y-65410000D01*
X162574000Y-65410000D02*
X162574000Y-66340000D01*
X162574000Y-68570000D02*
X162574000Y-67640000D01*
G04 #@! TO.C,Q2*
X162574000Y-74920000D02*
X161114000Y-74920000D01*
X162574000Y-71760000D02*
X160414000Y-71760000D01*
X162574000Y-71760000D02*
X162574000Y-72690000D01*
X162574000Y-74920000D02*
X162574000Y-73990000D01*
G04 #@! TO.C,Q3*
X162574000Y-80000000D02*
X162574000Y-79070000D01*
X162574000Y-76840000D02*
X162574000Y-77770000D01*
X162574000Y-76840000D02*
X160414000Y-76840000D01*
X162574000Y-80000000D02*
X161114000Y-80000000D01*
G04 #@! TO.C,Q4*
X162574000Y-86350000D02*
X162574000Y-85420000D01*
X162574000Y-83190000D02*
X162574000Y-84120000D01*
X162574000Y-83190000D02*
X160414000Y-83190000D01*
X162574000Y-86350000D02*
X161114000Y-86350000D01*
G04 #@! TO.C,Q5*
X170194000Y-68570000D02*
X168734000Y-68570000D01*
X170194000Y-65410000D02*
X168034000Y-65410000D01*
X170194000Y-65410000D02*
X170194000Y-66340000D01*
X170194000Y-68570000D02*
X170194000Y-67640000D01*
G04 #@! TO.C,Q6*
X177534000Y-68570000D02*
X177534000Y-67640000D01*
X177534000Y-65410000D02*
X177534000Y-66340000D01*
X177534000Y-65410000D02*
X175374000Y-65410000D01*
X177534000Y-68570000D02*
X176074000Y-68570000D01*
G04 #@! TO.C,Q7*
X178034000Y-86350000D02*
X176574000Y-86350000D01*
X178034000Y-83190000D02*
X175874000Y-83190000D01*
X178034000Y-83190000D02*
X178034000Y-84120000D01*
X178034000Y-86350000D02*
X178034000Y-85420000D01*
G04 #@! TO.C,Q8*
X170194000Y-86350000D02*
X170194000Y-85420000D01*
X170194000Y-83190000D02*
X170194000Y-84120000D01*
X170194000Y-83190000D02*
X168034000Y-83190000D01*
X170194000Y-86350000D02*
X168734000Y-86350000D01*
G04 #@! TO.C,R3*
X159319000Y-66490000D02*
X159319000Y-67490000D01*
X157959000Y-67490000D02*
X157959000Y-66490000D01*
G04 #@! TO.C,R4*
X157959000Y-73840000D02*
X157959000Y-72840000D01*
X159319000Y-72840000D02*
X159319000Y-73840000D01*
G04 #@! TO.C,R5*
X159319000Y-77920000D02*
X159319000Y-78920000D01*
X157959000Y-78920000D02*
X157959000Y-77920000D01*
G04 #@! TO.C,R6*
X157959000Y-85270000D02*
X157959000Y-84270000D01*
X159319000Y-84270000D02*
X159319000Y-85270000D01*
G04 #@! TO.C,R8*
X166939000Y-66490000D02*
X166939000Y-67490000D01*
X165579000Y-67490000D02*
X165579000Y-66490000D01*
G04 #@! TO.C,R9*
X173199000Y-67490000D02*
X173199000Y-66490000D01*
X174559000Y-66490000D02*
X174559000Y-67490000D01*
G04 #@! TO.C,R10*
X174559000Y-84270000D02*
X174559000Y-85270000D01*
X173199000Y-85270000D02*
X173199000Y-84270000D01*
G04 #@! TO.C,R11*
X165579000Y-85270000D02*
X165579000Y-84270000D01*
X166939000Y-84270000D02*
X166939000Y-85270000D01*
G04 #@! TO.C,U3*
X114904000Y-67445000D02*
X119904000Y-67445000D01*
X116904000Y-80505000D02*
X122904000Y-80505000D01*
G04 #@! TO.C,J1*
X168104000Y-70740000D02*
X169434000Y-70740000D01*
X168104000Y-72070000D02*
X168104000Y-70740000D01*
X170704000Y-70740000D02*
X173304000Y-70740000D01*
X170704000Y-73340000D02*
X170704000Y-70740000D01*
X168104000Y-73340000D02*
X170704000Y-73340000D01*
X173304000Y-70740000D02*
X173304000Y-81020000D01*
X168104000Y-73340000D02*
X168104000Y-81020000D01*
X168104000Y-81020000D02*
X173304000Y-81020000D01*
G04 #@! TO.C,REF\002A\002A*
X114020000Y-38820000D02*
G75*
G03X114020000Y-38820000I-2286000J0D01*
G01*
G04 #@! TO.C,Output*
D12*
X129564190Y-87270380D02*
X129754666Y-87270380D01*
X129849904Y-87318000D01*
X129945142Y-87413238D01*
X129992761Y-87603714D01*
X129992761Y-87937047D01*
X129945142Y-88127523D01*
X129849904Y-88222761D01*
X129754666Y-88270380D01*
X129564190Y-88270380D01*
X129468952Y-88222761D01*
X129373714Y-88127523D01*
X129326095Y-87937047D01*
X129326095Y-87603714D01*
X129373714Y-87413238D01*
X129468952Y-87318000D01*
X129564190Y-87270380D01*
X130849904Y-87603714D02*
X130849904Y-88270380D01*
X130421333Y-87603714D02*
X130421333Y-88127523D01*
X130468952Y-88222761D01*
X130564190Y-88270380D01*
X130707047Y-88270380D01*
X130802285Y-88222761D01*
X130849904Y-88175142D01*
X131183238Y-87603714D02*
X131564190Y-87603714D01*
X131326095Y-87270380D02*
X131326095Y-88127523D01*
X131373714Y-88222761D01*
X131468952Y-88270380D01*
X131564190Y-88270380D01*
X131897523Y-87603714D02*
X131897523Y-88603714D01*
X131897523Y-87651333D02*
X131992761Y-87603714D01*
X132183238Y-87603714D01*
X132278476Y-87651333D01*
X132326095Y-87698952D01*
X132373714Y-87794190D01*
X132373714Y-88079904D01*
X132326095Y-88175142D01*
X132278476Y-88222761D01*
X132183238Y-88270380D01*
X131992761Y-88270380D01*
X131897523Y-88222761D01*
X133230857Y-87603714D02*
X133230857Y-88270380D01*
X132802285Y-87603714D02*
X132802285Y-88127523D01*
X132849904Y-88222761D01*
X132945142Y-88270380D01*
X133088000Y-88270380D01*
X133183238Y-88222761D01*
X133230857Y-88175142D01*
X133564190Y-87603714D02*
X133945142Y-87603714D01*
X133707047Y-87270380D02*
X133707047Y-88127523D01*
X133754666Y-88222761D01*
X133849904Y-88270380D01*
X133945142Y-88270380D01*
G04 #@! TO.C,U2*
D13*
X175424166Y-52884533D02*
X176143833Y-52884533D01*
X176228500Y-52842200D01*
X176270833Y-52799866D01*
X176313166Y-52715200D01*
X176313166Y-52545866D01*
X176270833Y-52461200D01*
X176228500Y-52418866D01*
X176143833Y-52376533D01*
X175424166Y-52376533D01*
X175508833Y-51995533D02*
X175466500Y-51953200D01*
X175424166Y-51868533D01*
X175424166Y-51656866D01*
X175466500Y-51572200D01*
X175508833Y-51529866D01*
X175593500Y-51487533D01*
X175678166Y-51487533D01*
X175805166Y-51529866D01*
X176313166Y-52037866D01*
X176313166Y-51487533D01*
D11*
D13*
X143479433Y-51330900D02*
X143606433Y-51373233D01*
X143648766Y-51415566D01*
X143691100Y-51500233D01*
X143691100Y-51627233D01*
X143648766Y-51711900D01*
X143606433Y-51754233D01*
X143521766Y-51796566D01*
X143183100Y-51796566D01*
X143183100Y-50907566D01*
X143479433Y-50907566D01*
X143564100Y-50949900D01*
X143606433Y-50992233D01*
X143648766Y-51076900D01*
X143648766Y-51161566D01*
X143606433Y-51246233D01*
X143564100Y-51288566D01*
X143479433Y-51330900D01*
X143183100Y-51330900D01*
X144199100Y-51796566D02*
X144114433Y-51754233D01*
X144072100Y-51669566D01*
X144072100Y-50907566D01*
X144918766Y-51203900D02*
X144918766Y-51796566D01*
X144537766Y-51203900D02*
X144537766Y-51669566D01*
X144580100Y-51754233D01*
X144664766Y-51796566D01*
X144791766Y-51796566D01*
X144876433Y-51754233D01*
X144918766Y-51711900D01*
X145680766Y-51754233D02*
X145596100Y-51796566D01*
X145426766Y-51796566D01*
X145342100Y-51754233D01*
X145299766Y-51669566D01*
X145299766Y-51330900D01*
X145342100Y-51246233D01*
X145426766Y-51203900D01*
X145596100Y-51203900D01*
X145680766Y-51246233D01*
X145723100Y-51330900D01*
X145723100Y-51415566D01*
X145299766Y-51500233D01*
X146104100Y-51796566D02*
X146104100Y-50907566D01*
X146442766Y-50907566D01*
X146527433Y-50949900D01*
X146569766Y-50992233D01*
X146612100Y-51076900D01*
X146612100Y-51203900D01*
X146569766Y-51288566D01*
X146527433Y-51330900D01*
X146442766Y-51373233D01*
X146104100Y-51373233D01*
X146993100Y-51796566D02*
X146993100Y-51203900D01*
X146993100Y-50907566D02*
X146950766Y-50949900D01*
X146993100Y-50992233D01*
X147035433Y-50949900D01*
X146993100Y-50907566D01*
X146993100Y-50992233D01*
X147543433Y-51796566D02*
X147458766Y-51754233D01*
X147416433Y-51669566D01*
X147416433Y-50907566D01*
X148009100Y-51796566D02*
X147924433Y-51754233D01*
X147882100Y-51669566D01*
X147882100Y-50907566D01*
X148136100Y-51881233D02*
X148813433Y-51881233D01*
X148982766Y-51754233D02*
X149109766Y-51796566D01*
X149321433Y-51796566D01*
X149406100Y-51754233D01*
X149448433Y-51711900D01*
X149490766Y-51627233D01*
X149490766Y-51542566D01*
X149448433Y-51457900D01*
X149406100Y-51415566D01*
X149321433Y-51373233D01*
X149152100Y-51330900D01*
X149067433Y-51288566D01*
X149025100Y-51246233D01*
X148982766Y-51161566D01*
X148982766Y-51076900D01*
X149025100Y-50992233D01*
X149067433Y-50949900D01*
X149152100Y-50907566D01*
X149363766Y-50907566D01*
X149490766Y-50949900D01*
X149744766Y-50907566D02*
X150252766Y-50907566D01*
X149998766Y-51796566D02*
X149998766Y-50907566D01*
X150549100Y-51796566D02*
X150549100Y-50907566D01*
X150845433Y-51542566D01*
X151141766Y-50907566D01*
X151141766Y-51796566D01*
X151480433Y-50907566D02*
X152030766Y-50907566D01*
X151734433Y-51246233D01*
X151861433Y-51246233D01*
X151946100Y-51288566D01*
X151988433Y-51330900D01*
X152030766Y-51415566D01*
X152030766Y-51627233D01*
X151988433Y-51711900D01*
X151946100Y-51754233D01*
X151861433Y-51796566D01*
X151607433Y-51796566D01*
X151522766Y-51754233D01*
X151480433Y-51711900D01*
X152369433Y-50992233D02*
X152411766Y-50949900D01*
X152496433Y-50907566D01*
X152708100Y-50907566D01*
X152792766Y-50949900D01*
X152835100Y-50992233D01*
X152877433Y-51076900D01*
X152877433Y-51161566D01*
X152835100Y-51288566D01*
X152327100Y-51796566D01*
X152877433Y-51796566D01*
X153554766Y-51330900D02*
X153258433Y-51330900D01*
X153258433Y-51796566D02*
X153258433Y-50907566D01*
X153681766Y-50907566D01*
X154486100Y-51796566D02*
X153978100Y-51796566D01*
X154232100Y-51796566D02*
X154232100Y-50907566D01*
X154147433Y-51034566D01*
X154062766Y-51119233D01*
X153978100Y-51161566D01*
X155036433Y-50907566D02*
X155121100Y-50907566D01*
X155205766Y-50949900D01*
X155248100Y-50992233D01*
X155290433Y-51076900D01*
X155332766Y-51246233D01*
X155332766Y-51457900D01*
X155290433Y-51627233D01*
X155248100Y-51711900D01*
X155205766Y-51754233D01*
X155121100Y-51796566D01*
X155036433Y-51796566D01*
X154951766Y-51754233D01*
X154909433Y-51711900D01*
X154867100Y-51627233D01*
X154824766Y-51457900D01*
X154824766Y-51246233D01*
X154867100Y-51076900D01*
X154909433Y-50992233D01*
X154951766Y-50949900D01*
X155036433Y-50907566D01*
X155629100Y-50907566D02*
X156179433Y-50907566D01*
X155883100Y-51246233D01*
X156010100Y-51246233D01*
X156094766Y-51288566D01*
X156137100Y-51330900D01*
X156179433Y-51415566D01*
X156179433Y-51627233D01*
X156137100Y-51711900D01*
X156094766Y-51754233D01*
X156010100Y-51796566D01*
X155756100Y-51796566D01*
X155671433Y-51754233D01*
X155629100Y-51711900D01*
X157068433Y-51711900D02*
X157026100Y-51754233D01*
X156899100Y-51796566D01*
X156814433Y-51796566D01*
X156687433Y-51754233D01*
X156602766Y-51669566D01*
X156560433Y-51584900D01*
X156518100Y-51415566D01*
X156518100Y-51288566D01*
X156560433Y-51119233D01*
X156602766Y-51034566D01*
X156687433Y-50949900D01*
X156814433Y-50907566D01*
X156899100Y-50907566D01*
X157026100Y-50949900D01*
X157068433Y-50992233D01*
G04 #@! TO.C,IC1*
D12*
X154436380Y-76856190D02*
X153436380Y-76856190D01*
X154341142Y-75808571D02*
X154388761Y-75856190D01*
X154436380Y-75999047D01*
X154436380Y-76094285D01*
X154388761Y-76237142D01*
X154293523Y-76332380D01*
X154198285Y-76380000D01*
X154007809Y-76427619D01*
X153864952Y-76427619D01*
X153674476Y-76380000D01*
X153579238Y-76332380D01*
X153484000Y-76237142D01*
X153436380Y-76094285D01*
X153436380Y-75999047D01*
X153484000Y-75856190D01*
X153531619Y-75808571D01*
X154436380Y-74856190D02*
X154436380Y-75427619D01*
X154436380Y-75141904D02*
X153436380Y-75141904D01*
X153579238Y-75237142D01*
X153674476Y-75332380D01*
X153722095Y-75427619D01*
G04 #@! TO.C,J2*
X117030666Y-64592380D02*
X117030666Y-65306666D01*
X116983047Y-65449523D01*
X116887809Y-65544761D01*
X116744952Y-65592380D01*
X116649714Y-65592380D01*
X117459238Y-64687619D02*
X117506857Y-64640000D01*
X117602095Y-64592380D01*
X117840190Y-64592380D01*
X117935428Y-64640000D01*
X117983047Y-64687619D01*
X118030666Y-64782857D01*
X118030666Y-64878095D01*
X117983047Y-65020952D01*
X117411619Y-65592380D01*
X118030666Y-65592380D01*
G04 #@! TO.C,Q1*
X161718761Y-65037619D02*
X161623523Y-64990000D01*
X161528285Y-64894761D01*
X161385428Y-64751904D01*
X161290190Y-64704285D01*
X161194952Y-64704285D01*
X161242571Y-64942380D02*
X161147333Y-64894761D01*
X161052095Y-64799523D01*
X161004476Y-64609047D01*
X161004476Y-64275714D01*
X161052095Y-64085238D01*
X161147333Y-63990000D01*
X161242571Y-63942380D01*
X161433047Y-63942380D01*
X161528285Y-63990000D01*
X161623523Y-64085238D01*
X161671142Y-64275714D01*
X161671142Y-64609047D01*
X161623523Y-64799523D01*
X161528285Y-64894761D01*
X161433047Y-64942380D01*
X161242571Y-64942380D01*
X162623523Y-64942380D02*
X162052095Y-64942380D01*
X162337809Y-64942380D02*
X162337809Y-63942380D01*
X162242571Y-64085238D01*
X162147333Y-64180476D01*
X162052095Y-64228095D01*
G04 #@! TO.C,Q2*
X161718761Y-71387619D02*
X161623523Y-71340000D01*
X161528285Y-71244761D01*
X161385428Y-71101904D01*
X161290190Y-71054285D01*
X161194952Y-71054285D01*
X161242571Y-71292380D02*
X161147333Y-71244761D01*
X161052095Y-71149523D01*
X161004476Y-70959047D01*
X161004476Y-70625714D01*
X161052095Y-70435238D01*
X161147333Y-70340000D01*
X161242571Y-70292380D01*
X161433047Y-70292380D01*
X161528285Y-70340000D01*
X161623523Y-70435238D01*
X161671142Y-70625714D01*
X161671142Y-70959047D01*
X161623523Y-71149523D01*
X161528285Y-71244761D01*
X161433047Y-71292380D01*
X161242571Y-71292380D01*
X162052095Y-70387619D02*
X162099714Y-70340000D01*
X162194952Y-70292380D01*
X162433047Y-70292380D01*
X162528285Y-70340000D01*
X162575904Y-70387619D01*
X162623523Y-70482857D01*
X162623523Y-70578095D01*
X162575904Y-70720952D01*
X162004476Y-71292380D01*
X162623523Y-71292380D01*
G04 #@! TO.C,Q3*
X161718761Y-76467619D02*
X161623523Y-76420000D01*
X161528285Y-76324761D01*
X161385428Y-76181904D01*
X161290190Y-76134285D01*
X161194952Y-76134285D01*
X161242571Y-76372380D02*
X161147333Y-76324761D01*
X161052095Y-76229523D01*
X161004476Y-76039047D01*
X161004476Y-75705714D01*
X161052095Y-75515238D01*
X161147333Y-75420000D01*
X161242571Y-75372380D01*
X161433047Y-75372380D01*
X161528285Y-75420000D01*
X161623523Y-75515238D01*
X161671142Y-75705714D01*
X161671142Y-76039047D01*
X161623523Y-76229523D01*
X161528285Y-76324761D01*
X161433047Y-76372380D01*
X161242571Y-76372380D01*
X162004476Y-75372380D02*
X162623523Y-75372380D01*
X162290190Y-75753333D01*
X162433047Y-75753333D01*
X162528285Y-75800952D01*
X162575904Y-75848571D01*
X162623523Y-75943809D01*
X162623523Y-76181904D01*
X162575904Y-76277142D01*
X162528285Y-76324761D01*
X162433047Y-76372380D01*
X162147333Y-76372380D01*
X162052095Y-76324761D01*
X162004476Y-76277142D01*
G04 #@! TO.C,Q4*
X161718761Y-82817619D02*
X161623523Y-82770000D01*
X161528285Y-82674761D01*
X161385428Y-82531904D01*
X161290190Y-82484285D01*
X161194952Y-82484285D01*
X161242571Y-82722380D02*
X161147333Y-82674761D01*
X161052095Y-82579523D01*
X161004476Y-82389047D01*
X161004476Y-82055714D01*
X161052095Y-81865238D01*
X161147333Y-81770000D01*
X161242571Y-81722380D01*
X161433047Y-81722380D01*
X161528285Y-81770000D01*
X161623523Y-81865238D01*
X161671142Y-82055714D01*
X161671142Y-82389047D01*
X161623523Y-82579523D01*
X161528285Y-82674761D01*
X161433047Y-82722380D01*
X161242571Y-82722380D01*
X162528285Y-82055714D02*
X162528285Y-82722380D01*
X162290190Y-81674761D02*
X162052095Y-82389047D01*
X162671142Y-82389047D01*
G04 #@! TO.C,Q5*
X169338761Y-65037619D02*
X169243523Y-64990000D01*
X169148285Y-64894761D01*
X169005428Y-64751904D01*
X168910190Y-64704285D01*
X168814952Y-64704285D01*
X168862571Y-64942380D02*
X168767333Y-64894761D01*
X168672095Y-64799523D01*
X168624476Y-64609047D01*
X168624476Y-64275714D01*
X168672095Y-64085238D01*
X168767333Y-63990000D01*
X168862571Y-63942380D01*
X169053047Y-63942380D01*
X169148285Y-63990000D01*
X169243523Y-64085238D01*
X169291142Y-64275714D01*
X169291142Y-64609047D01*
X169243523Y-64799523D01*
X169148285Y-64894761D01*
X169053047Y-64942380D01*
X168862571Y-64942380D01*
X170195904Y-63942380D02*
X169719714Y-63942380D01*
X169672095Y-64418571D01*
X169719714Y-64370952D01*
X169814952Y-64323333D01*
X170053047Y-64323333D01*
X170148285Y-64370952D01*
X170195904Y-64418571D01*
X170243523Y-64513809D01*
X170243523Y-64751904D01*
X170195904Y-64847142D01*
X170148285Y-64894761D01*
X170053047Y-64942380D01*
X169814952Y-64942380D01*
X169719714Y-64894761D01*
X169672095Y-64847142D01*
G04 #@! TO.C,Q6*
X176678761Y-65037619D02*
X176583523Y-64990000D01*
X176488285Y-64894761D01*
X176345428Y-64751904D01*
X176250190Y-64704285D01*
X176154952Y-64704285D01*
X176202571Y-64942380D02*
X176107333Y-64894761D01*
X176012095Y-64799523D01*
X175964476Y-64609047D01*
X175964476Y-64275714D01*
X176012095Y-64085238D01*
X176107333Y-63990000D01*
X176202571Y-63942380D01*
X176393047Y-63942380D01*
X176488285Y-63990000D01*
X176583523Y-64085238D01*
X176631142Y-64275714D01*
X176631142Y-64609047D01*
X176583523Y-64799523D01*
X176488285Y-64894761D01*
X176393047Y-64942380D01*
X176202571Y-64942380D01*
X177488285Y-63942380D02*
X177297809Y-63942380D01*
X177202571Y-63990000D01*
X177154952Y-64037619D01*
X177059714Y-64180476D01*
X177012095Y-64370952D01*
X177012095Y-64751904D01*
X177059714Y-64847142D01*
X177107333Y-64894761D01*
X177202571Y-64942380D01*
X177393047Y-64942380D01*
X177488285Y-64894761D01*
X177535904Y-64847142D01*
X177583523Y-64751904D01*
X177583523Y-64513809D01*
X177535904Y-64418571D01*
X177488285Y-64370952D01*
X177393047Y-64323333D01*
X177202571Y-64323333D01*
X177107333Y-64370952D01*
X177059714Y-64418571D01*
X177012095Y-64513809D01*
G04 #@! TO.C,Q7*
X177178761Y-82817619D02*
X177083523Y-82770000D01*
X176988285Y-82674761D01*
X176845428Y-82531904D01*
X176750190Y-82484285D01*
X176654952Y-82484285D01*
X176702571Y-82722380D02*
X176607333Y-82674761D01*
X176512095Y-82579523D01*
X176464476Y-82389047D01*
X176464476Y-82055714D01*
X176512095Y-81865238D01*
X176607333Y-81770000D01*
X176702571Y-81722380D01*
X176893047Y-81722380D01*
X176988285Y-81770000D01*
X177083523Y-81865238D01*
X177131142Y-82055714D01*
X177131142Y-82389047D01*
X177083523Y-82579523D01*
X176988285Y-82674761D01*
X176893047Y-82722380D01*
X176702571Y-82722380D01*
X177464476Y-81722380D02*
X178131142Y-81722380D01*
X177702571Y-82722380D01*
G04 #@! TO.C,Q8*
X169338761Y-82817619D02*
X169243523Y-82770000D01*
X169148285Y-82674761D01*
X169005428Y-82531904D01*
X168910190Y-82484285D01*
X168814952Y-82484285D01*
X168862571Y-82722380D02*
X168767333Y-82674761D01*
X168672095Y-82579523D01*
X168624476Y-82389047D01*
X168624476Y-82055714D01*
X168672095Y-81865238D01*
X168767333Y-81770000D01*
X168862571Y-81722380D01*
X169053047Y-81722380D01*
X169148285Y-81770000D01*
X169243523Y-81865238D01*
X169291142Y-82055714D01*
X169291142Y-82389047D01*
X169243523Y-82579523D01*
X169148285Y-82674761D01*
X169053047Y-82722380D01*
X168862571Y-82722380D01*
X169862571Y-82150952D02*
X169767333Y-82103333D01*
X169719714Y-82055714D01*
X169672095Y-81960476D01*
X169672095Y-81912857D01*
X169719714Y-81817619D01*
X169767333Y-81770000D01*
X169862571Y-81722380D01*
X170053047Y-81722380D01*
X170148285Y-81770000D01*
X170195904Y-81817619D01*
X170243523Y-81912857D01*
X170243523Y-81960476D01*
X170195904Y-82055714D01*
X170148285Y-82103333D01*
X170053047Y-82150952D01*
X169862571Y-82150952D01*
X169767333Y-82198571D01*
X169719714Y-82246190D01*
X169672095Y-82341428D01*
X169672095Y-82531904D01*
X169719714Y-82627142D01*
X169767333Y-82674761D01*
X169862571Y-82722380D01*
X170053047Y-82722380D01*
X170148285Y-82674761D01*
X170195904Y-82627142D01*
X170243523Y-82531904D01*
X170243523Y-82341428D01*
X170195904Y-82246190D01*
X170148285Y-82198571D01*
X170053047Y-82150952D01*
G04 #@! TO.C,R3*
X157641380Y-67156666D02*
X157165190Y-67490000D01*
X157641380Y-67728095D02*
X156641380Y-67728095D01*
X156641380Y-67347142D01*
X156689000Y-67251904D01*
X156736619Y-67204285D01*
X156831857Y-67156666D01*
X156974714Y-67156666D01*
X157069952Y-67204285D01*
X157117571Y-67251904D01*
X157165190Y-67347142D01*
X157165190Y-67728095D01*
X156641380Y-66823333D02*
X156641380Y-66204285D01*
X157022333Y-66537619D01*
X157022333Y-66394761D01*
X157069952Y-66299523D01*
X157117571Y-66251904D01*
X157212809Y-66204285D01*
X157450904Y-66204285D01*
X157546142Y-66251904D01*
X157593761Y-66299523D01*
X157641380Y-66394761D01*
X157641380Y-66680476D01*
X157593761Y-66775714D01*
X157546142Y-66823333D01*
G04 #@! TO.C,R4*
X157641380Y-73506666D02*
X157165190Y-73840000D01*
X157641380Y-74078095D02*
X156641380Y-74078095D01*
X156641380Y-73697142D01*
X156689000Y-73601904D01*
X156736619Y-73554285D01*
X156831857Y-73506666D01*
X156974714Y-73506666D01*
X157069952Y-73554285D01*
X157117571Y-73601904D01*
X157165190Y-73697142D01*
X157165190Y-74078095D01*
X156974714Y-72649523D02*
X157641380Y-72649523D01*
X156593761Y-72887619D02*
X157308047Y-73125714D01*
X157308047Y-72506666D01*
G04 #@! TO.C,R5*
X157641380Y-78586666D02*
X157165190Y-78920000D01*
X157641380Y-79158095D02*
X156641380Y-79158095D01*
X156641380Y-78777142D01*
X156689000Y-78681904D01*
X156736619Y-78634285D01*
X156831857Y-78586666D01*
X156974714Y-78586666D01*
X157069952Y-78634285D01*
X157117571Y-78681904D01*
X157165190Y-78777142D01*
X157165190Y-79158095D01*
X156641380Y-77681904D02*
X156641380Y-78158095D01*
X157117571Y-78205714D01*
X157069952Y-78158095D01*
X157022333Y-78062857D01*
X157022333Y-77824761D01*
X157069952Y-77729523D01*
X157117571Y-77681904D01*
X157212809Y-77634285D01*
X157450904Y-77634285D01*
X157546142Y-77681904D01*
X157593761Y-77729523D01*
X157641380Y-77824761D01*
X157641380Y-78062857D01*
X157593761Y-78158095D01*
X157546142Y-78205714D01*
G04 #@! TO.C,R6*
X157641380Y-84936666D02*
X157165190Y-85270000D01*
X157641380Y-85508095D02*
X156641380Y-85508095D01*
X156641380Y-85127142D01*
X156689000Y-85031904D01*
X156736619Y-84984285D01*
X156831857Y-84936666D01*
X156974714Y-84936666D01*
X157069952Y-84984285D01*
X157117571Y-85031904D01*
X157165190Y-85127142D01*
X157165190Y-85508095D01*
X156641380Y-84079523D02*
X156641380Y-84270000D01*
X156689000Y-84365238D01*
X156736619Y-84412857D01*
X156879476Y-84508095D01*
X157069952Y-84555714D01*
X157450904Y-84555714D01*
X157546142Y-84508095D01*
X157593761Y-84460476D01*
X157641380Y-84365238D01*
X157641380Y-84174761D01*
X157593761Y-84079523D01*
X157546142Y-84031904D01*
X157450904Y-83984285D01*
X157212809Y-83984285D01*
X157117571Y-84031904D01*
X157069952Y-84079523D01*
X157022333Y-84174761D01*
X157022333Y-84365238D01*
X157069952Y-84460476D01*
X157117571Y-84508095D01*
X157212809Y-84555714D01*
G04 #@! TO.C,R8*
X165261380Y-67156666D02*
X164785190Y-67490000D01*
X165261380Y-67728095D02*
X164261380Y-67728095D01*
X164261380Y-67347142D01*
X164309000Y-67251904D01*
X164356619Y-67204285D01*
X164451857Y-67156666D01*
X164594714Y-67156666D01*
X164689952Y-67204285D01*
X164737571Y-67251904D01*
X164785190Y-67347142D01*
X164785190Y-67728095D01*
X164689952Y-66585238D02*
X164642333Y-66680476D01*
X164594714Y-66728095D01*
X164499476Y-66775714D01*
X164451857Y-66775714D01*
X164356619Y-66728095D01*
X164309000Y-66680476D01*
X164261380Y-66585238D01*
X164261380Y-66394761D01*
X164309000Y-66299523D01*
X164356619Y-66251904D01*
X164451857Y-66204285D01*
X164499476Y-66204285D01*
X164594714Y-66251904D01*
X164642333Y-66299523D01*
X164689952Y-66394761D01*
X164689952Y-66585238D01*
X164737571Y-66680476D01*
X164785190Y-66728095D01*
X164880428Y-66775714D01*
X165070904Y-66775714D01*
X165166142Y-66728095D01*
X165213761Y-66680476D01*
X165261380Y-66585238D01*
X165261380Y-66394761D01*
X165213761Y-66299523D01*
X165166142Y-66251904D01*
X165070904Y-66204285D01*
X164880428Y-66204285D01*
X164785190Y-66251904D01*
X164737571Y-66299523D01*
X164689952Y-66394761D01*
G04 #@! TO.C,R9*
X172881380Y-67156666D02*
X172405190Y-67490000D01*
X172881380Y-67728095D02*
X171881380Y-67728095D01*
X171881380Y-67347142D01*
X171929000Y-67251904D01*
X171976619Y-67204285D01*
X172071857Y-67156666D01*
X172214714Y-67156666D01*
X172309952Y-67204285D01*
X172357571Y-67251904D01*
X172405190Y-67347142D01*
X172405190Y-67728095D01*
X172881380Y-66680476D02*
X172881380Y-66490000D01*
X172833761Y-66394761D01*
X172786142Y-66347142D01*
X172643285Y-66251904D01*
X172452809Y-66204285D01*
X172071857Y-66204285D01*
X171976619Y-66251904D01*
X171929000Y-66299523D01*
X171881380Y-66394761D01*
X171881380Y-66585238D01*
X171929000Y-66680476D01*
X171976619Y-66728095D01*
X172071857Y-66775714D01*
X172309952Y-66775714D01*
X172405190Y-66728095D01*
X172452809Y-66680476D01*
X172500428Y-66585238D01*
X172500428Y-66394761D01*
X172452809Y-66299523D01*
X172405190Y-66251904D01*
X172309952Y-66204285D01*
G04 #@! TO.C,R10*
X172881380Y-85412857D02*
X172405190Y-85746190D01*
X172881380Y-85984285D02*
X171881380Y-85984285D01*
X171881380Y-85603333D01*
X171929000Y-85508095D01*
X171976619Y-85460476D01*
X172071857Y-85412857D01*
X172214714Y-85412857D01*
X172309952Y-85460476D01*
X172357571Y-85508095D01*
X172405190Y-85603333D01*
X172405190Y-85984285D01*
X172881380Y-84460476D02*
X172881380Y-85031904D01*
X172881380Y-84746190D02*
X171881380Y-84746190D01*
X172024238Y-84841428D01*
X172119476Y-84936666D01*
X172167095Y-85031904D01*
X171881380Y-83841428D02*
X171881380Y-83746190D01*
X171929000Y-83650952D01*
X171976619Y-83603333D01*
X172071857Y-83555714D01*
X172262333Y-83508095D01*
X172500428Y-83508095D01*
X172690904Y-83555714D01*
X172786142Y-83603333D01*
X172833761Y-83650952D01*
X172881380Y-83746190D01*
X172881380Y-83841428D01*
X172833761Y-83936666D01*
X172786142Y-83984285D01*
X172690904Y-84031904D01*
X172500428Y-84079523D01*
X172262333Y-84079523D01*
X172071857Y-84031904D01*
X171976619Y-83984285D01*
X171929000Y-83936666D01*
X171881380Y-83841428D01*
G04 #@! TO.C,R11*
X165261380Y-85412857D02*
X164785190Y-85746190D01*
X165261380Y-85984285D02*
X164261380Y-85984285D01*
X164261380Y-85603333D01*
X164309000Y-85508095D01*
X164356619Y-85460476D01*
X164451857Y-85412857D01*
X164594714Y-85412857D01*
X164689952Y-85460476D01*
X164737571Y-85508095D01*
X164785190Y-85603333D01*
X164785190Y-85984285D01*
X165261380Y-84460476D02*
X165261380Y-85031904D01*
X165261380Y-84746190D02*
X164261380Y-84746190D01*
X164404238Y-84841428D01*
X164499476Y-84936666D01*
X164547095Y-85031904D01*
X165261380Y-83508095D02*
X165261380Y-84079523D01*
X165261380Y-83793809D02*
X164261380Y-83793809D01*
X164404238Y-83889047D01*
X164499476Y-83984285D01*
X164547095Y-84079523D01*
G04 #@! TO.C,U3*
X115452095Y-66007380D02*
X115452095Y-66816904D01*
X115499714Y-66912142D01*
X115547333Y-66959761D01*
X115642571Y-67007380D01*
X115833047Y-67007380D01*
X115928285Y-66959761D01*
X115975904Y-66912142D01*
X116023523Y-66816904D01*
X116023523Y-66007380D01*
X116404476Y-66007380D02*
X117023523Y-66007380D01*
X116690190Y-66388333D01*
X116833047Y-66388333D01*
X116928285Y-66435952D01*
X116975904Y-66483571D01*
X117023523Y-66578809D01*
X117023523Y-66816904D01*
X116975904Y-66912142D01*
X116928285Y-66959761D01*
X116833047Y-67007380D01*
X116547333Y-67007380D01*
X116452095Y-66959761D01*
X116404476Y-66912142D01*
G04 #@! TO.C,J1*
X170370666Y-69192380D02*
X170370666Y-69906666D01*
X170323047Y-70049523D01*
X170227809Y-70144761D01*
X170084952Y-70192380D01*
X169989714Y-70192380D01*
X171370666Y-70192380D02*
X170799238Y-70192380D01*
X171084952Y-70192380D02*
X171084952Y-69192380D01*
X170989714Y-69335238D01*
X170894476Y-69430476D01*
X170799238Y-69478095D01*
G04 #@! TD*
M02*
